<?xml version="1.0" encoding="UTF-8"?>
<svg id="Layer_2" xmlns="http://www.w3.org/2000/svg" version="1.1" viewBox="0 0 612 792">
  <!-- Generator: Adobe Illustrator 29.0.1, SVG Export Plug-In . SVG Version: 2.1.0 Build 192)  -->
  <rect x="-5.9" y="-5.4" width="625.6" height="803.6" fill="#fed700"/>
  <g>
    <circle cx="619.7" cy="28.1" r="6.9" transform="translate(356.6 589.9) rotate(-67.5)" fill="#fff" opacity=".7"/>
    <path d="M-7.3,229c0,1.9,1.5,3.4,3.4,3.4s3.4-1.5,3.4-3.4-1.5-3.4-3.4-3.4-3.4,1.5-3.4,3.4Z" fill="#fff" opacity=".7"/>
    <circle cx="591.6" cy="804.5" r="11.7" fill="#fff" opacity=".7"/>
    <circle cx="135.1" cy="228.2" r="5.2" fill="#fff" opacity=".7"/>
    <circle cx="163.6" cy="225.2" r="5.2" fill="#fff" opacity=".7"/>
    <circle cx="179.2" cy="201.8" r="15.6" fill="#fff" opacity=".7"/>
    <path d="M179.2,260.8c0,2.2,1.8,4.1,4.1,4.1s4.1-1.8,4.1-4.1-1.8-4.1-4.1-4.1-4.1,1.8-4.1,4.1Z" fill="#fff" opacity=".7"/>
    <path d="M208.4,287.6c0,2.2,1.8,4.1,4.1,4.1s4.1-1.8,4.1-4.1-1.8-4.1-4.1-4.1-4.1,1.8-4.1,4.1Z" fill="#fff" opacity=".7"/>
    <circle cx="210.8" cy="246.3" r="9.2" fill="#fff" opacity=".7"/>
    <circle cx="225.6" cy="212" r="5.5" fill="#fff" opacity=".7"/>
    <circle cx="151.3" cy="243.1" r="5.5" fill="#fff" opacity=".7"/>
    <circle cx="216.4" cy="162.6" r="5.5" fill="#fff" opacity=".7"/>
    <circle cx="137.8" cy="185" r="8" fill="#fff" opacity=".7"/>
    <circle cx="169.7" cy="159.2" r="6.1" transform="translate(-62.9 166.6) rotate(-45)" fill="#fff" opacity=".7"/>
    <circle cx="151.3" cy="212" r="6.1" transform="translate(-44.7 40.4) rotate(-13.3)" fill="#fff" opacity=".7"/>
    <circle cx="212.1" cy="185" r="8" fill="#fff" opacity=".7"/>
    <circle cx="208.1" cy="132.5" r="6.4" transform="translate(6 274) rotate(-67.5)" fill="#fff" opacity=".7"/>
    <circle cx="203.3" cy="157.8" r="4.8" transform="translate(-52.1 190) rotate(-45)" fill="#fff" opacity=".7"/>
    <circle cx="248.4" cy="172.2" r="6.9" transform="translate(-32.9 61.7) rotate(-13.3)" fill="#fff" opacity=".7"/>
    <circle cx="248.4" cy="250" r="6.9" transform="translate(-104.1 248.9) rotate(-45)" fill="#fff" opacity=".7"/>
    <circle cx="273.4" cy="221.8" r="15.3" transform="translate(-76.7 258.3) rotate(-45)" fill="#fff" opacity=".7"/>
    <circle cx="246.4" cy="297.2" r="11.7" fill="#fff" opacity=".7"/>
    <circle cx="175.9" cy="285.6" r="11.7" fill="#fff" opacity=".7"/>
    <path d="M198.3,289.3c-1.9,0-3.4,1.5-3.4,3.4s1.5,3.4,3.4,3.4,3.4-1.5,3.4-3.4-1.5-3.4-3.4-3.4Z" fill="#fff" opacity=".7"/>
    <path d="M261.4,271.6c0-1.9-1.5-3.4-3.4-3.4s-3.4,1.5-3.4,3.4,1.5,3.4,3.4,3.4,3.4-1.5,3.4-3.4Z" fill="#fff" opacity=".7"/>
    <path d="M258.1,193c-1.9,0-3.4,1.5-3.4,3.4s1.5,3.4,3.4,3.4,3.4-1.5,3.4-3.4-1.5-3.4-3.4-3.4Z" fill="#fff" opacity=".7"/>
    <path d="M251.8,212c0-1.9-1.5-3.4-3.4-3.4s-3.4,1.5-3.4,3.4,1.5,3.4,3.4,3.4,3.4-1.5,3.4-3.4Z" fill="#fff" opacity=".7"/>
    <path d="M234.8,262.9c0,1.1.9,2,2,2s2-.9,2-2-.9-2-2-2-2,.9-2,2Z" fill="#fff" opacity=".7"/>
    <path d="M216.5,269.5c0-1.1-.9-2-2-2s-2,.9-2,2,.9,2,2,2,2-.9,2-2Z" fill="#fff" opacity=".7"/>
    <path d="M241.5,157.2c-1.1,0-2,.9-2,2s.9,2,2,2,2-.9,2-2-.9-2-2-2Z" fill="#fff" opacity=".7"/>
    <path d="M179.6,233.4c-2.1,0-3.7,1.7-3.7,3.7s1.7,3.7,3.7,3.7,3.7-1.7,3.7-3.7-1.7-3.7-3.7-3.7Z" fill="#fff" opacity=".7"/>
    <path d="M194.9,246.3c-2.1,0-3.7,1.7-3.7,3.7s1.7,3.7,3.7,3.7,3.7-1.7,3.7-3.7-1.7-3.7-3.7-3.7Z" fill="#fff" opacity=".7"/>
    <path d="M172.1,143.2c0,2.1,1.7,3.7,3.7,3.7s3.7-1.7,3.7-3.7-1.7-3.7-3.7-3.7-3.7,1.7-3.7,3.7Z" fill="#fff" opacity=".7"/>
    <path d="M199.9,225.2c.9,0,1.7-.8,1.7-1.7s-.8-1.7-1.7-1.7-1.7.8-1.7,1.7.8,1.7,1.7,1.7Z" fill="#fff" opacity=".7"/>
    <path d="M237.1,233.4c0,.9.8,1.7,1.7,1.7s1.7-.8,1.7-1.7-.8-1.7-1.7-1.7-1.7.8-1.7,1.7Z" fill="#fff" opacity=".7"/>
    <path d="M168,180.8c0,.9.8,1.7,1.7,1.7s1.7-.8,1.7-1.7-.8-1.7-1.7-1.7-1.7.8-1.7,1.7Z" fill="#fff" opacity=".7"/>
    <path d="M232.3,190.5c-.7,0-1.2.5-1.2,1.2s.5,1.2,1.2,1.2,1.2-.5,1.2-1.2-.5-1.2-1.2-1.2Z" fill="#fff" opacity=".7"/>
    <circle cx="187.4" cy="180.8" r="1.2" fill="#fff" opacity=".7"/>
    <circle cx="238.7" cy="125.2" r="5.2" fill="#fff" opacity=".7"/>
    <circle cx="267.3" cy="122.1" r="5.2" transform="translate(-16.1 44.4) rotate(-9.2)" fill="#fff" opacity=".7"/>
    <circle cx="282.9" cy="98.8" r="15.6" fill="#fff" opacity=".7"/>
    <path d="M282.9,157.8c0,2.2,1.8,4.1,4.1,4.1s4.1-1.8,4.1-4.1-1.8-4.1-4.1-4.1-4.1,1.8-4.1,4.1Z" fill="#fff" opacity=".7"/>
    <circle cx="316.2" cy="184.5" r="4.1" fill="#fff" opacity=".7"/>
    <circle cx="314.5" cy="143.3" r="9.2" fill="#fff" opacity=".7"/>
    <circle cx="329.2" cy="108.9" r="5.5" transform="translate(-13.2 54.1) rotate(-9.2)" fill="#fff" opacity=".7"/>
    <circle cx="255" cy="140.1" r="5.5" fill="#fff" opacity=".7"/>
    <circle cx="320" cy="59.5" r="5.5" fill="#fff" opacity=".7"/>
    <circle cx="241.5" cy="81.9" r="8" fill="#fff" opacity=".7"/>
    <circle cx="219.3" cy="103.4" r="8" fill="#fff" opacity=".7"/>
    <circle cx="273.4" cy="56.1" r="6.1" transform="translate(-5.6 64.3) rotate(-13.3)" fill="#fff" opacity=".7"/>
    <circle cx="255" cy="108.9" r="6.1" transform="translate(-18.2 61.5) rotate(-13.3)" fill="#fff" opacity=".7"/>
    <circle cx="315.7" cy="81.9" r="8" fill="#fff" opacity=".7"/>
    <circle cx="311.8" cy="29.5" r="6.4" fill="#fff" opacity=".7"/>
    <circle cx="307" cy="54.8" r="4.8" fill="#fff" opacity=".7"/>
    <circle cx="352.1" cy="69.2" r="6.9" transform="translate(54.2 269.2) rotate(-45)" fill="#fff" opacity=".7"/>
    <circle cx="352.1" cy="147" r="6.9" fill="#fff" opacity=".7"/>
    <circle cx="377.1" cy="118.7" r="15.3" transform="translate(123.1 421.7) rotate(-67.5)" fill="#fff" opacity=".7"/>
    <circle cx="350.1" cy="194.2" r="11.7" fill="#fff" opacity=".7"/>
    <circle cx="279.5" cy="182.5" r="11.7" transform="translate(3.9 370.9) rotate(-67.5)" fill="#fff" opacity=".7"/>
    <path d="M305.3,189.6c0-1.9-1.5-3.4-3.4-3.4s-3.4,1.5-3.4,3.4,1.5,3.4,3.4,3.4,3.4-1.5,3.4-3.4Z" fill="#fff" opacity=".7"/>
    <path d="M358.4,168.5c0,1.9,1.5,3.4,3.4,3.4s3.4-1.5,3.4-3.4-1.5-3.4-3.4-3.4-3.4,1.5-3.4,3.4Z" fill="#fff" opacity=".7"/>
    <path d="M361.8,96.6c1.9,0,3.4-1.5,3.4-3.4s-1.5-3.4-3.4-3.4-3.4,1.5-3.4,3.4,1.5,3.4,3.4,3.4Z" fill="#fff" opacity=".7"/>
    <path d="M355.5,108.9c0-1.9-1.5-3.4-3.4-3.4s-3.4,1.5-3.4,3.4,1.5,3.4,3.4,3.4,3.4-1.5,3.4-3.4Z" fill="#fff" opacity=".7"/>
    <path d="M340.5,161.8c1.1,0,2-.9,2-2s-.9-2-2-2-2,.9-2,2,.9,2,2,2Z" fill="#fff" opacity=".7"/>
    <path d="M320.2,166.5c0-1.1-.9-2-2-2s-2,.9-2,2,.9,2,2,2,2-.9,2-2Z" fill="#fff" opacity=".7"/>
    <path d="M345.2,58.2c1.1,0,2-.9,2-2s-.9-2-2-2-2,.9-2,2,.9,2,2,2Z" fill="#fff" opacity=".7"/>
    <path d="M283.3,130.4c-2.1,0-3.7,1.7-3.7,3.7s1.7,3.7,3.7,3.7,3.7-1.7,3.7-3.7-1.7-3.7-3.7-3.7Z" fill="#fff" opacity=".7"/>
    <path d="M298.6,143.3c-2.1,0-3.7,1.7-3.7,3.7s1.7,3.7,3.7,3.7,3.7-1.7,3.7-3.7-1.7-3.7-3.7-3.7Z" fill="#fff" opacity=".7"/>
    <path d="M279.5,43.9c2.1,0,3.7-1.7,3.7-3.7s-1.7-3.7-3.7-3.7-3.7,1.7-3.7,3.7,1.7,3.7,3.7,3.7Z" fill="#fff" opacity=".7"/>
    <path d="M303.6,118.7c-.9,0-1.7.8-1.7,1.7s.8,1.7,1.7,1.7,1.7-.8,1.7-1.7-.8-1.7-1.7-1.7Z" fill="#fff" opacity=".7"/>
    <path d="M342.5,132.1c.9,0,1.7-.8,1.7-1.7s-.8-1.7-1.7-1.7-1.7.8-1.7,1.7.8,1.7,1.7,1.7Z" fill="#fff" opacity=".7"/>
    <path d="M271.7,77.8c0,.9.8,1.7,1.7,1.7s1.7-.8,1.7-1.7-.8-1.7-1.7-1.7-1.7.8-1.7,1.7Z" fill="#fff" opacity=".7"/>
    <path d="M186.6,120.6c0,.9.8,1.7,1.7,1.7s1.7-.8,1.7-1.7-.8-1.7-1.7-1.7-1.7.8-1.7,1.7Z" fill="#fff" opacity=".7"/>
    <circle cx="336" cy="88.7" r="1.2" fill="#fff" opacity=".7"/>
    <circle cx="291" cy="77.8" r="1.2" fill="#fff" opacity=".7"/>
    <path d="M190.8,91c0-.7-.5-1.2-1.2-1.2s-1.2.5-1.2,1.2.5,1.2,1.2,1.2,1.2-.5,1.2-1.2Z" fill="#fff" opacity=".7"/>
    <circle cx="145.6" cy="156.6" r="1.2" fill="#fff" opacity=".7"/>
    <circle cx="277.9" cy="318.6" r="5.2" fill="#fff" opacity=".7"/>
    <circle cx="306.4" cy="315.6" r="5.2" transform="translate(-46.6 53.2) rotate(-9.2)" fill="#fff" opacity=".7"/>
    <circle cx="322" cy="292.3" r="15.6" transform="translate(-42.7 55.4) rotate(-9.2)" fill="#fff" opacity=".7"/>
    <circle cx="326.1" cy="351.2" r="4.1" fill="#fff" opacity=".7"/>
    <path d="M351.2,378c0,2.2,1.8,4.1,4.1,4.1s4.1-1.8,4.1-4.1-1.8-4.1-4.1-4.1-4.1,1.8-4.1,4.1Z" fill="#fff" opacity=".7"/>
    <circle cx="353.6" cy="336.7" r="9.2" fill="#fff" opacity=".7"/>
    <circle cx="368.3" cy="302.4" r="5.5" fill="#fff" opacity=".7"/>
    <circle cx="294.1" cy="333.6" r="5.5" fill="#fff" opacity=".7"/>
    <circle cx="359.1" cy="253" r="5.5" transform="translate(-48.5 89.3) rotate(-13.3)" fill="#fff" opacity=".7"/>
    <circle cx="280.6" cy="275.4" r="8" fill="#fff" opacity=".7"/>
    <circle cx="312.5" cy="249.6" r="6.1" fill="#fff" opacity=".7"/>
    <circle cx="294.1" cy="302.4" r="6.1" transform="translate(-44.6 51) rotate(-9.2)" fill="#fff" opacity=".7"/>
    <circle cx="354.9" cy="275.4" r="8" fill="#fff" opacity=".7"/>
    <circle cx="323.7" cy="212" r="8" fill="#fff" opacity=".7"/>
    <circle cx="350.9" cy="222.9" r="6.4" fill="#fff" opacity=".7"/>
    <circle cx="346.1" cy="248.2" r="4.8" fill="#fff" opacity=".7"/>
    <circle cx="391.2" cy="262.7" r="6.9" fill="#fff" opacity=".7"/>
    <circle cx="288" cy="249.6" r="6.9" transform="translate(-36.3 49.4) rotate(-9.2)" fill="#fff" opacity=".7"/>
    <circle cx="391.2" cy="340.5" r="6.9" transform="translate(-73 571.6) rotate(-67.5)" fill="#fff" opacity=".7"/>
    <circle cx="416.2" cy="312.2" r="15.3" transform="translate(-31.5 577.2) rotate(-67.5)" fill="#fff" opacity=".7"/>
    <circle cx="389.2" cy="387.7" r="11.7" transform="translate(-117.9 598.9) rotate(-67.5)" fill="#fff" opacity=".7"/>
    <circle cx="318.7" cy="376" r="11.7" fill="#fff" opacity=".7"/>
    <path d="M341,379.7c-1.9,0-3.4,1.5-3.4,3.4s1.5,3.4,3.4,3.4,3.4-1.5,3.4-3.4-1.5-3.4-3.4-3.4Z" fill="#fff" opacity=".7"/>
    <path d="M400.9,358.6c-1.9,0-3.4,1.5-3.4,3.4s1.5,3.4,3.4,3.4,3.4-1.5,3.4-3.4-1.5-3.4-3.4-3.4Z" fill="#fff" opacity=".7"/>
    <path d="M404.2,286.7c0-1.9-1.5-3.4-3.4-3.4s-3.4,1.5-3.4,3.4,1.5,3.4,3.4,3.4,3.4-1.5,3.4-3.4Z" fill="#fff" opacity=".7"/>
    <circle cx="391.2" cy="302.4" r="3.4" fill="#fff" opacity=".7"/>
    <circle cx="379.6" cy="353.3" r="2" fill="#fff" opacity=".7"/>
    <path d="M359.3,359.9c0-1.1-.9-2-2-2s-2,.9-2,2,.9,2,2,2,2-.9,2-2Z" fill="#fff" opacity=".7"/>
    <path d="M386.3,249.6c0-1.1-.9-2-2-2s-2,.9-2,2,.9,2,2,2,2-.9,2-2Z" fill="#fff" opacity=".7"/>
    <path d="M326.1,327.6c0-2.1-1.7-3.7-3.7-3.7s-3.7,1.7-3.7,3.7,1.7,3.7,3.7,3.7,3.7-1.7,3.7-3.7Z" fill="#fff" opacity=".7"/>
    <path d="M334,340.5c0,2.1,1.7,3.7,3.7,3.7s3.7-1.7,3.7-3.7-1.7-3.7-3.7-3.7-3.7,1.7-3.7,3.7Z" fill="#fff" opacity=".7"/>
    <path d="M322.4,233.6c0-2.1-1.7-3.7-3.7-3.7s-3.7,1.7-3.7,3.7,1.7,3.7,3.7,3.7,3.7-1.7,3.7-3.7Z" fill="#fff" opacity=".7"/>
    <circle cx="342.7" cy="313.9" r="1.7" fill="#fff" opacity=".7"/>
    <path d="M381.6,322.2c-.9,0-1.7.8-1.7,1.7s.8,1.7,1.7,1.7,1.7-.8,1.7-1.7-.8-1.7-1.7-1.7Z" fill="#fff" opacity=".7"/>
    <path d="M310.8,271.2c0,.9.8,1.7,1.7,1.7s1.7-.8,1.7-1.7-.8-1.7-1.7-1.7-1.7.8-1.7,1.7Z" fill="#fff" opacity=".7"/>
    <circle cx="375.1" cy="282.1" r="1.2" fill="#fff" opacity=".7"/>
    <circle cx="302.2" cy="225.2" r="1.2" fill="#fff" opacity=".7"/>
    <circle cx="330.2" cy="271.2" r="1.2" fill="#fff" opacity=".7"/>
    <circle cx="382.8" cy="205.6" r="5.2" fill="#fff" opacity=".7"/>
    <circle cx="411.3" cy="202.6" r="5.2" fill="#fff" opacity=".7"/>
    <circle cx="426.9" cy="179.3" r="15.6" fill="#fff" opacity=".7"/>
    <path d="M426.9,238.2c0,2.2,1.8,4.1,4.1,4.1s4.1-1.8,4.1-4.1-1.8-4.1-4.1-4.1-4.1,1.8-4.1,4.1Z" fill="#fff" opacity=".7"/>
    <path d="M456.1,265c0,2.2,1.8,4.1,4.1,4.1s4.1-1.8,4.1-4.1-1.8-4.1-4.1-4.1-4.1,1.8-4.1,4.1Z" fill="#fff" opacity=".7"/>
    <circle cx="458.5" cy="223.7" r="9.2" fill="#fff" opacity=".7"/>
    <circle cx="473.3" cy="189.4" r="5.5" fill="#fff" opacity=".7"/>
    <circle cx="399" cy="220.6" r="5.5" fill="#fff" opacity=".7"/>
    <circle cx="464.1" cy="140" r="5.5" transform="translate(-19.8 110.4) rotate(-13.3)" fill="#fff" opacity=".7"/>
    <circle cx="385.5" cy="162.4" r="8" fill="#fff" opacity=".7"/>
    <circle cx="417.4" cy="136.6" r="6.1" transform="translate(-16.5 68.6) rotate(-9.2)" fill="#fff" opacity=".7"/>
    <circle cx="399" cy="189.4" r="6.1" fill="#fff" opacity=".7"/>
    <circle cx="459.8" cy="162.4" r="8" fill="#fff" opacity=".7"/>
    <circle cx="455.8" cy="109.9" r="6.4" fill="#fff" opacity=".7"/>
    <circle cx="451" cy="135.2" r="4.8" transform="translate(36.5 358.5) rotate(-45)" fill="#fff" opacity=".7"/>
    <circle cx="496.1" cy="149.7" r="6.9" transform="translate(39.5 394.6) rotate(-45)" fill="#fff" opacity=".7"/>
    <circle cx="496.1" cy="227.5" r="6.9" transform="translate(-39 120.1) rotate(-13.3)" fill="#fff" opacity=".7"/>
    <circle cx="521.1" cy="199.2" r="15.3" transform="translate(-31.8 125.1) rotate(-13.3)" fill="#fff" opacity=".7"/>
    <circle cx="494.1" cy="274.7" r="11.7" fill="#fff" opacity=".7"/>
    <circle cx="423.6" cy="263" r="11.7" fill="#fff" opacity=".7"/>
    <path d="M449.3,270.1c0-1.9-1.5-3.4-3.4-3.4s-3.4,1.5-3.4,3.4,1.5,3.4,3.4,3.4,3.4-1.5,3.4-3.4Z" fill="#fff" opacity=".7"/>
    <path d="M505.8,245.6c-1.9,0-3.4,1.5-3.4,3.4s1.5,3.4,3.4,3.4,3.4-1.5,3.4-3.4-1.5-3.4-3.4-3.4Z" fill="#fff" opacity=".7"/>
    <path d="M505.8,170.4c-1.9,0-3.4,1.5-3.4,3.4s1.5,3.4,3.4,3.4,3.4-1.5,3.4-3.4-1.5-3.4-3.4-3.4Z" fill="#fff" opacity=".7"/>
    <path d="M499.5,189.4c0-1.9-1.5-3.4-3.4-3.4s-3.4,1.5-3.4,3.4,1.5,3.4,3.4,3.4,3.4-1.5,3.4-3.4Z" fill="#fff" opacity=".7"/>
    <path d="M482.5,240.3c0,1.1.9,2,2,2s2-.9,2-2-.9-2-2-2-2,.9-2,2Z" fill="#fff" opacity=".7"/>
    <path d="M464.2,246.9c0-1.1-.9-2-2-2s-2,.9-2,2,.9,2,2,2,2-.9,2-2Z" fill="#fff" opacity=".7"/>
    <path d="M489.2,134.6c-1.1,0-2,.9-2,2s.9,2,2,2,2-.9,2-2-.9-2-2-2Z" fill="#fff" opacity=".7"/>
    <path d="M427.3,210.9c-2.1,0-3.7,1.7-3.7,3.7s1.7,3.7,3.7,3.7,3.7-1.7,3.7-3.7-1.7-3.7-3.7-3.7Z" fill="#fff" opacity=".7"/>
    <path d="M442.6,223.7c-2.1,0-3.7,1.7-3.7,3.7s1.7,3.7,3.7,3.7,3.7-1.7,3.7-3.7-1.7-3.7-3.7-3.7Z" fill="#fff" opacity=".7"/>
    <path d="M419.8,120.6c0,2.1,1.7,3.7,3.7,3.7s3.7-1.7,3.7-3.7-1.7-3.7-3.7-3.7-3.7,1.7-3.7,3.7Z" fill="#fff" opacity=".7"/>
    <path d="M447.6,199.2c-.9,0-1.7.8-1.7,1.7s.8,1.7,1.7,1.7,1.7-.8,1.7-1.7-.8-1.7-1.7-1.7Z" fill="#fff" opacity=".7"/>
    <path d="M484.8,210.9c0,.9.8,1.7,1.7,1.7s1.7-.8,1.7-1.7-.8-1.7-1.7-1.7-1.7.8-1.7,1.7Z" fill="#fff" opacity=".7"/>
    <path d="M415.7,158.2c0,.9.8,1.7,1.7,1.7s1.7-.8,1.7-1.7-.8-1.7-1.7-1.7-1.7.8-1.7,1.7Z" fill="#fff" opacity=".7"/>
    <path d="M480,167.9c-.7,0-1.2.5-1.2,1.2s.5,1.2,1.2,1.2,1.2-.5,1.2-1.2-.5-1.2-1.2-1.2Z" fill="#fff" opacity=".7"/>
    <circle cx="435.1" cy="158.2" r="1.2" fill="#fff" opacity=".7"/>
    <circle cx="486.4" cy="102.6" r="5.2" fill="#fff" opacity=".7"/>
    <circle cx="515" cy="99.5" r="5.2" fill="#fff" opacity=".7"/>
    <circle cx="530.6" cy="76.2" r="15.6" fill="#fff" opacity=".7"/>
    <path d="M530.6,135.2c0,2.2,1.8,4.1,4.1,4.1s4.1-1.8,4.1-4.1-1.8-4.1-4.1-4.1-4.1,1.8-4.1,4.1Z" fill="#fff" opacity=".7"/>
    <circle cx="563.9" cy="161.9" r="4.1" fill="#fff" opacity=".7"/>
    <circle cx="562.2" cy="120.7" r="9.2" fill="#fff" opacity=".7"/>
    <circle cx="576.9" cy="86.3" r="5.5" transform="translate(276.4 586.3) rotate(-67.5)" fill="#fff" opacity=".7"/>
    <circle cx="502.7" cy="117.5" r="5.5" fill="#fff" opacity=".7"/>
    <circle cx="567.7" cy="36.9" r="5.5" fill="#fff" opacity=".7"/>
    <circle cx="489.2" cy="59.3" r="8" transform="translate(247.2 488.6) rotate(-67.5)" fill="#fff" opacity=".7"/>
    <circle cx="521.1" cy="33.6" r="6.1" transform="translate(128.9 378.3) rotate(-45)" fill="#fff" opacity=".7"/>
    <circle cx="441.1" cy="79.5" r="6.1" fill="#fff" opacity=".7"/>
    <circle cx="502.7" cy="86.3" r="6.1" transform="translate(-6.4 117.8) rotate(-13.3)" fill="#fff" opacity=".7"/>
    <circle cx="563.4" cy="59.3" r="8" fill="#fff" opacity=".7"/>
    <circle cx="559.5" cy="6.9" r="6.4" fill="#fff" opacity=".7"/>
    <circle cx="554.7" cy="32.2" r="4.8" transform="translate(7.4 128.3) rotate(-13.3)" fill="#fff" opacity=".7"/>
    <circle cx="599.8" cy="46.6" r="6.9" transform="translate(142.7 437.8) rotate(-45)" fill="#fff" opacity=".7"/>
    <circle cx="432.6" cy="101.9" r="6.9" transform="translate(-11.8 102.1) rotate(-13.3)" fill="#fff" opacity=".7"/>
    <circle cx="599.8" cy="124.4" r="6.9" transform="translate(-12.5 141.1) rotate(-13.3)" fill="#fff" opacity=".7"/>
    <circle cx="624.8" cy="96.1" r="15.3" transform="translate(296.9 636.6) rotate(-67.5)" fill="#fff" opacity=".7"/>
    <circle cx="593.8" cy="4.2" r="15.3" fill="#fff" opacity=".7"/>
    <circle cx="597.8" cy="171.6" r="11.7" fill="#fff" opacity=".7"/>
    <circle cx="527.2" cy="159.9" r="11.7" transform="translate(-22.6 125.4) rotate(-13.3)" fill="#fff" opacity=".7"/>
    <path d="M549.6,163.6c-1.9,0-3.4,1.5-3.4,3.4s1.5,3.4,3.4,3.4,3.4-1.5,3.4-3.4-1.5-3.4-3.4-3.4Z" fill="#fff" opacity=".7"/>
    <path d="M609.5,142.5c-1.9,0-3.4,1.5-3.4,3.4s1.5,3.4,3.4,3.4,3.4-1.5,3.4-3.4-1.5-3.4-3.4-3.4Z" fill="#fff" opacity=".7"/>
    <path d="M606.1,70.7c0,1.9,1.5,3.4,3.4,3.4s3.4-1.5,3.4-3.4-1.5-3.4-3.4-3.4-3.4,1.5-3.4,3.4Z" fill="#fff" opacity=".7"/>
    <path d="M603.2,86.3c0-1.9-1.5-3.4-3.4-3.4s-3.4,1.5-3.4,3.4,1.5,3.4,3.4,3.4,3.4-1.5,3.4-3.4Z" fill="#fff" opacity=".7"/>
    <path d="M586.1,137.2c0,1.1.9,2,2,2s2-.9,2-2-.9-2-2-2-2,.9-2,2Z" fill="#fff" opacity=".7"/>
    <path d="M567.9,143.9c0-1.1-.9-2-2-2s-2,.9-2,2,.9,2,2,2,2-.9,2-2Z" fill="#fff" opacity=".7"/>
    <path d="M592.9,31.5c-1.1,0-2,.9-2,2s.9,2,2,2,2-.9,2-2-.9-2-2-2Z" fill="#fff" opacity=".7"/>
    <path d="M531,107.8c-2.1,0-3.7,1.7-3.7,3.7s1.7,3.7,3.7,3.7,3.7-1.7,3.7-3.7-1.7-3.7-3.7-3.7Z" fill="#fff" opacity=".7"/>
    <path d="M542.5,124.4c0,2.1,1.7,3.7,3.7,3.7s3.7-1.7,3.7-3.7-1.7-3.7-3.7-3.7-3.7,1.7-3.7,3.7Z" fill="#fff" opacity=".7"/>
    <path d="M527.2,13.8c-2.1,0-3.7,1.7-3.7,3.7s1.7,3.7,3.7,3.7,3.7-1.7,3.7-3.7-1.7-3.7-3.7-3.7Z" fill="#fff" opacity=".7"/>
    <circle cx="419.8" cy="83.9" r="3.7" fill="#fff" opacity=".7"/>
    <path d="M475.7,80.4c-2.1,0-3.7,1.7-3.7,3.7s1.7,3.7,3.7,3.7,3.7-1.7,3.7-3.7-1.7-3.7-3.7-3.7Z" fill="#fff" opacity=".7"/>
    <path d="M551.3,99.5c.9,0,1.7-.8,1.7-1.7s-.8-1.7-1.7-1.7-1.7.8-1.7,1.7.8,1.7,1.7,1.7Z" fill="#fff" opacity=".7"/>
    <path d="M588.5,107.8c0,.9.8,1.7,1.7,1.7s1.7-.8,1.7-1.7-.8-1.7-1.7-1.7-1.7.8-1.7,1.7Z" fill="#fff" opacity=".7"/>
    <path d="M519.4,55.2c0,.9.8,1.7,1.7,1.7s1.7-.8,1.7-1.7-.8-1.7-1.7-1.7-1.7.8-1.7,1.7Z" fill="#fff" opacity=".7"/>
    <circle cx="583.7" cy="66.1" r="1.2" fill="#fff" opacity=".7"/>
    <circle cx="538.7" cy="55.2" r="1.2" fill="#fff" opacity=".7"/>
    <circle cx="349.3" cy="32.7" r="5.2" fill="#fff" opacity=".7"/>
    <circle cx="377.9" cy="29.7" r="5.2" fill="#fff" opacity=".7"/>
    <circle cx="393.5" cy="6.4" r="15.6" fill="#fff" opacity=".7"/>
    <path d="M397.6,61.3c-2.2,0-4.1,1.8-4.1,4.1s1.8,4.1,4.1,4.1,4.1-1.8,4.1-4.1-1.8-4.1-4.1-4.1Z" fill="#fff" opacity=".7"/>
    <circle cx="425.1" cy="50.8" r="9.2" fill="#fff" opacity=".7"/>
    <circle cx="439.8" cy="16.5" r="5.5" fill="#fff" opacity=".7"/>
    <circle cx="365.6" cy="47.7" r="5.5" fill="#fff" opacity=".7"/>
    <circle cx="295.6" cy="2.6" r="8" fill="#fff" opacity=".7"/>
    <circle cx="365.6" cy="16.5" r="6.1" transform="translate(95.4 263.3) rotate(-45)" fill="#fff" opacity=".7"/>
    <circle cx="462.7" cy="54.6" r="6.9" transform="translate(-2.8 74.8) rotate(-9.2)" fill="#fff" opacity=".7"/>
    <circle cx="487.7" cy="26.3" r="15.3" transform="translate(124.2 352.5) rotate(-45)" fill="#fff" opacity=".7"/>
    <path d="M472.3,4.2c1.9,0,3.4-1.5,3.4-3.4s-1.5-3.4-3.4-3.4-3.4,1.5-3.4,3.4,1.5,3.4,3.4,3.4Z" fill="#fff" opacity=".7"/>
    <path d="M462.7,19.9c1.9,0,3.4-1.5,3.4-3.4s-1.5-3.4-3.4-3.4-3.4,1.5-3.4,3.4,1.5,3.4,3.4,3.4Z" fill="#fff" opacity=".7"/>
    <path d="M393.8,38c-2.1,0-3.7,1.7-3.7,3.7s1.7,3.7,3.7,3.7,3.7-1.7,3.7-3.7-1.7-3.7-3.7-3.7Z" fill="#fff" opacity=".7"/>
    <path d="M405.4,54.6c0,2.1,1.7,3.7,3.7,3.7s3.7-1.7,3.7-3.7-1.7-3.7-3.7-3.7-3.7,1.7-3.7,3.7Z" fill="#fff" opacity=".7"/>
    <path d="M414.2,29.7c.9,0,1.7-.8,1.7-1.7s-.8-1.7-1.7-1.7-1.7.8-1.7,1.7.8,1.7,1.7,1.7Z" fill="#fff" opacity=".7"/>
    <path d="M453.1,39.6c.9,0,1.7-.8,1.7-1.7s-.8-1.7-1.7-1.7-1.7.8-1.7,1.7.8,1.7,1.7,1.7Z" fill="#fff" opacity=".7"/>
    <circle cx="99.1" cy="55.4" r="5.2" fill="#fff" opacity=".7"/>
    <circle cx="127.6" cy="52.3" r="5.2" fill="#fff" opacity=".7"/>
    <circle cx="143.2" cy="29" r="15.6" fill="#fff" opacity=".7"/>
    <path d="M147.3,83.9c-2.2,0-4.1,1.8-4.1,4.1s1.8,4.1,4.1,4.1,4.1-1.8,4.1-4.1-1.8-4.1-4.1-4.1Z" fill="#fff" opacity=".7"/>
    <circle cx="174.8" cy="73.5" r="9.2" fill="#fff" opacity=".7"/>
    <circle cx="154.4" cy="117.5" r="9.2" fill="#fff" opacity=".7"/>
    <circle cx="189.6" cy="39.1" r="5.5" transform="translate(-3.8 30.9) rotate(-9.2)" fill="#fff" opacity=".7"/>
    <circle cx="115.3" cy="70.3" r="5.5" fill="#fff" opacity=".7"/>
    <circle cx="101.8" cy="12.1" r="8" fill="#fff" opacity=".7"/>
    <circle cx="115.3" cy="39.1" r="6.1" fill="#fff" opacity=".7"/>
    <circle cx="176.1" cy="12.1" r="8" fill="#fff" opacity=".7"/>
    <circle cx="212.4" cy="-.6" r="6.9" fill="#fff" opacity=".7"/>
    <circle cx="212.4" cy="77.2" r="6.9" fill="#fff" opacity=".7"/>
    <circle cx="237.4" cy="48.9" r="15.3" fill="#fff" opacity=".7"/>
    <path d="M222.1,26.8c1.9,0,3.4-1.5,3.4-3.4s-1.5-3.4-3.4-3.4-3.4,1.5-3.4,3.4,1.5,3.4,3.4,3.4Z" fill="#fff" opacity=".7"/>
    <path d="M209,39.1c0,1.9,1.5,3.4,3.4,3.4s3.4-1.5,3.4-3.4-1.5-3.4-3.4-3.4-3.4,1.5-3.4,3.4Z" fill="#fff" opacity=".7"/>
    <path d="M335.2,15.6c1.9,0,3.4-1.5,3.4-3.4s-1.5-3.4-3.4-3.4-3.4,1.5-3.4,3.4,1.5,3.4,3.4,3.4Z" fill="#fff" opacity=".7"/>
    <circle cx="285.3" cy="24.3" r="8" fill="#fff" opacity=".7"/>
    <circle cx="258.7" cy="23" r="6.9" fill="#fff" opacity=".7"/>
    <circle cx="251.8" cy="9.9" r="2" fill="#fff" opacity=".7"/>
    <circle cx="530.4" cy="2.1" r="8" fill="#fff" opacity=".7"/>
    <circle cx="503.8" cy=".7" r="6.9" fill="#fff" opacity=".7"/>
    <circle cx="388.1" cy="81.2" r="6.9" fill="#fff" opacity=".7"/>
    <path d="M397.8,108.7c1.9,0,3.4-1.5,3.4-3.4s-1.5-3.4-3.4-3.4-3.4,1.5-3.4,3.4,1.5,3.4,3.4,3.4Z" fill="#fff" opacity=".7"/>
    <path d="M381.2,66.2c-1.1,0-2,.9-2,2s.9,2,2,2,2-.9,2-2-.9-2-2-2Z" fill="#fff" opacity=".7"/>
    <path d="M143.6,60.6c-2.1,0-3.7,1.7-3.7,3.7s1.7,3.7,3.7,3.7,3.7-1.7,3.7-3.7-1.7-3.7-3.7-3.7Z" fill="#fff" opacity=".7"/>
    <path d="M155.2,77.2c0,2.1,1.7,3.7,3.7,3.7s3.7-1.7,3.7-3.7-1.7-3.7-3.7-3.7-3.7,1.7-3.7,3.7Z" fill="#fff" opacity=".7"/>
    <path d="M163.9,52.3c.9,0,1.7-.8,1.7-1.7s-.8-1.7-1.7-1.7-1.7.8-1.7,1.7.8,1.7,1.7,1.7Z" fill="#fff" opacity=".7"/>
    <path d="M202.8,62.3c.9,0,1.7-.8,1.7-1.7s-.8-1.7-1.7-1.7-1.7.8-1.7,1.7.8,1.7,1.7,1.7Z" fill="#fff" opacity=".7"/>
    <path d="M133.7,9.7c.9,0,1.7-.8,1.7-1.7s-.8-1.7-1.7-1.7-1.7.8-1.7,1.7.8,1.7,1.7,1.7Z" fill="#fff" opacity=".7"/>
    <circle cx="196.3" cy="18.9" r="1.2" fill="#fff" opacity=".7"/>
    <path d="M151.4,9.2c.7,0,1.2-.5,1.2-1.2s-.5-1.2-1.2-1.2-1.2.5-1.2,1.2.5,1.2,1.2,1.2Z" fill="#fff" opacity=".7"/>
    <circle cx="9.8" cy="20.7" r="9.2" fill="#fff" opacity=".7"/>
    <circle cx="47.3" cy="24.4" r="6.9" transform="translate(-4.3 11.5) rotate(-13.3)" fill="#fff" opacity=".7"/>
    <circle cx="72.3" cy="-3.8" r="15.3" transform="translate(1.5 11.5) rotate(-9.2)" fill="#fff" opacity=".7"/>
    <circle cx="-9.6" cy="61.3" r="15.3" transform="translate(-9.9 -.8) rotate(-9.2)" fill="#fff" opacity=".7"/>
    <path d="M81.4,29c0,2.1,1.7,3.7,3.7,3.7s3.7-1.7,3.7-3.7-1.7-3.7-3.7-3.7-3.7,1.7-3.7,3.7Z" fill="#fff" opacity=".7"/>
    <path d="M127.6,99.8c2.1,0,3.7-1.7,3.7-3.7s-1.7-3.7-3.7-3.7-3.7,1.7-3.7,3.7,1.7,3.7,3.7,3.7Z" fill="#fff" opacity=".7"/>
    <circle cx="37.8" cy="7.8" r="1.7" fill="#fff" opacity=".7"/>
    <path d="M86.1,48.9c-.9,0-1.7.8-1.7,1.7s.8,1.7,1.7,1.7,1.7-.8,1.7-1.7-.8-1.7-1.7-1.7Z" fill="#fff" opacity=".7"/>
    <circle cx="525.6" cy="296.1" r="5.2" fill="#fff" opacity=".7"/>
    <circle cx="554.1" cy="293" r="5.2" fill="#fff" opacity=".7"/>
    <circle cx="569.7" cy="269.7" r="15.6" fill="#fff" opacity=".7"/>
    <path d="M569.7,328.6c0,2.2,1.8,4.1,4.1,4.1s4.1-1.8,4.1-4.1-1.8-4.1-4.1-4.1-4.1,1.8-4.1,4.1Z" fill="#fff" opacity=".7"/>
    <path d="M598.9,355.4c0,2.2,1.8,4.1,4.1,4.1s4.1-1.8,4.1-4.1-1.8-4.1-4.1-4.1-4.1,1.8-4.1,4.1Z" fill="#fff" opacity=".7"/>
    <circle cx="601.3" cy="314.2" r="9.2" fill="#fff" opacity=".7"/>
    <circle cx="616" cy="279.8" r="5.5" fill="#fff" opacity=".7"/>
    <circle cx="541.8" cy="311" r="5.5" transform="translate(-61.2 474.2) rotate(-45)" fill="#fff" opacity=".7"/>
    <circle cx="606.8" cy="230.4" r="5.5" transform="translate(-29.1 100.2) rotate(-9.2)" fill="#fff" opacity=".7"/>
    <circle cx="528.3" cy="252.8" r="8" fill="#fff" opacity=".7"/>
    <circle cx="560.2" cy="227" r="6.1" fill="#fff" opacity=".7"/>
    <circle cx="541.8" cy="279.8" r="6.1" transform="translate(-37.8 90.4) rotate(-9.2)" fill="#fff" opacity=".7"/>
    <circle cx="602.6" cy="252.8" r="8" fill="#fff" opacity=".7"/>
    <circle cx="571.4" cy="189.4" r="8" fill="#fff" opacity=".7"/>
    <circle cx="598.6" cy="200.4" r="6.4" fill="#fff" opacity=".7"/>
    <circle cx="593.8" cy="225.7" r="4.8" fill="#fff" opacity=".7"/>
    <circle cx="535.7" cy="227" r="6.9" fill="#fff" opacity=".7"/>
    <circle cx="566.4" cy="353.4" r="11.7" fill="#fff" opacity=".7"/>
    <circle cx="449.3" cy="296.9" r="11.7" fill="#fff" opacity=".7"/>
    <path d="M588.7,357.1c-1.9,0-3.4,1.5-3.4,3.4s1.5,3.4,3.4,3.4,3.4-1.5,3.4-3.4-1.5-3.4-3.4-3.4Z" fill="#fff" opacity=".7"/>
    <path d="M607,337.4c0-1.1-.9-2-2-2s-2,.9-2,2,.9,2,2,2,2-.9,2-2Z" fill="#fff" opacity=".7"/>
    <path d="M570.1,301.3c-2.1,0-3.7,1.7-3.7,3.7s1.7,3.7,3.7,3.7,3.7-1.7,3.7-3.7-1.7-3.7-3.7-3.7Z" fill="#fff" opacity=".7"/>
    <path d="M581.7,317.9c0,2.1,1.7,3.7,3.7,3.7s3.7-1.7,3.7-3.7-1.7-3.7-3.7-3.7-3.7,1.7-3.7,3.7Z" fill="#fff" opacity=".7"/>
    <path d="M570.1,211c0-2.1-1.7-3.7-3.7-3.7s-3.7,1.7-3.7,3.7,1.7,3.7,3.7,3.7,3.7-1.7,3.7-3.7Z" fill="#fff" opacity=".7"/>
    <path d="M590.4,289.6c-.9,0-1.7.8-1.7,1.7s.8,1.7,1.7,1.7,1.7-.8,1.7-1.7-.8-1.7-1.7-1.7Z" fill="#fff" opacity=".7"/>
    <path d="M558.5,248.7c0,.9.8,1.7,1.7,1.7s1.7-.8,1.7-1.7-.8-1.7-1.7-1.7-1.7.8-1.7,1.7Z" fill="#fff" opacity=".7"/>
    <circle cx="549.9" cy="202.6" r="1.2" fill="#fff" opacity=".7"/>
    <path d="M579.1,248.7c0-.7-.5-1.2-1.2-1.2s-1.2.5-1.2,1.2.5,1.2,1.2,1.2,1.2-.5,1.2-1.2Z" fill="#fff" opacity=".7"/>
    <circle cx="316.8" cy="516.8" r="5.2" fill="#fff" opacity=".7"/>
    <circle cx="345.3" cy="513.7" r="5.2" fill="#fff" opacity=".7"/>
    <circle cx="361" cy="490.4" r="15.6" fill="#fff" opacity=".7"/>
    <path d="M365.1,553.5c2.2,0,4.1-1.8,4.1-4.1s-1.8-4.1-4.1-4.1-4.1,1.8-4.1,4.1,1.8,4.1,4.1,4.1Z" fill="#fff" opacity=".7"/>
    <path d="M390.2,576.2c0,2.2,1.8,4.1,4.1,4.1s4.1-1.8,4.1-4.1-1.8-4.1-4.1-4.1-4.1,1.8-4.1,4.1Z" fill="#fff" opacity=".7"/>
    <circle cx="392.6" cy="534.9" r="9.2" fill="#fff" opacity=".7"/>
    <circle cx="407.3" cy="500.5" r="5.5" transform="translate(-74.9 71.7) rotate(-9.2)" fill="#fff" opacity=".7"/>
    <circle cx="333.1" cy="531.7" r="5.5" fill="#fff" opacity=".7"/>
    <circle cx="398.1" cy="451.2" r="5.5" fill="#fff" opacity=".7"/>
    <circle cx="319.6" cy="473.5" r="8" transform="translate(-71.7 57.3) rotate(-9.2)" fill="#fff" opacity=".7"/>
    <circle cx="351.5" cy="447.8" r="6.1" transform="translate(-93.5 92.7) rotate(-13.3)" fill="#fff" opacity=".7"/>
    <circle cx="333.1" cy="500.5" r="6.1" transform="translate(-106.1 89.9) rotate(-13.3)" fill="#fff" opacity=".7"/>
    <circle cx="393.8" cy="473.5" r="8" fill="#fff" opacity=".7"/>
    <circle cx="389.8" cy="421.1" r="6.4" fill="#fff" opacity=".7"/>
    <circle cx="385.1" cy="446.4" r="4.8" transform="translate(-202.9 403) rotate(-45)" fill="#fff" opacity=".7"/>
    <circle cx="430.2" cy="460.8" r="6.9" transform="translate(-94.4 111.2) rotate(-13.3)" fill="#fff" opacity=".7"/>
    <circle cx="430.2" cy="538.6" r="6.9" transform="translate(-254.9 461.9) rotate(-45)" fill="#fff" opacity=".7"/>
    <circle cx="455.2" cy="510.4" r="15.3" transform="translate(-75.9 79.5) rotate(-9.2)" fill="#fff" opacity=".7"/>
    <circle cx="428.2" cy="585.8" r="11.7" fill="#fff" opacity=".7"/>
    <circle cx="357.6" cy="574.2" r="11.7" transform="translate(-301.3 421) rotate(-45)" fill="#fff" opacity=".7"/>
    <path d="M380,584.6c1.9,0,3.4-1.5,3.4-3.4s-1.5-3.4-3.4-3.4-3.4,1.5-3.4,3.4,1.5,3.4,3.4,3.4Z" fill="#fff" opacity=".7"/>
    <path d="M443.2,560.1c0-1.9-1.5-3.4-3.4-3.4s-3.4,1.5-3.4,3.4,1.5,3.4,3.4,3.4,3.4-1.5,3.4-3.4Z" fill="#fff" opacity=".7"/>
    <path d="M439.8,488.3c1.9,0,3.4-1.5,3.4-3.4s-1.5-3.4-3.4-3.4-3.4,1.5-3.4,3.4,1.5,3.4,3.4,3.4Z" fill="#fff" opacity=".7"/>
    <path d="M426.8,500.5c0,1.9,1.5,3.4,3.4,3.4s3.4-1.5,3.4-3.4-1.5-3.4-3.4-3.4-3.4,1.5-3.4,3.4Z" fill="#fff" opacity=".7"/>
    <path d="M416.5,551.4c0,1.1.9,2,2,2s2-.9,2-2-.9-2-2-2-2,.9-2,2Z" fill="#fff" opacity=".7"/>
    <circle cx="396.3" cy="558.1" r="2" fill="#fff" opacity=".7"/>
    <path d="M425.3,447.8c0-1.1-.9-2-2-2s-2,.9-2,2,.9,2,2,2,2-.9,2-2Z" fill="#fff" opacity=".7"/>
    <path d="M365.1,525.7c0-2.1-1.7-3.7-3.7-3.7s-3.7,1.7-3.7,3.7,1.7,3.7,3.7,3.7,3.7-1.7,3.7-3.7Z" fill="#fff" opacity=".7"/>
    <path d="M380.4,538.6c0-2.1-1.7-3.7-3.7-3.7s-3.7,1.7-3.7,3.7,1.7,3.7,3.7,3.7,3.7-1.7,3.7-3.7Z" fill="#fff" opacity=".7"/>
    <path d="M357.6,435.5c2.1,0,3.7-1.7,3.7-3.7s-1.7-3.7-3.7-3.7-3.7,1.7-3.7,3.7,1.7,3.7,3.7,3.7Z" fill="#fff" opacity=".7"/>
    <path d="M328,446.9c0,2.1,1.7,3.7,3.7,3.7s3.7-1.7,3.7-3.7-1.7-3.7-3.7-3.7-3.7,1.7-3.7,3.7Z" fill="#fff" opacity=".7"/>
    <path d="M367.4,410.6c-2.1,0-3.7,1.7-3.7,3.7s1.7,3.7,3.7,3.7,3.7-1.7,3.7-3.7-1.7-3.7-3.7-3.7Z" fill="#fff" opacity=".7"/>
    <path d="M380,512c0,.9.8,1.7,1.7,1.7s1.7-.8,1.7-1.7-.8-1.7-1.7-1.7-1.7.8-1.7,1.7Z" fill="#fff" opacity=".7"/>
    <circle cx="420.6" cy="522" r="1.7" fill="#fff" opacity=".7"/>
    <circle cx="351.5" cy="469.4" r="1.7" fill="#fff" opacity=".7"/>
    <circle cx="414.1" cy="480.3" r="1.2" fill="#fff" opacity=".7"/>
    <circle cx="369.1" cy="469.4" r="1.2" fill="#fff" opacity=".7"/>
    <circle cx="420.5" cy="413.7" r="5.2" fill="#fff" opacity=".7"/>
    <circle cx="449" cy="410.7" r="5.2" fill="#fff" opacity=".7"/>
    <circle cx="464.7" cy="387.4" r="15.6" fill="#fff" opacity=".7"/>
    <path d="M468.7,450.4c2.2,0,4.1-1.8,4.1-4.1s-1.8-4.1-4.1-4.1-4.1,1.8-4.1,4.1,1.8,4.1,4.1,4.1Z" fill="#fff" opacity=".7"/>
    <path d="M497.9,469c-2.2,0-4.1,1.8-4.1,4.1s1.8,4.1,4.1,4.1,4.1-1.8,4.1-4.1-1.8-4.1-4.1-4.1Z" fill="#fff" opacity=".7"/>
    <circle cx="496.3" cy="431.8" r="9.2" fill="#fff" opacity=".7"/>
    <circle cx="511" cy="397.5" r="5.5" transform="translate(-51.8 717.5) rotate(-67.5)" fill="#fff" opacity=".7"/>
    <circle cx="436.8" cy="428.6" r="5.5" transform="translate(-63 75.5) rotate(-9.2)" fill="#fff" opacity=".7"/>
    <circle cx="501.8" cy="348.1" r="5.5" fill="#fff" opacity=".7"/>
    <circle cx="423.3" cy="370.5" r="8" fill="#fff" opacity=".7"/>
    <circle cx="455.2" cy="344.7" r="6.1" transform="translate(-67 113.8) rotate(-13.3)" fill="#fff" opacity=".7"/>
    <circle cx="436.8" cy="397.5" r="6.1" transform="translate(-153.1 425.2) rotate(-45)" fill="#fff" opacity=".7"/>
    <circle cx="423.6" cy="344.6" r="6.1" transform="translate(-49.7 72.3) rotate(-9.2)" fill="#fff" opacity=".7"/>
    <circle cx="497.5" cy="370.5" r="8" fill="#fff" opacity=".7"/>
    <circle cx="493.5" cy="318" r="6.4" fill="#fff" opacity=".7"/>
    <circle cx="488.7" cy="343.3" r="4.8" transform="translate(-99.6 446.2) rotate(-45)" fill="#fff" opacity=".7"/>
    <circle cx="533.8" cy="357.8" r="6.9" fill="#fff" opacity=".7"/>
    <circle cx="533.8" cy="435.6" r="6.9" transform="translate(-72.8 762.1) rotate(-67.5)" fill="#fff" opacity=".7"/>
    <circle cx="558.8" cy="407.3" r="15.3" transform="translate(-124.3 514.5) rotate(-45)" fill="#fff" opacity=".7"/>
    <circle cx="531.8" cy="482.8" r="11.7" fill="#fff" opacity=".7"/>
    <circle cx="461.3" cy="471.1" r="11.7" fill="#fff" opacity=".7"/>
    <path d="M487.1,478.2c0-1.9-1.5-3.4-3.4-3.4s-3.4,1.5-3.4,3.4,1.5,3.4,3.4,3.4,3.4-1.5,3.4-3.4Z" fill="#fff" opacity=".7"/>
    <path d="M543.5,453.7c-1.9,0-3.4,1.5-3.4,3.4s1.5,3.4,3.4,3.4,3.4-1.5,3.4-3.4-1.5-3.4-3.4-3.4Z" fill="#fff" opacity=".7"/>
    <path d="M591.4,384.3c0-1.9-1.5-3.4-3.4-3.4s-3.4,1.5-3.4,3.4,1.5,3.4,3.4,3.4,3.4-1.5,3.4-3.4Z" fill="#fff" opacity=".7"/>
    <path d="M543.5,385.2c1.9,0,3.4-1.5,3.4-3.4s-1.5-3.4-3.4-3.4-3.4,1.5-3.4,3.4,1.5,3.4,3.4,3.4Z" fill="#fff" opacity=".7"/>
    <path d="M530.5,397.5c0,1.9,1.5,3.4,3.4,3.4s3.4-1.5,3.4-3.4-1.5-3.4-3.4-3.4-3.4,1.5-3.4,3.4Z" fill="#fff" opacity=".7"/>
    <path d="M522.2,450.4c1.1,0,2-.9,2-2s-.9-2-2-2-2,.9-2,2,.9,2,2,2Z" fill="#fff" opacity=".7"/>
    <path d="M499.9,453c-1.1,0-2,.9-2,2s.9,2,2,2,2-.9,2-2-.9-2-2-2Z" fill="#fff" opacity=".7"/>
    <path d="M529,344.7c0-1.1-.9-2-2-2s-2,.9-2,2,.9,2,2,2,2-.9,2-2Z" fill="#fff" opacity=".7"/>
    <path d="M515.7,331.3c0-1.1-.9-2-2-2s-2,.9-2,2,.9,2,2,2,2-.9,2-2Z" fill="#fff" opacity=".7"/>
    <path d="M510.3,306.9c0-1.1-.9-2-2-2s-2,.9-2,2,.9,2,2,2,2-.9,2-2Z" fill="#fff" opacity=".7"/>
    <path d="M468.7,422.7c0-2.1-1.7-3.7-3.7-3.7s-3.7,1.7-3.7,3.7,1.7,3.7,3.7,3.7,3.7-1.7,3.7-3.7Z" fill="#fff" opacity=".7"/>
    <path d="M476.6,435.6c0,2.1,1.7,3.7,3.7,3.7s3.7-1.7,3.7-3.7-1.7-3.7-3.7-3.7-3.7,1.7-3.7,3.7Z" fill="#fff" opacity=".7"/>
    <path d="M461.3,325c-2.1,0-3.7,1.7-3.7,3.7s1.7,3.7,3.7,3.7,3.7-1.7,3.7-3.7-1.7-3.7-3.7-3.7Z" fill="#fff" opacity=".7"/>
    <path d="M485.4,410.7c.9,0,1.7-.8,1.7-1.7s-.8-1.7-1.7-1.7-1.7.8-1.7,1.7.8,1.7,1.7,1.7Z" fill="#fff" opacity=".7"/>
    <path d="M524.3,417.3c-.9,0-1.7.8-1.7,1.7s.8,1.7,1.7,1.7,1.7-.8,1.7-1.7-.8-1.7-1.7-1.7Z" fill="#fff" opacity=".7"/>
    <path d="M453.5,366.3c0,.9.8,1.7,1.7,1.7s1.7-.8,1.7-1.7-.8-1.7-1.7-1.7-1.7.8-1.7,1.7Z" fill="#fff" opacity=".7"/>
    <circle cx="445.7" cy="324.5" r="1.7" fill="#fff" opacity=".7"/>
    <circle cx="517.7" cy="377.2" r="1.2" fill="#fff" opacity=".7"/>
    <circle cx="526.3" cy="321.9" r="1.2" fill="#fff" opacity=".7"/>
    <path d="M563.9,322.2c0-.7-.5-1.2-1.2-1.2s-1.2.5-1.2,1.2.5,1.2,1.2,1.2,1.2-.5,1.2-1.2Z" fill="#fff" opacity=".7"/>
    <circle cx="472.8" cy="366.3" r="1.2" fill="#fff" opacity=".7"/>
    <path d="M481.2,296.9c0-.7-.5-1.2-1.2-1.2s-1.2.5-1.2,1.2.5,1.2,1.2,1.2,1.2-.5,1.2-1.2Z" fill="#fff" opacity=".7"/>
    <circle cx="459.6" cy="607.2" r="5.2" fill="#fff" opacity=".7"/>
    <circle cx="488.1" cy="604.1" r="5.2" fill="#fff" opacity=".7"/>
    <circle cx="503.8" cy="580.8" r="15.6" fill="#fff" opacity=".7"/>
    <path d="M503.8,639.8c0,2.2,1.8,4.1,4.1,4.1s4.1-1.8,4.1-4.1-1.8-4.1-4.1-4.1-4.1,1.8-4.1,4.1Z" fill="#fff" opacity=".7"/>
    <circle cx="537" cy="666.6" r="4.1" fill="#fff" opacity=".7"/>
    <circle cx="535.4" cy="625.3" r="9.2" fill="#fff" opacity=".7"/>
    <circle cx="550.1" cy="591" r="5.5" fill="#fff" opacity=".7"/>
    <circle cx="475.9" cy="622.1" r="5.5" transform="translate(-281 823.7) rotate(-67.5)" fill="#fff" opacity=".7"/>
    <circle cx="540.9" cy="541.6" r="5.5" transform="translate(-166.4 834) rotate(-67.5)" fill="#fff" opacity=".7"/>
    <circle cx="462.4" cy="564" r="8" fill="#fff" opacity=".7"/>
    <circle cx="494.3" cy="538.2" r="6.1" transform="translate(-110.4 128) rotate(-13.3)" fill="#fff" opacity=".7"/>
    <circle cx="475.9" cy="591" r="6.1" transform="translate(-88.5 83.9) rotate(-9.2)" fill="#fff" opacity=".7"/>
    <circle cx="536.6" cy="564" r="8" transform="translate(-189.8 843.9) rotate(-67.5)" fill="#fff" opacity=".7"/>
    <circle cx="505.5" cy="500.5" r="8" fill="#fff" opacity=".7"/>
    <circle cx="532.6" cy="511.5" r="6.4" transform="translate(-205.7 526.4) rotate(-45)" fill="#fff" opacity=".7"/>
    <circle cx="527.9" cy="536.8" r="4.8" transform="translate(-225 530.5) rotate(-45)" fill="#fff" opacity=".7"/>
    <circle cx="573" cy="551.2" r="6.9" transform="translate(-155.6 869.6) rotate(-67.5)" fill="#fff" opacity=".7"/>
    <circle cx="469.7" cy="538.2" r="6.9" fill="#fff" opacity=".7"/>
    <circle cx="573" cy="629" r="6.9" fill="#fff" opacity=".7"/>
    <circle cx="598" cy="600.8" r="15.3" fill="#fff" opacity=".7"/>
    <circle cx="571" cy="676.2" r="11.7" transform="translate(-100.9 100.2) rotate(-9.2)" fill="#fff" opacity=".7"/>
    <circle cx="500.4" cy="664.6" r="11.7" fill="#fff" opacity=".7"/>
    <path d="M526.2,671.6c0-1.9-1.5-3.4-3.4-3.4s-3.4,1.5-3.4,3.4,1.5,3.4,3.4,3.4,3.4-1.5,3.4-3.4Z" fill="#fff" opacity=".7"/>
    <path d="M582.6,653.9c1.9,0,3.4-1.5,3.4-3.4s-1.5-3.4-3.4-3.4-3.4,1.5-3.4,3.4,1.5,3.4,3.4,3.4Z" fill="#fff" opacity=".7"/>
    <path d="M579.2,575.3c0,1.9,1.5,3.4,3.4,3.4s3.4-1.5,3.4-3.4-1.5-3.4-3.4-3.4-3.4,1.5-3.4,3.4Z" fill="#fff" opacity=".7"/>
    <path d="M569.6,591c0,1.9,1.5,3.4,3.4,3.4s3.4-1.5,3.4-3.4-1.5-3.4-3.4-3.4-3.4,1.5-3.4,3.4Z" fill="#fff" opacity=".7"/>
    <path d="M603,557.7c-1.9,0-3.4,1.5-3.4,3.4s1.5,3.4,3.4,3.4,3.4-1.5,3.4-3.4-1.5-3.4-3.4-3.4Z" fill="#fff" opacity=".7"/>
    <path d="M559.3,641.8c0,1.1.9,2,2,2s2-.9,2-2-.9-2-2-2-2,.9-2,2Z" fill="#fff" opacity=".7"/>
    <path d="M539.1,646.5c-1.1,0-2,.9-2,2s.9,2,2,2,2-.9,2-2-.9-2-2-2Z" fill="#fff" opacity=".7"/>
    <path d="M568.1,538.2c0-1.1-.9-2-2-2s-2,.9-2,2,.9,2,2,2,2-.9,2-2Z" fill="#fff" opacity=".7"/>
    <path d="M504.1,612.4c-2.1,0-3.7,1.7-3.7,3.7s1.7,3.7,3.7,3.7,3.7-1.7,3.7-3.7-1.7-3.7-3.7-3.7Z" fill="#fff" opacity=".7"/>
    <path d="M515.7,629c0,2.1,1.7,3.7,3.7,3.7s3.7-1.7,3.7-3.7-1.7-3.7-3.7-3.7-3.7,1.7-3.7,3.7Z" fill="#fff" opacity=".7"/>
    <path d="M504.1,522.2c0-2.1-1.7-3.7-3.7-3.7s-3.7,1.7-3.7,3.7,1.7,3.7,3.7,3.7,3.7-1.7,3.7-3.7Z" fill="#fff" opacity=".7"/>
    <path d="M524.5,600.8c-.9,0-1.7.8-1.7,1.7s.8,1.7,1.7,1.7,1.7-.8,1.7-1.7-.8-1.7-1.7-1.7Z" fill="#fff" opacity=".7"/>
    <path d="M565.1,612.4c0-.9-.8-1.7-1.7-1.7s-1.7.8-1.7,1.7.8,1.7,1.7,1.7,1.7-.8,1.7-1.7Z" fill="#fff" opacity=".7"/>
    <path d="M492.6,559.8c0,.9.8,1.7,1.7,1.7s1.7-.8,1.7-1.7-.8-1.7-1.7-1.7-1.7.8-1.7,1.7Z" fill="#fff" opacity=".7"/>
    <path d="M558.1,570.7c0-.7-.5-1.2-1.2-1.2s-1.2.5-1.2,1.2.5,1.2,1.2,1.2,1.2-.5,1.2-1.2Z" fill="#fff" opacity=".7"/>
    <path d="M484,515c.7,0,1.2-.5,1.2-1.2s-.5-1.2-1.2-1.2-1.2.5-1.2,1.2.5,1.2,1.2,1.2Z" fill="#fff" opacity=".7"/>
    <circle cx="511.9" cy="559.8" r="1.2" fill="#fff" opacity=".7"/>
    <circle cx="68.9" cy="532" r="5.2" transform="translate(-84.3 17.9) rotate(-9.2)" fill="#fff" opacity=".7"/>
    <circle cx="97.4" cy="529" r="5.2" fill="#fff" opacity=".7"/>
    <circle cx="113.1" cy="505.6" r="15.6" fill="#fff" opacity=".7"/>
    <path d="M113.1,564.6c0,2.2,1.8,4.1,4.1,4.1s4.1-1.8,4.1-4.1-1.8-4.1-4.1-4.1-4.1,1.8-4.1,4.1Z" fill="#fff" opacity=".7"/>
    <path d="M150.4,591.4c0-2.2-1.8-4.1-4.1-4.1s-4.1,1.8-4.1,4.1,1.8,4.1,4.1,4.1,4.1-1.8,4.1-4.1Z" fill="#fff" opacity=".7"/>
    <circle cx="144.7" cy="550.1" r="9.2" fill="#fff" opacity=".7"/>
    <circle cx="159.4" cy="515.8" r="5.5" fill="#fff" opacity=".7"/>
    <circle cx="85.1" cy="546.9" r="5.5" transform="translate(-452.7 416.3) rotate(-67.5)" fill="#fff" opacity=".7"/>
    <circle cx="150.2" cy="466.4" r="5.5" transform="translate(-285.8 242.8) rotate(-45)" fill="#fff" opacity=".7"/>
    <circle cx="71.6" cy="488.8" r="8" transform="translate(-77.4 17.8) rotate(-9.2)" fill="#fff" opacity=".7"/>
    <circle cx="103.5" cy="463" r="6.1" fill="#fff" opacity=".7"/>
    <circle cx="78" cy="463" r="6.1" fill="#fff" opacity=".7"/>
    <circle cx="85.1" cy="515.8" r="6.1" fill="#fff" opacity=".7"/>
    <circle cx="145.9" cy="488.8" r="8" fill="#fff" opacity=".7"/>
    <circle cx="141.9" cy="436.3" r="6.4" transform="translate(-68.1 28.4) rotate(-9.2)" fill="#fff" opacity=".7"/>
    <circle cx="137.1" cy="461.6" r="4.8" transform="translate(-102.4 43.9) rotate(-13.3)" fill="#fff" opacity=".7"/>
    <circle cx="121.6" cy="435.6" r="4.8" fill="#fff" opacity=".7"/>
    <circle cx="182.2" cy="476" r="6.9" fill="#fff" opacity=".7"/>
    <circle cx="182.2" cy="553.8" r="6.9" transform="translate(-122.4 56.7) rotate(-13.3)" fill="#fff" opacity=".7"/>
    <circle cx="207.2" cy="525.6" r="15.3" transform="translate(-310.9 300.5) rotate(-45)" fill="#fff" opacity=".7"/>
    <circle cx="180.2" cy="601" r="11.7" fill="#fff" opacity=".7"/>
    <circle cx="109.7" cy="589.4" r="11.7" transform="translate(-93 25.2) rotate(-9.2)" fill="#fff" opacity=".7"/>
    <path d="M132.1,593.1c-1.9,0-3.4,1.5-3.4,3.4s1.5,3.4,3.4,3.4,3.4-1.5,3.4-3.4-1.5-3.4-3.4-3.4Z" fill="#fff" opacity=".7"/>
    <path d="M195.3,575.4c0-1.9-1.5-3.4-3.4-3.4s-3.4,1.5-3.4,3.4,1.5,3.4,3.4,3.4,3.4-1.5,3.4-3.4Z" fill="#fff" opacity=".7"/>
    <path d="M191.9,503.5c1.9,0,3.4-1.5,3.4-3.4s-1.5-3.4-3.4-3.4-3.4,1.5-3.4,3.4,1.5,3.4,3.4,3.4Z" fill="#fff" opacity=".7"/>
    <path d="M178.9,515.8c0,1.9,1.5,3.4,3.4,3.4s3.4-1.5,3.4-3.4-1.5-3.4-3.4-3.4-3.4,1.5-3.4,3.4Z" fill="#fff" opacity=".7"/>
    <path d="M170.6,568.7c1.1,0,2-.9,2-2s-.9-2-2-2-2,.9-2,2,.9,2,2,2Z" fill="#fff" opacity=".7"/>
    <path d="M154.4,624.5c1.1,0,2-.9,2-2s-.9-2-2-2-2,.9-2,2,.9,2,2,2Z" fill="#fff" opacity=".7"/>
    <path d="M148.3,571.3c-1.1,0-2,.9-2,2s.9,2,2,2,2-.9,2-2-.9-2-2-2Z" fill="#fff" opacity=".7"/>
    <path d="M177.4,463c0-1.1-.9-2-2-2s-2,.9-2,2,.9,2,2,2,2-.9,2-2Z" fill="#fff" opacity=".7"/>
    <path d="M113.4,537.2c-2.1,0-3.7,1.7-3.7,3.7s1.7,3.7,3.7,3.7,3.7-1.7,3.7-3.7-1.7-3.7-3.7-3.7Z" fill="#fff" opacity=".7"/>
    <path d="M128.7,557.6c2.1,0,3.7-1.7,3.7-3.7s-1.7-3.7-3.7-3.7-3.7,1.7-3.7,3.7,1.7,3.7,3.7,3.7Z" fill="#fff" opacity=".7"/>
    <path d="M113.4,447c0-2.1-1.7-3.7-3.7-3.7s-3.7,1.7-3.7,3.7,1.7,3.7,3.7,3.7,3.7-1.7,3.7-3.7Z" fill="#fff" opacity=".7"/>
    <path d="M94.6,440c2.1,0,3.7-1.7,3.7-3.7s-1.7-3.7-3.7-3.7-3.7,1.7-3.7,3.7,1.7,3.7,3.7,3.7Z" fill="#fff" opacity=".7"/>
    <path d="M133.8,525.6c-.9,0-1.7.8-1.7,1.7s.8,1.7,1.7,1.7,1.7-.8,1.7-1.7-.8-1.7-1.7-1.7Z" fill="#fff" opacity=".7"/>
    <path d="M174.3,537.2c0-.9-.8-1.7-1.7-1.7s-1.7.8-1.7,1.7.8,1.7,1.7,1.7,1.7-.8,1.7-1.7Z" fill="#fff" opacity=".7"/>
    <path d="M101.9,484.6c0,.9.8,1.7,1.7,1.7s1.7-.8,1.7-1.7-.8-1.7-1.7-1.7-1.7.8-1.7,1.7Z" fill="#fff" opacity=".7"/>
    <path d="M166.1,496.7c.7,0,1.2-.5,1.2-1.2s-.5-1.2-1.2-1.2-1.2.5-1.2,1.2.5,1.2,1.2,1.2Z" fill="#fff" opacity=".7"/>
    <circle cx="121.2" cy="484.6" r="1.2" fill="#fff" opacity=".7"/>
    <circle cx="172.6" cy="429" r="5.2" fill="#fff" opacity=".7"/>
    <circle cx="201.1" cy="425.9" r="5.2" fill="#fff" opacity=".7"/>
    <circle cx="216.7" cy="402.6" r="15.6" fill="#fff" opacity=".7"/>
    <path d="M216.7,461.5c0,2.2,1.8,4.1,4.1,4.1s4.1-1.8,4.1-4.1-1.8-4.1-4.1-4.1-4.1,1.8-4.1,4.1Z" fill="#fff" opacity=".7"/>
    <path d="M250,484.2c-2.2,0-4.1,1.8-4.1,4.1s1.8,4.1,4.1,4.1,4.1-1.8,4.1-4.1-1.8-4.1-4.1-4.1Z" fill="#fff" opacity=".7"/>
    <circle cx="248.3" cy="447.1" r="9.2" fill="#fff" opacity=".7"/>
    <circle cx="263.1" cy="412.7" r="5.5" transform="translate(-62.7 47.5) rotate(-9.2)" fill="#fff" opacity=".7"/>
    <circle cx="188.8" cy="443.9" r="5.5" fill="#fff" opacity=".7"/>
    <circle cx="253.9" cy="363.3" r="5.5" fill="#fff" opacity=".7"/>
    <circle cx="216.7" cy="327.4" r="5.5" fill="#fff" opacity=".7"/>
    <circle cx="109.5" cy="416.4" r="5.5" fill="#fff" opacity=".7"/>
    <circle cx="175.3" cy="385.7" r="8" fill="#fff" opacity=".7"/>
    <circle cx="182.2" cy="356.1" r="8" fill="#fff" opacity=".7"/>
    <circle cx="207.2" cy="359.9" r="6.1" transform="translate(-77.2 57.2) rotate(-13.3)" fill="#fff" opacity=".7"/>
    <circle cx="195.3" cy="313.1" r="6.1" transform="translate(-66.7 53.2) rotate(-13.3)" fill="#fff" opacity=".7"/>
    <circle cx="188.8" cy="412.7" r="6.1" transform="translate(-89.8 54.4) rotate(-13.3)" fill="#fff" opacity=".7"/>
    <circle cx="249.6" cy="385.7" r="8" fill="#fff" opacity=".7"/>
    <circle cx="245.6" cy="333.2" r="6.4" fill="#fff" opacity=".7"/>
    <circle cx="240.8" cy="358.6" r="4.8" transform="translate(-183 275.3) rotate(-45)" fill="#fff" opacity=".7"/>
    <circle cx="221.8" cy="307.9" r="4.8" transform="translate(-152.8 247) rotate(-45)" fill="#fff" opacity=".7"/>
    <circle cx="285.9" cy="373" r="6.9" transform="translate(-78 75.7) rotate(-13.3)" fill="#fff" opacity=".7"/>
    <circle cx="285.9" cy="450.8" r="6.9" transform="translate(-95.9 77.7) rotate(-13.3)" fill="#fff" opacity=".7"/>
    <circle cx="310.9" cy="422.5" r="15.3" fill="#fff" opacity=".7"/>
    <circle cx="283.9" cy="498" r="11.7" fill="#fff" opacity=".7"/>
    <circle cx="213.4" cy="486.3" r="11.7" fill="#fff" opacity=".7"/>
    <path d="M239.1,493.4c0-1.9-1.5-3.4-3.4-3.4s-3.4,1.5-3.4,3.4,1.5,3.4,3.4,3.4,3.4-1.5,3.4-3.4Z" fill="#fff" opacity=".7"/>
    <path d="M295.6,468.9c-1.9,0-3.4,1.5-3.4,3.4s1.5,3.4,3.4,3.4,3.4-1.5,3.4-3.4-1.5-3.4-3.4-3.4Z" fill="#fff" opacity=".7"/>
    <path d="M298.9,397.1c0-1.9-1.5-3.4-3.4-3.4s-3.4,1.5-3.4,3.4,1.5,3.4,3.4,3.4,3.4-1.5,3.4-3.4Z" fill="#fff" opacity=".7"/>
    <path d="M289.3,412.7c0-1.9-1.5-3.4-3.4-3.4s-3.4,1.5-3.4,3.4,1.5,3.4,3.4,3.4,3.4-1.5,3.4-3.4Z" fill="#fff" opacity=".7"/>
    <path d="M274.3,465.6c1.1,0,2-.9,2-2s-.9-2-2-2-2,.9-2,2,.9,2,2,2Z" fill="#fff" opacity=".7"/>
    <path d="M252,468.2c-1.1,0-2,.9-2,2s.9,2,2,2,2-.9,2-2-.9-2-2-2Z" fill="#fff" opacity=".7"/>
    <path d="M281,359.9c0-1.1-.9-2-2-2s-2,.9-2,2,.9,2,2,2,2-.9,2-2Z" fill="#fff" opacity=".7"/>
    <path d="M217.1,434.2c-2.1,0-3.7,1.7-3.7,3.7s1.7,3.7,3.7,3.7,3.7-1.7,3.7-3.7-1.7-3.7-3.7-3.7Z" fill="#fff" opacity=".7"/>
    <path d="M232.4,454.5c2.1,0,3.7-1.7,3.7-3.7s-1.7-3.7-3.7-3.7-3.7,1.7-3.7,3.7,1.7,3.7,3.7,3.7Z" fill="#fff" opacity=".7"/>
    <path d="M213.4,347.7c2.1,0,3.7-1.7,3.7-3.7s-1.7-3.7-3.7-3.7-3.7,1.7-3.7,3.7,1.7,3.7,3.7,3.7Z" fill="#fff" opacity=".7"/>
    <path d="M236.8,325.3c2.1,0,3.7-1.7,3.7-3.7s-1.7-3.7-3.7-3.7-3.7,1.7-3.7,3.7,1.7,3.7,3.7,3.7Z" fill="#fff" opacity=".7"/>
    <path d="M237.4,425.9c.9,0,1.7-.8,1.7-1.7s-.8-1.7-1.7-1.7-1.7.8-1.7,1.7.8,1.7,1.7,1.7Z" fill="#fff" opacity=".7"/>
    <path d="M276.3,432.5c-.9,0-1.7.8-1.7,1.7s.8,1.7,1.7,1.7,1.7-.8,1.7-1.7-.8-1.7-1.7-1.7Z" fill="#fff" opacity=".7"/>
    <path d="M207.2,383.2c.9,0,1.7-.8,1.7-1.7s-.8-1.7-1.7-1.7-1.7.8-1.7,1.7.8,1.7,1.7,1.7Z" fill="#fff" opacity=".7"/>
    <circle cx="269.8" cy="392.5" r="1.2" fill="#fff" opacity=".7"/>
    <circle cx="224.9" cy="381.6" r="1.2" fill="#fff" opacity=".7"/>
    <circle cx="211.7" cy="622.4" r="5.2" fill="#fff" opacity=".7"/>
    <circle cx="240.2" cy="619.4" r="5.2" fill="#fff" opacity=".7"/>
    <circle cx="255.8" cy="596.1" r="15.6" transform="translate(-92.2 48.7) rotate(-9.2)" fill="#fff" opacity=".7"/>
    <path d="M255.8,655c0,2.2,1.8,4.1,4.1,4.1s4.1-1.8,4.1-4.1-1.8-4.1-4.1-4.1-4.1,1.8-4.1,4.1Z" fill="#fff" opacity=".7"/>
    <path d="M285,681.8c0,2.2,1.8,4.1,4.1,4.1s4.1-1.8,4.1-4.1-1.8-4.1-4.1-4.1-4.1,1.8-4.1,4.1Z" fill="#fff" opacity=".7"/>
    <circle cx="287.4" cy="640.5" r="9.2" fill="#fff" opacity=".7"/>
    <circle cx="302.2" cy="606.2" r="5.5" fill="#fff" opacity=".7"/>
    <circle cx="227.9" cy="637.4" r="5.5" transform="translate(-140.3 69.4) rotate(-13.3)" fill="#fff" opacity=".7"/>
    <circle cx="293" cy="556.8" r="5.5" fill="#fff" opacity=".7"/>
    <circle cx="214.4" cy="579.2" r="8" fill="#fff" opacity=".7"/>
    <circle cx="246.3" cy="553.4" r="6.1" fill="#fff" opacity=".7"/>
    <circle cx="227.9" cy="606.2" r="6.1" transform="translate(-133.2 68.6) rotate(-13.3)" fill="#fff" opacity=".7"/>
    <circle cx="288.7" cy="579.2" r="8" fill="#fff" opacity=".7"/>
    <circle cx="257.5" cy="515.8" r="8" fill="#fff" opacity=".7"/>
    <circle cx="284.7" cy="526.7" r="6.4" fill="#fff" opacity=".7"/>
    <circle cx="279.9" cy="552" r="4.8" fill="#fff" opacity=".7"/>
    <circle cx="325" cy="566.5" r="6.9" fill="#fff" opacity=".7"/>
    <circle cx="221.8" cy="553.4" r="6.9" fill="#fff" opacity=".7"/>
    <circle cx="325" cy="644.3" r="6.9" fill="#fff" opacity=".7"/>
    <circle cx="350" cy="616" r="15.3" transform="translate(-132.2 96.9) rotate(-13.3)" fill="#fff" opacity=".7"/>
    <circle cx="323" cy="691.5" r="11.7" fill="#fff" opacity=".7"/>
    <circle cx="252.5" cy="679.8" r="11.7" fill="#fff" opacity=".7"/>
    <path d="M274.9,690.2c1.9,0,3.4-1.5,3.4-3.4s-1.5-3.4-3.4-3.4-3.4,1.5-3.4,3.4,1.5,3.4,3.4,3.4Z" fill="#fff" opacity=".7"/>
    <path d="M334.7,662.4c-1.9,0-3.4,1.5-3.4,3.4s1.5,3.4,3.4,3.4,3.4-1.5,3.4-3.4-1.5-3.4-3.4-3.4Z" fill="#fff" opacity=".7"/>
    <path d="M383.4,609.3c0-1.9-1.5-3.4-3.4-3.4s-3.4,1.5-3.4,3.4,1.5,3.4,3.4,3.4,3.4-1.5,3.4-3.4Z" fill="#fff" opacity=".7"/>
    <path d="M334.7,593.9c1.9,0,3.4-1.5,3.4-3.4s-1.5-3.4-3.4-3.4-3.4,1.5-3.4,3.4,1.5,3.4,3.4,3.4Z" fill="#fff" opacity=".7"/>
    <path d="M321.6,606.2c0,1.9,1.5,3.4,3.4,3.4s3.4-1.5,3.4-3.4-1.5-3.4-3.4-3.4-3.4,1.5-3.4,3.4Z" fill="#fff" opacity=".7"/>
    <circle cx="313.4" cy="657.1" r="2" fill="#fff" opacity=".7"/>
    <path d="M293.2,663.7c0-1.1-.9-2-2-2s-2,.9-2,2,.9,2,2,2,2-.9,2-2Z" fill="#fff" opacity=".7"/>
    <circle cx="318.1" cy="553.4" r="2" fill="#fff" opacity=".7"/>
    <path d="M256.2,627.7c-2.1,0-3.7,1.7-3.7,3.7s1.7,3.7,3.7,3.7,3.7-1.7,3.7-3.7-1.7-3.7-3.7-3.7Z" fill="#fff" opacity=".7"/>
    <path d="M271.5,648c2.1,0,3.7-1.7,3.7-3.7s-1.7-3.7-3.7-3.7-3.7,1.7-3.7,3.7,1.7,3.7,3.7,3.7Z" fill="#fff" opacity=".7"/>
    <path d="M256.2,537.4c0-2.1-1.7-3.7-3.7-3.7s-3.7,1.7-3.7,3.7,1.7,3.7,3.7,3.7,3.7-1.7,3.7-3.7Z" fill="#fff" opacity=".7"/>
    <path d="M276.6,616c-.9,0-1.7.8-1.7,1.7s.8,1.7,1.7,1.7,1.7-.8,1.7-1.7-.8-1.7-1.7-1.7Z" fill="#fff" opacity=".7"/>
    <path d="M317.1,627.7c0-.9-.8-1.7-1.7-1.7s-1.7.8-1.7,1.7.8,1.7,1.7,1.7,1.7-.8,1.7-1.7Z" fill="#fff" opacity=".7"/>
    <path d="M244.7,575c0,.9.8,1.7,1.7,1.7s1.7-.8,1.7-1.7-.8-1.7-1.7-1.7-1.7.8-1.7,1.7Z" fill="#fff" opacity=".7"/>
    <circle cx="308.9" cy="585.9" r="1.2" fill="#fff" opacity=".7"/>
    <circle cx="236.1" cy="529" r="1.2" fill="#fff" opacity=".7"/>
    <path d="M262.8,575c0,.7.5,1.2,1.2,1.2s1.2-.5,1.2-1.2-.5-1.2-1.2-1.2-1.2.5-1.2,1.2Z" fill="#fff" opacity=".7"/>
    <circle cx="-3.9" cy="189.3" r="6.9" transform="translate(-135 52.7) rotate(-45)" fill="#fff" opacity=".7"/>
    <circle cx="-3.9" cy="267.1" r="6.9" transform="translate(-42.8 2.8) rotate(-9.2)" fill="#fff" opacity=".7"/>
    <circle cx="21.1" cy="238.8" r="15.3" transform="translate(-38 6.5) rotate(-9.2)" fill="#fff" opacity=".7"/>
    <circle cx="-5.9" cy="314.3" r="11.7" fill="#fff" opacity=".7"/>
    <path d="M5.8,292c1.9,0,3.4-1.5,3.4-3.4s-1.5-3.4-3.4-3.4-3.4,1.5-3.4,3.4,1.5,3.4,3.4,3.4Z" fill="#fff" opacity=".7"/>
    <path d="M5.8,210c-1.9,0-3.4,1.5-3.4,3.4s1.5,3.4,3.4,3.4,3.4-1.5,3.4-3.4-1.5-3.4-3.4-3.4Z" fill="#fff" opacity=".7"/>
    <circle cx="15" cy="139.2" r="5.2" fill="#fff" opacity=".7"/>
    <circle cx="30.6" cy="115.8" r="15.6" fill="#fff" opacity=".7"/>
    <path d="M30.6,174.8c0,2.2,1.8,4.1,4.1,4.1s4.1-1.8,4.1-4.1-1.8-4.1-4.1-4.1-4.1,1.8-4.1,4.1Z" fill="#fff" opacity=".7"/>
    <path d="M59.8,201.6c0,2.2,1.8,4.1,4.1,4.1s4.1-1.8,4.1-4.1-1.8-4.1-4.1-4.1-4.1,1.8-4.1,4.1Z" fill="#fff" opacity=".7"/>
    <circle cx="62.2" cy="160.3" r="9.2" fill="#fff" opacity=".7"/>
    <circle cx="76.9" cy="126" r="5.5" fill="#fff" opacity=".7"/>
    <circle cx="2.7" cy="157.1" r="5.5" transform="translate(-110.3 47.9) rotate(-45)" fill="#fff" opacity=".7"/>
    <circle cx="67.7" cy="76.6" r="5.5" fill="#fff" opacity=".7"/>
    <circle cx="21.1" cy="73.2" r="6.1" fill="#fff" opacity=".7"/>
    <circle cx="2.7" cy="126" r="6.1" transform="translate(-88.3 38.8) rotate(-45)" fill="#fff" opacity=".7"/>
    <circle cx="63.4" cy="99" r="8" fill="#fff" opacity=".7"/>
    <circle cx="59.5" cy="46.5" r="6.4" fill="#fff" opacity=".7"/>
    <circle cx="54.7" cy="71.8" r="4.8" transform="translate(-10.8 9.7) rotate(-9.2)" fill="#fff" opacity=".7"/>
    <circle cx="99.8" cy="86.2" r="6.9" transform="translate(-12.5 17.1) rotate(-9.2)" fill="#fff" opacity=".7"/>
    <circle cx="99.8" cy="164" r="6.9" transform="translate(-90 193.5) rotate(-67.5)" fill="#fff" opacity=".7"/>
    <circle cx="124.8" cy="135.8" r="15.3" transform="translate(-59.5 128) rotate(-45)" fill="#fff" opacity=".7"/>
    <circle cx="97.8" cy="211.2" r="11.7" fill="#fff" opacity=".7"/>
    <circle cx="27.2" cy="199.6" r="11.7" fill="#fff" opacity=".7"/>
    <path d="M53,206.6c0-1.9-1.5-3.4-3.4-3.4s-3.4,1.5-3.4,3.4,1.5,3.4,3.4,3.4,3.4-1.5,3.4-3.4Z" fill="#fff" opacity=".7"/>
    <path d="M112.8,185.6c0-1.9-1.5-3.4-3.4-3.4s-3.4,1.5-3.4,3.4,1.5,3.4,3.4,3.4,3.4-1.5,3.4-3.4Z" fill="#fff" opacity=".7"/>
    <path d="M106.1,110.3c0,1.9,1.5,3.4,3.4,3.4s3.4-1.5,3.4-3.4-1.5-3.4-3.4-3.4-3.4,1.5-3.4,3.4Z" fill="#fff" opacity=".7"/>
    <path d="M96.4,126c0,1.9,1.5,3.4,3.4,3.4s3.4-1.5,3.4-3.4-1.5-3.4-3.4-3.4-3.4,1.5-3.4,3.4Z" fill="#fff" opacity=".7"/>
    <path d="M88.2,174.8c-1.1,0-2,.9-2,2s.9,2,2,2,2-.9,2-2-.9-2-2-2Z" fill="#fff" opacity=".7"/>
    <path d="M67.9,183.5c0-1.1-.9-2-2-2s-2,.9-2,2,.9,2,2,2,2-.9,2-2Z" fill="#fff" opacity=".7"/>
    <path d="M92.9,75.2c1.1,0,2-.9,2-2s-.9-2-2-2-2,.9-2,2,.9,2,2,2Z" fill="#fff" opacity=".7"/>
    <path d="M31,147.4c-2.1,0-3.7,1.7-3.7,3.7s1.7,3.7,3.7,3.7,3.7-1.7,3.7-3.7-1.7-3.7-3.7-3.7Z" fill="#fff" opacity=".7"/>
    <path d="M46.3,160.3c-2.1,0-3.7,1.7-3.7,3.7s1.7,3.7,3.7,3.7,3.7-1.7,3.7-3.7-1.7-3.7-3.7-3.7Z" fill="#fff" opacity=".7"/>
    <path d="M27.2,60.9c2.1,0,3.7-1.7,3.7-3.7s-1.7-3.7-3.7-3.7-3.7,1.7-3.7,3.7,1.7,3.7,3.7,3.7Z" fill="#fff" opacity=".7"/>
    <path d="M51.3,139.2c.9,0,1.7-.8,1.7-1.7s-.8-1.7-1.7-1.7-1.7.8-1.7,1.7.8,1.7,1.7,1.7Z" fill="#fff" opacity=".7"/>
    <path d="M90.2,149.1c.9,0,1.7-.8,1.7-1.7s-.8-1.7-1.7-1.7-1.7.8-1.7,1.7.8,1.7,1.7,1.7Z" fill="#fff" opacity=".7"/>
    <path d="M21.1,96.5c.9,0,1.7-.8,1.7-1.7s-.8-1.7-1.7-1.7-1.7.8-1.7,1.7.8,1.7,1.7,1.7Z" fill="#fff" opacity=".7"/>
    <circle cx="83.7" cy="105.7" r="1.2" fill="#fff" opacity=".7"/>
    <path d="M37.5,94.8c0,.7.5,1.2,1.2,1.2s1.2-.5,1.2-1.2-.5-1.2-1.2-1.2-1.2.5-1.2,1.2Z" fill="#fff" opacity=".7"/>
    <circle cx="25.6" cy="335.7" r="5.2" fill="#fff" opacity=".7"/>
    <circle cx="54.1" cy="332.6" r="5.2" fill="#fff" opacity=".7"/>
    <circle cx="69.7" cy="309.3" r="15.6" fill="#fff" opacity=".7"/>
    <path d="M73.8,372.4c2.2,0,4.1-1.8,4.1-4.1s-1.8-4.1-4.1-4.1-4.1,1.8-4.1,4.1,1.8,4.1,4.1,4.1Z" fill="#fff" opacity=".7"/>
    <path d="M103,399.1c2.2,0,4.1-1.8,4.1-4.1s-1.8-4.1-4.1-4.1-4.1,1.8-4.1,4.1,1.8,4.1,4.1,4.1Z" fill="#fff" opacity=".7"/>
    <circle cx="101.3" cy="353.8" r="9.2" fill="#fff" opacity=".7"/>
    <circle cx="116" cy="319.4" r="5.5" fill="#fff" opacity=".7"/>
    <circle cx="41.8" cy="350.6" r="5.5" fill="#fff" opacity=".7"/>
    <circle cx="106.8" cy="270.1" r="5.5" fill="#fff" opacity=".7"/>
    <circle cx="28.3" cy="292.5" r="8" fill="#fff" opacity=".7"/>
    <circle cx="60.2" cy="266.7" r="6.1" transform="translate(-59.7 21) rotate(-13.3)" fill="#fff" opacity=".7"/>
    <circle cx="41.8" cy="319.4" r="6.1" transform="translate(-213.6 123.1) rotate(-45)" fill="#fff" opacity=".7"/>
    <circle cx="102.6" cy="292.5" r="8" fill="#fff" opacity=".7"/>
    <circle cx="71.4" cy="229" r="8" fill="#fff" opacity=".7"/>
    <circle cx="98.6" cy="240" r="6.4" transform="translate(-160.9 239.2) rotate(-67.5)" fill="#fff" opacity=".7"/>
    <circle cx="93.8" cy="265.3" r="4.8" transform="translate(-41.3 18.5) rotate(-9.2)" fill="#fff" opacity=".7"/>
    <circle cx="138.9" cy="279.7" r="6.9" fill="#fff" opacity=".7"/>
    <circle cx="35.7" cy="266.7" r="6.9" transform="translate(-42.3 9.2) rotate(-9.2)" fill="#fff" opacity=".7"/>
    <circle cx="138.9" cy="357.5" r="6.9" transform="translate(-55.5 26.9) rotate(-9.2)" fill="#fff" opacity=".7"/>
    <circle cx="163.9" cy="329.3" r="15.3" transform="translate(-184.8 212.3) rotate(-45)" fill="#fff" opacity=".7"/>
    <circle cx="136.9" cy="404.7" r="11.7" fill="#fff" opacity=".7"/>
    <circle cx="66.4" cy="393.1" r="11.7" fill="#fff" opacity=".7"/>
    <path d="M88.7,403.5c1.9,0,3.4-1.5,3.4-3.4s-1.5-3.4-3.4-3.4-3.4,1.5-3.4,3.4,1.5,3.4,3.4,3.4Z" fill="#fff" opacity=".7"/>
    <path d="M148.6,375.7c-1.9,0-3.4,1.5-3.4,3.4s1.5,3.4,3.4,3.4,3.4-1.5,3.4-3.4-1.5-3.4-3.4-3.4Z" fill="#fff" opacity=".7"/>
    <path d="M151.9,303.8c0-1.9-1.5-3.4-3.4-3.4s-3.4,1.5-3.4,3.4,1.5,3.4,3.4,3.4,3.4-1.5,3.4-3.4Z" fill="#fff" opacity=".7"/>
    <path d="M142.3,319.4c0-1.9-1.5-3.4-3.4-3.4s-3.4,1.5-3.4,3.4,1.5,3.4,3.4,3.4,3.4-1.5,3.4-3.4Z" fill="#fff" opacity=".7"/>
    <path d="M125.3,370.3c0,1.1.9,2,2,2s2-.9,2-2-.9-2-2-2-2,.9-2,2Z" fill="#fff" opacity=".7"/>
    <path d="M103,377c0,1.1.9,2,2,2s2-.9,2-2-.9-2-2-2-2,.9-2,2Z" fill="#fff" opacity=".7"/>
    <path d="M134,266.7c0-1.1-.9-2-2-2s-2,.9-2,2,.9,2,2,2,2-.9,2-2Z" fill="#fff" opacity=".7"/>
    <path d="M73.8,344.6c0-2.1-1.7-3.7-3.7-3.7s-3.7,1.7-3.7,3.7,1.7,3.7,3.7,3.7,3.7-1.7,3.7-3.7Z" fill="#fff" opacity=".7"/>
    <path d="M89.1,357.5c0-2.1-1.7-3.7-3.7-3.7s-3.7,1.7-3.7,3.7,1.7,3.7,3.7,3.7,3.7-1.7,3.7-3.7Z" fill="#fff" opacity=".7"/>
    <path d="M70.1,250.7c0-2.1-1.7-3.7-3.7-3.7s-3.7,1.7-3.7,3.7,1.7,3.7,3.7,3.7,3.7-1.7,3.7-3.7Z" fill="#fff" opacity=".7"/>
    <path d="M90.4,329.3c-.9,0-1.7.8-1.7,1.7s.8,1.7,1.7,1.7,1.7-.8,1.7-1.7-.8-1.7-1.7-1.7Z" fill="#fff" opacity=".7"/>
    <path d="M127.6,340.9c0,.9.8,1.7,1.7,1.7s1.7-.8,1.7-1.7-.8-1.7-1.7-1.7-1.7.8-1.7,1.7Z" fill="#fff" opacity=".7"/>
    <path d="M58.5,288.3c0,.9.8,1.7,1.7,1.7s1.7-.8,1.7-1.7-.8-1.7-1.7-1.7-1.7.8-1.7,1.7Z" fill="#fff" opacity=".7"/>
    <circle cx="122.8" cy="299.2" r="1.2" fill="#fff" opacity=".7"/>
    <circle cx="49.9" cy="242.2" r="1.2" fill="#fff" opacity=".7"/>
    <circle cx="77.9" cy="288.3" r="1.2" fill="#fff" opacity=".7"/>
    <path d="M-4.5,500.1c0,2.2,1.8,4.1,4.1,4.1s4.1-1.8,4.1-4.1-1.8-4.1-4.1-4.1-4.1,1.8-4.1,4.1Z" fill="#fff" opacity=".7"/>
    <circle cx="-2.1" cy="458.8" r="9.2" transform="translate(-73.5 5.6) rotate(-9.2)" fill="#fff" opacity=".7"/>
    <circle cx="12.6" cy="424.5" r="5.5" fill="#fff" opacity=".7"/>
    <circle cx="3.4" cy="375.1" r="5.5" fill="#fff" opacity=".7"/>
    <circle cx="-.9" cy="397.5" r="8" transform="translate(-367.8 244.5) rotate(-67.5)" fill="#fff" opacity=".7"/>
    <circle cx="-4.9" cy="345" r="6.4" fill="#fff" opacity=".7"/>
    <circle cx="35.5" cy="384.7" r="6.9" fill="#fff" opacity=".7"/>
    <circle cx="35.5" cy="462.5" r="6.9" transform="translate(-405.5 318.3) rotate(-67.5)" fill="#fff" opacity=".7"/>
    <circle cx="60.5" cy="434.3" r="15.3" transform="translate(-68.8 15.3) rotate(-9.2)" fill="#fff" opacity=".7"/>
    <circle cx="33.5" cy="509.7" r="11.7" transform="translate(-116.2 21.3) rotate(-13.3)" fill="#fff" opacity=".7"/>
    <path d="M45.1,480.7c-1.9,0-3.4,1.5-3.4,3.4s1.5,3.4,3.4,3.4,3.4-1.5,3.4-3.4-1.5-3.4-3.4-3.4Z" fill="#fff" opacity=".7"/>
    <path d="M48.5,408.8c0-1.9-1.5-3.4-3.4-3.4s-3.4,1.5-3.4,3.4,1.5,3.4,3.4,3.4,3.4-1.5,3.4-3.4Z" fill="#fff" opacity=".7"/>
    <path d="M38.8,424.5c0-1.9-1.5-3.4-3.4-3.4s-3.4,1.5-3.4,3.4,1.5,3.4,3.4,3.4,3.4-1.5,3.4-3.4Z" fill="#fff" opacity=".7"/>
    <path d="M21.8,475.4c0,1.1.9,2,2,2s2-.9,2-2-.9-2-2-2-2,.9-2,2Z" fill="#fff" opacity=".7"/>
    <path d="M3.6,482c0-1.1-.9-2-2-2s-2,.9-2,2,.9,2,2,2,2-.9,2-2Z" fill="#fff" opacity=".7"/>
    <path d="M30.6,371.7c0-1.1-.9-2-2-2s-2,.9-2,2,.9,2,2,2,2-.9,2-2Z" fill="#fff" opacity=".7"/>
    <path d="M27.6,445.9c0-.9-.8-1.7-1.7-1.7s-1.7.8-1.7,1.7.8,1.7,1.7,1.7,1.7-.8,1.7-1.7Z" fill="#fff" opacity=".7"/>
    <path d="M18.1,404.2c0,.7.5,1.2,1.2,1.2s1.2-.5,1.2-1.2-.5-1.2-1.2-1.2-1.2.5-1.2,1.2Z" fill="#fff" opacity=".7"/>
    <circle cx="5.4" cy="607.8" r="15.6" fill="#fff" opacity=".7"/>
    <circle cx="9.5" cy="666.8" r="4.1" fill="#fff" opacity=".7"/>
    <path d="M38.6,689.5c-2.2,0-4.1,1.8-4.1,4.1s1.8,4.1,4.1,4.1,4.1-1.8,4.1-4.1-1.8-4.1-4.1-4.1Z" fill="#fff" opacity=".7"/>
    <circle cx="37" cy="652.3" r="9.2" fill="#fff" opacity=".7"/>
    <circle cx="51.7" cy="618" r="5.5" transform="translate(-421.8 217.6) rotate(-45)" fill="#fff" opacity=".7"/>
    <circle cx="42.5" cy="568.6" r="5.5" transform="translate(-90.5 14.2) rotate(-9.2)" fill="#fff" opacity=".7"/>
    <circle cx="-4.1" cy="565.2" r="6.1" transform="translate(-524.7 345.1) rotate(-67.5)" fill="#fff" opacity=".7"/>
    <circle cx="38.2" cy="591" r="8" fill="#fff" opacity=".7"/>
    <circle cx="7.1" cy="527.5" r="8" transform="translate(-84.4 7.9) rotate(-9.2)" fill="#fff" opacity=".7"/>
    <circle cx="34.2" cy="538.5" r="6.4" fill="#fff" opacity=".7"/>
    <circle cx="29.5" cy="563.8" r="4.8" transform="translate(-128.7 21.9) rotate(-13.3)" fill="#fff" opacity=".7"/>
    <circle cx="74.6" cy="578.2" r="6.9" fill="#fff" opacity=".7"/>
    <circle cx="74.6" cy="656" r="6.9" fill="#fff" opacity=".7"/>
    <circle cx="99.6" cy="627.8" r="15.3" transform="translate(-518.5 479.5) rotate(-67.5)" fill="#fff" opacity=".7"/>
    <circle cx="72.6" cy="703.2" r="11.7" fill="#fff" opacity=".7"/>
    <circle cx="38.2" cy="725.8" r="11.7" fill="#fff" opacity=".7"/>
    <circle cx="2" cy="691.6" r="11.7" fill="#fff" opacity=".7"/>
    <path d="M27.8,698.6c0-1.9-1.5-3.4-3.4-3.4s-3.4,1.5-3.4,3.4,1.5,3.4,3.4,3.4,3.4-1.5,3.4-3.4Z" fill="#fff" opacity=".7"/>
    <path d="M84.2,674.2c-1.9,0-3.4,1.5-3.4,3.4s1.5,3.4,3.4,3.4,3.4-1.5,3.4-3.4-1.5-3.4-3.4-3.4Z" fill="#fff" opacity=".7"/>
    <path d="M84.2,605.7c1.9,0,3.4-1.5,3.4-3.4s-1.5-3.4-3.4-3.4-3.4,1.5-3.4,3.4,1.5,3.4,3.4,3.4Z" fill="#fff" opacity=".7"/>
    <path d="M71.2,618c0,1.9,1.5,3.4,3.4,3.4s3.4-1.5,3.4-3.4-1.5-3.4-3.4-3.4-3.4,1.5-3.4,3.4Z" fill="#fff" opacity=".7"/>
    <path d="M60.9,668.8c0,1.1.9,2,2,2s2-.9,2-2-.9-2-2-2-2,.9-2,2Z" fill="#fff" opacity=".7"/>
    <circle cx="40.7" cy="675.5" r="2" fill="#fff" opacity=".7"/>
    <path d="M69.7,565.2c0-1.1-.9-2-2-2s-2,.9-2,2,.9,2,2,2,2-.9,2-2Z" fill="#fff" opacity=".7"/>
    <path d="M5.7,639.4c-2.1,0-3.7,1.7-3.7,3.7s1.7,3.7,3.7,3.7,3.7-1.7,3.7-3.7-1.7-3.7-3.7-3.7Z" fill="#fff" opacity=".7"/>
    <path d="M24.8,656c0-2.1-1.7-3.7-3.7-3.7s-3.7,1.7-3.7,3.7,1.7,3.7,3.7,3.7,3.7-1.7,3.7-3.7Z" fill="#fff" opacity=".7"/>
    <path d="M5.7,549.2c0-2.1-1.7-3.7-3.7-3.7s-3.7,1.7-3.7,3.7,1.7,3.7,3.7,3.7,3.7-1.7,3.7-3.7Z" fill="#fff" opacity=".7"/>
    <circle cx="26.1" cy="629.5" r="1.7" fill="#fff" opacity=".7"/>
    <path d="M66.7,639.4c0-.9-.8-1.7-1.7-1.7s-1.7.8-1.7,1.7.8,1.7,1.7,1.7,1.7-.8,1.7-1.7Z" fill="#fff" opacity=".7"/>
    <circle cx="58.5" cy="597.7" r="1.2" fill="#fff" opacity=".7"/>
    <path d="M12.3,586.8c0,.7.5,1.2,1.2,1.2s1.2-.5,1.2-1.2-.5-1.2-1.2-1.2-1.2.5-1.2,1.2Z" fill="#fff" opacity=".7"/>
    <circle cx="44.3" cy="805.9" r="15.6" fill="#fff" opacity=".7"/>
    <circle cx="81.5" cy="766.6" r="5.5" fill="#fff" opacity=".7"/>
    <circle cx="2.9" cy="789" r="8" fill="#fff" opacity=".7"/>
    <circle cx="34.8" cy="763.2" r="6.1" transform="translate(-529.5 248.2) rotate(-45)" fill="#fff" opacity=".7"/>
    <circle cx="5.8" cy="721.6" r="6.1" fill="#fff" opacity=".7"/>
    <circle cx="77.2" cy="789" r="8" fill="#fff" opacity=".7"/>
    <circle cx="73.2" cy="736.5" r="6.4" fill="#fff" opacity=".7"/>
    <circle cx="68.4" cy="761.9" r="4.8" transform="translate(-518.7 271.5) rotate(-45)" fill="#fff" opacity=".7"/>
    <circle cx="113.5" cy="776.3" r="6.9" transform="translate(-175.3 46.8) rotate(-13.3)" fill="#fff" opacity=".7"/>
    <path d="M108.6,763.2c0-1.1-.9-2-2-2s-2,.9-2,2,.9,2,2,2,2-.9,2-2Z" fill="#fff" opacity=".7"/>
    <path d="M44.7,747.2c0-2.1-1.7-3.7-3.7-3.7s-3.7,1.7-3.7,3.7,1.7,3.7,3.7,3.7,3.7-1.7,3.7-3.7Z" fill="#fff" opacity=".7"/>
    <path d="M13.7,742.2c-2.1,0-3.7,1.7-3.7,3.7s1.7,3.7,3.7,3.7,3.7-1.7,3.7-3.7-1.7-3.7-3.7-3.7Z" fill="#fff" opacity=".7"/>
    <path d="M33.2,784.9c0,.9.8,1.7,1.7,1.7s1.7-.8,1.7-1.7-.8-1.7-1.7-1.7-1.7.8-1.7,1.7Z" fill="#fff" opacity=".7"/>
    <circle cx="52.5" cy="784.9" r="1.2" fill="#fff" opacity=".7"/>
    <circle cx="103.9" cy="729.2" r="5.2" fill="#fff" opacity=".7"/>
    <circle cx="132.4" cy="726.1" r="5.2" fill="#fff" opacity=".7"/>
    <circle cx="148" cy="702.8" r="15.6" fill="#fff" opacity=".7"/>
    <circle cx="152.1" cy="761.8" r="4.1" fill="#fff" opacity=".7"/>
    <path d="M181.3,784.5c-2.2,0-4.1,1.8-4.1,4.1s1.8,4.1,4.1,4.1,4.1-1.8,4.1-4.1-1.8-4.1-4.1-4.1Z" fill="#fff" opacity=".7"/>
    <circle cx="179.6" cy="747.3" r="9.2" fill="#fff" opacity=".7"/>
    <circle cx="194.3" cy="712.9" r="5.5" fill="#fff" opacity=".7"/>
    <circle cx="120.1" cy="744.1" r="5.5" transform="translate(-613.3 570.3) rotate(-67.5)" fill="#fff" opacity=".7"/>
    <circle cx="185.1" cy="663.5" r="5.5" fill="#fff" opacity=".7"/>
    <circle cx="106.6" cy="685.9" r="8" fill="#fff" opacity=".7"/>
    <circle cx="138.5" cy="660.2" r="6.1" transform="translate(-426.2 291.3) rotate(-45)" fill="#fff" opacity=".7"/>
    <circle cx="120.1" cy="712.9" r="6.1" transform="translate(-160.6 46.7) rotate(-13.3)" fill="#fff" opacity=".7"/>
    <circle cx="180.8" cy="685.9" r="8" fill="#fff" opacity=".7"/>
    <circle cx="176.9" cy="633.5" r="6.4" transform="translate(-99.2 36.5) rotate(-9.2)" fill="#fff" opacity=".7"/>
    <circle cx="132" cy="617.2" r="6.4" fill="#fff" opacity=".7"/>
    <circle cx="339.2" cy="405" r="6.4" fill="#fff" opacity=".7"/>
    <circle cx="172.1" cy="658.8" r="4.8" transform="translate(-103.3 36.1) rotate(-9.2)" fill="#fff" opacity=".7"/>
    <circle cx="217.2" cy="673.2" r="6.9" fill="#fff" opacity=".7"/>
    <circle cx="217.2" cy="751" r="6.9" fill="#fff" opacity=".7"/>
    <circle cx="242.2" cy="722.7" r="15.3" transform="translate(-159.6 75) rotate(-13.3)" fill="#fff" opacity=".7"/>
    <circle cx="215.2" cy="798.2" r="11.7" fill="#fff" opacity=".7"/>
    <circle cx="144.7" cy="786.5" r="11.7" fill="#fff" opacity=".7"/>
    <path d="M167,790.2c-1.9,0-3.4,1.5-3.4,3.4s1.5,3.4,3.4,3.4,3.4-1.5,3.4-3.4-1.5-3.4-3.4-3.4Z" fill="#fff" opacity=".7"/>
    <path d="M226.9,769.1c-1.9,0-3.4,1.5-3.4,3.4s1.5,3.4,3.4,3.4,3.4-1.5,3.4-3.4-1.5-3.4-3.4-3.4Z" fill="#fff" opacity=".7"/>
    <path d="M242.2,748.8c-1.9,0-3.4,1.5-3.4,3.4s1.5,3.4,3.4,3.4,3.4-1.5,3.4-3.4-1.5-3.4-3.4-3.4Z" fill="#fff" opacity=".7"/>
    <path d="M226.9,700.7c1.9,0,3.4-1.5,3.4-3.4s-1.5-3.4-3.4-3.4-3.4,1.5-3.4,3.4,1.5,3.4,3.4,3.4Z" fill="#fff" opacity=".7"/>
    <path d="M213.8,712.9c0,1.9,1.5,3.4,3.4,3.4s3.4-1.5,3.4-3.4-1.5-3.4-3.4-3.4-3.4,1.5-3.4,3.4Z" fill="#fff" opacity=".7"/>
    <path d="M205.6,765.8c1.1,0,2-.9,2-2s-.9-2-2-2-2,.9-2,2,.9,2,2,2Z" fill="#fff" opacity=".7"/>
    <path d="M183.3,768.4c-1.1,0-2,.9-2,2s.9,2,2,2,2-.9,2-2-.9-2-2-2Z" fill="#fff" opacity=".7"/>
    <path d="M212.3,660.2c0-1.1-.9-2-2-2s-2,.9-2,2,.9,2,2,2,2-.9,2-2Z" fill="#fff" opacity=".7"/>
    <path d="M148.4,734.4c-2.1,0-3.7,1.7-3.7,3.7s1.7,3.7,3.7,3.7,3.7-1.7,3.7-3.7-1.7-3.7-3.7-3.7Z" fill="#fff" opacity=".7"/>
    <path d="M167.4,751c0-2.1-1.7-3.7-3.7-3.7s-3.7,1.7-3.7,3.7,1.7,3.7,3.7,3.7,3.7-1.7,3.7-3.7Z" fill="#fff" opacity=".7"/>
    <path d="M148.4,644.2c0-2.1-1.7-3.7-3.7-3.7s-3.7,1.7-3.7,3.7,1.7,3.7,3.7,3.7,3.7-1.7,3.7-3.7Z" fill="#fff" opacity=".7"/>
    <path d="M167,724.4c0,.9.8,1.7,1.7,1.7s1.7-.8,1.7-1.7-.8-1.7-1.7-1.7-1.7.8-1.7,1.7Z" fill="#fff" opacity=".7"/>
    <path d="M209.3,734.4c0-.9-.8-1.7-1.7-1.7s-1.7.8-1.7,1.7.8,1.7,1.7,1.7,1.7-.8,1.7-1.7Z" fill="#fff" opacity=".7"/>
    <path d="M136.8,681.8c0,.9.8,1.7,1.7,1.7s1.7-.8,1.7-1.7-.8-1.7-1.7-1.7-1.7.8-1.7,1.7Z" fill="#fff" opacity=".7"/>
    <circle cx="201.1" cy="692.7" r="1.2" fill="#fff" opacity=".7"/>
    <circle cx="156.2" cy="681.8" r="1.2" fill="#fff" opacity=".7"/>
    <circle cx="294.8" cy="788.9" r="15.6" fill="#fff" opacity=".7"/>
    <circle cx="331.9" cy="749.6" r="5.5" transform="translate(-487.7 769.4) rotate(-67.5)" fill="#fff" opacity=".7"/>
    <circle cx="253.4" cy="772" r="8" fill="#fff" opacity=".7"/>
    <circle cx="275.8" cy="711.5" r="8" fill="#fff" opacity=".7"/>
    <circle cx="265.2" cy="744.8" r="8" fill="#fff" opacity=".7"/>
    <circle cx="285.3" cy="746.2" r="6.1" transform="translate(-115.9 55.3) rotate(-9.2)" fill="#fff" opacity=".7"/>
    <circle cx="327.6" cy="772" r="8" fill="#fff" opacity=".7"/>
    <circle cx="323.6" cy="719.6" r="6.4" fill="#fff" opacity=".7"/>
    <circle cx="318.9" cy="744.9" r="4.8" transform="translate(-162.6 93.2) rotate(-13.3)" fill="#fff" opacity=".7"/>
    <circle cx="364" cy="759.3" r="6.9" fill="#fff" opacity=".7"/>
    <path d="M373.6,780c-1.9,0-3.4,1.5-3.4,3.4s1.5,3.4,3.4,3.4,3.4-1.5,3.4-3.4-1.5-3.4-3.4-3.4Z" fill="#fff" opacity=".7"/>
    <path d="M359.1,746.2c0-1.1-.9-2-2-2s-2,.9-2,2,.9,2,2,2,2-.9,2-2Z" fill="#fff" opacity=".7"/>
    <path d="M297.6,705.8c0,1.1.9,2,2,2s2-.9,2-2-.9-2-2-2-2,.9-2,2Z" fill="#fff" opacity=".7"/>
    <path d="M295.2,730.3c0-2.1-1.7-3.7-3.7-3.7s-3.7,1.7-3.7,3.7,1.7,3.7,3.7,3.7,3.7-1.7,3.7-3.7Z" fill="#fff" opacity=".7"/>
    <circle cx="285.3" cy="767.9" r="1.7" fill="#fff" opacity=".7"/>
    <path d="M347.9,777.5c-.7,0-1.2.5-1.2,1.2s.5,1.2,1.2,1.2,1.2-.5,1.2-1.2-.5-1.2-1.2-1.2Z" fill="#fff" opacity=".7"/>
    <circle cx="302.9" cy="767.9" r="1.2" fill="#fff" opacity=".7"/>
    <circle cx="354.3" cy="712.2" r="5.2" transform="translate(-439.3 767) rotate(-67.5)" fill="#fff" opacity=".7"/>
    <circle cx="382.8" cy="709.1" r="5.2" fill="#fff" opacity=".7"/>
    <circle cx="398.5" cy="685.8" r="15.6" fill="#fff" opacity=".7"/>
    <path d="M398.5,744.8c0,2.2,1.8,4.1,4.1,4.1s4.1-1.8,4.1-4.1-1.8-4.1-4.1-4.1-4.1,1.8-4.1,4.1Z" fill="#fff" opacity=".7"/>
    <path d="M435.8,771.6c0-2.2-1.8-4.1-4.1-4.1s-4.1,1.8-4.1,4.1,1.8,4.1,4.1,4.1,4.1-1.8,4.1-4.1Z" fill="#fff" opacity=".7"/>
    <circle cx="430.1" cy="730.3" r="9.2" fill="#fff" opacity=".7"/>
    <circle cx="444.8" cy="695.9" r="5.5" fill="#fff" opacity=".7"/>
    <circle cx="370.6" cy="727.1" r="5.5" fill="#fff" opacity=".7"/>
    <circle cx="435.6" cy="646.6" r="5.5" transform="translate(-97.9 78.1) rotate(-9.2)" fill="#fff" opacity=".7"/>
    <circle cx="357.1" cy="668.9" r="8" transform="translate(-102.5 65.8) rotate(-9.2)" fill="#fff" opacity=".7"/>
    <circle cx="389" cy="643.2" r="6.1" fill="#fff" opacity=".7"/>
    <circle cx="370.6" cy="695.9" r="6.1" transform="translate(-414.2 772) rotate(-67.5)" fill="#fff" opacity=".7"/>
    <circle cx="431.3" cy="668.9" r="8" fill="#fff" opacity=".7"/>
    <circle cx="427.3" cy="616.5" r="6.4" fill="#fff" opacity=".7"/>
    <circle cx="422.6" cy="641.8" r="4.8" fill="#fff" opacity=".7"/>
    <circle cx="467.7" cy="656.2" r="6.9" fill="#fff" opacity=".7"/>
    <circle cx="467.7" cy="734" r="6.9" transform="translate(-389.4 885.2) rotate(-67.5)" fill="#fff" opacity=".7"/>
    <circle cx="492.7" cy="705.8" r="15.3" transform="translate(-354.7 555.1) rotate(-45)" fill="#fff" opacity=".7"/>
    <circle cx="465.7" cy="781.2" r="11.7" fill="#fff" opacity=".7"/>
    <circle cx="395.1" cy="769.6" r="11.7" transform="translate(-118.2 73.2) rotate(-9.2)" fill="#fff" opacity=".7"/>
    <path d="M417.5,773.2c-1.9,0-3.4,1.5-3.4,3.4s1.5,3.4,3.4,3.4,3.4-1.5,3.4-3.4-1.5-3.4-3.4-3.4Z" fill="#fff" opacity=".7"/>
    <path d="M477.3,752.2c-1.9,0-3.4,1.5-3.4,3.4s1.5,3.4,3.4,3.4,3.4-1.5,3.4-3.4-1.5-3.4-3.4-3.4Z" fill="#fff" opacity=".7"/>
    <path d="M477.3,683.7c1.9,0,3.4-1.5,3.4-3.4s-1.5-3.4-3.4-3.4-3.4,1.5-3.4,3.4,1.5,3.4,3.4,3.4Z" fill="#fff" opacity=".7"/>
    <path d="M464.3,695.9c0,1.9,1.5,3.4,3.4,3.4s3.4-1.5,3.4-3.4-1.5-3.4-3.4-3.4-3.4,1.5-3.4,3.4Z" fill="#fff" opacity=".7"/>
    <path d="M456,748.9c1.1,0,2-.9,2-2s-.9-2-2-2-2,.9-2,2,.9,2,2,2Z" fill="#fff" opacity=".7"/>
    <path d="M431.7,753.5c0,1.1.9,2,2,2s2-.9,2-2-.9-2-2-2-2,.9-2,2Z" fill="#fff" opacity=".7"/>
    <path d="M462.8,643.2c0-1.1-.9-2-2-2s-2,.9-2,2,.9,2,2,2,2-.9,2-2Z" fill="#fff" opacity=".7"/>
    <path d="M595.8,538.2c0-1.1-.9-2-2-2s-2,.9-2,2,.9,2,2,2,2-.9,2-2Z" fill="#fff" opacity=".7"/>
    <circle cx="398.8" cy="721.1" r="3.7" fill="#fff" opacity=".7"/>
    <path d="M417.9,734c0-2.1-1.7-3.7-3.7-3.7s-3.7,1.7-3.7,3.7,1.7,3.7,3.7,3.7,3.7-1.7,3.7-3.7Z" fill="#fff" opacity=".7"/>
    <path d="M398.8,627.2c0-2.1-1.7-3.7-3.7-3.7s-3.7,1.7-3.7,3.7,1.7,3.7,3.7,3.7,3.7-1.7,3.7-3.7Z" fill="#fff" opacity=".7"/>
    <path d="M417.5,707.4c0,.9.8,1.7,1.7,1.7s1.7-.8,1.7-1.7-.8-1.7-1.7-1.7-1.7.8-1.7,1.7Z" fill="#fff" opacity=".7"/>
    <path d="M459.8,717.4c0-.9-.8-1.7-1.7-1.7s-1.7.8-1.7,1.7.8,1.7,1.7,1.7,1.7-.8,1.7-1.7Z" fill="#fff" opacity=".7"/>
    <path d="M387.3,664.8c0,.9.8,1.7,1.7,1.7s1.7-.8,1.7-1.7-.8-1.7-1.7-1.7-1.7.8-1.7,1.7Z" fill="#fff" opacity=".7"/>
    <circle cx="370.9" cy="647.9" r="1.7" fill="#fff" opacity=".7"/>
    <circle cx="451.6" cy="675.7" r="1.2" fill="#fff" opacity=".7"/>
    <path d="M405.4,664.8c0,.7.5,1.2,1.2,1.2s1.2-.5,1.2-1.2-.5-1.2-1.2-1.2-1.2.5-1.2,1.2Z" fill="#fff" opacity=".7"/>
    <circle cx="400.9" cy="600.7" r="1.2" fill="#fff" opacity=".7"/>
    <circle cx="439.3" cy="799" r="8" fill="#fff" opacity=".7"/>
    <circle cx="611.4" cy="730.9" r="6.9" transform="translate(-151.6 160) rotate(-13.3)" fill="#fff" opacity=".7"/>
    <circle cx="609.5" cy="778.2" r="11.7" fill="#fff" opacity=".7"/>
    <circle cx="-5.8" cy="759.3" r="11.7" fill="#fff" opacity=".7"/>
    <path d="M614.8,692.9c0-1.9-1.5-3.4-3.4-3.4s-3.4,1.5-3.4,3.4,1.5,3.4,3.4,3.4,3.4-1.5,3.4-3.4Z" fill="#fff" opacity=".7"/>
    <path d="M518.4,723.2c2.2,0,4.1-1.8,4.1-4.1s-1.8-4.1-4.1-4.1-4.1,1.8-4.1,4.1,1.8,4.1,4.1,4.1Z" fill="#fff" opacity=".7"/>
    <path d="M551.7,745.9c0-2.2-1.8-4.1-4.1-4.1s-4.1,1.8-4.1,4.1,1.8,4.1,4.1,4.1,4.1-1.8,4.1-4.1Z" fill="#fff" opacity=".7"/>
    <circle cx="546" cy="704.6" r="9.2" fill="#fff" opacity=".7"/>
    <circle cx="583.5" cy="708.4" r="6.9" transform="translate(-294.2 976.4) rotate(-67.5)" fill="#fff" opacity=".7"/>
    <circle cx="581.5" cy="755.6" r="11.7" fill="#fff" opacity=".7"/>
    <circle cx="511" cy="743.9" r="11.7" fill="#fff" opacity=".7"/>
    <path d="M533.4,747.6c-1.9,0-3.4,1.5-3.4,3.4s1.5,3.4,3.4,3.4,3.4-1.5,3.4-3.4-1.5-3.4-3.4-3.4Z" fill="#fff" opacity=".7"/>
    <path d="M596.6,729.9c0-1.9-1.5-3.4-3.4-3.4s-3.4,1.5-3.4,3.4,1.5,3.4,3.4,3.4,3.4-1.5,3.4-3.4Z" fill="#fff" opacity=".7"/>
    <circle cx="571.9" cy="721.2" r="2" fill="#fff" opacity=".7"/>
    <path d="M551.7,727.8c0-1.1-.9-2-2-2s-2,.9-2,2,.9,2,2,2,2-.9,2-2Z" fill="#fff" opacity=".7"/>
    <path d="M530,704.6c-2.1,0-3.7,1.7-3.7,3.7s1.7,3.7,3.7,3.7,3.7-1.7,3.7-3.7-1.7-3.7-3.7-3.7Z" fill="#fff" opacity=".7"/>
    <circle cx="498.3" cy="784.5" r="4.1" fill="#fff" opacity=".7"/>
    <circle cx="525.9" cy="770" r="9.2" fill="#fff" opacity=".7"/>
    <circle cx="563.4" cy="773.7" r="6.9" fill="#fff" opacity=".7"/>
    <path d="M573.1,791.9c-1.9,0-3.4,1.5-3.4,3.4s1.5,3.4,3.4,3.4,3.4-1.5,3.4-3.4-1.5-3.4-3.4-3.4Z" fill="#fff" opacity=".7"/>
    <path d="M551.8,784.5c-1.1,0-2,.9-2,2s.9,2,2,2,2-.9,2-2-.9-2-2-2Z" fill="#fff" opacity=".7"/>
    <circle cx="529.5" cy="793.2" r="2" fill="#fff" opacity=".7"/>
    <path d="M509.9,770c-2.1,0-3.7,1.7-3.7,3.7s1.7,3.7,3.7,3.7,3.7-1.7,3.7-3.7-1.7-3.7-3.7-3.7Z" fill="#fff" opacity=".7"/>
    <path d="M573,485.2c2.2,0,4.1-1.8,4.1-4.1s-1.8-4.1-4.1-4.1-4.1,1.8-4.1,4.1,1.8,4.1,4.1,4.1Z" fill="#fff" opacity=".7"/>
    <circle cx="602.2" cy="507.9" r="4.1" fill="#fff" opacity=".7"/>
    <circle cx="600.6" cy="466.7" r="9.2" fill="#fff" opacity=".7"/>
    <circle cx="565.6" cy="505.9" r="11.7" transform="translate(-101.1 143.5) rotate(-13.3)" fill="#fff" opacity=".7"/>
    <path d="M584.6,513c0,1.9,1.5,3.4,3.4,3.4s3.4-1.5,3.4-3.4-1.5-3.4-3.4-3.4-3.4,1.5-3.4,3.4Z" fill="#fff" opacity=".7"/>
    <circle cx="604.2" cy="489.9" r="2" fill="#fff" opacity=".7"/>
    <path d="M584.6,466.7c-2.1,0-3.7,1.7-3.7,3.7s1.7,3.7,3.7,3.7,3.7-1.7,3.7-3.7-1.7-3.7-3.7-3.7Z" fill="#fff" opacity=".7"/>
    <path d="M572.7,450.6c0-2.1-1.7-3.7-3.7-3.7s-3.7,1.7-3.7,3.7,1.7,3.7,3.7,3.7,3.7-1.7,3.7-3.7Z" fill="#fff" opacity=".7"/>
    <circle cx="615.5" cy="633" r="4.1" fill="#fff" opacity=".7"/>
    <circle cx="615.5" cy="577.1" r="4.1" fill="#fff" opacity=".7"/>
    <circle cx="608.1" cy="657.8" r="11.7" fill="#fff" opacity=".7"/>
    <path d="M595,410.4c0,2.2,1.8,4.1,4.1,4.1s4.1-1.8,4.1-4.1-1.8-4.1-4.1-4.1-4.1,1.8-4.1,4.1Z" fill="#fff" opacity=".7"/>
    <circle cx="591.6" cy="435.2" r="11.7" fill="#fff" opacity=".7"/>
    <path d="M614,438.9c-1.9,0-3.4,1.5-3.4,3.4s1.5,3.4,3.4,3.4,3.4-1.5,3.4-3.4-1.5-3.4-3.4-3.4Z" fill="#fff" opacity=".7"/>
    <path d="M610.6,395.9c-2.1,0-3.7,1.7-3.7,3.7s1.7,3.7,3.7,3.7,3.7-1.7,3.7-3.7-1.7-3.7-3.7-3.7Z" fill="#fff" opacity=".7"/>
  </g>
</svg>