<?xml version="1.0" encoding="UTF-8"?>
<svg id="Layer_1" xmlns="http://www.w3.org/2000/svg" version="1.1" viewBox="0 0 368.6 274.6">
  <!-- Generator: Adobe Illustrator 29.0.1, SVG Export Plug-In . SVG Version: 2.1.0 Build 192)  -->
  <path d="M0,135l17.1-12.9C57.3,86.9,98.8,53.6,140.3,20.1l7.1-5.8,4.6-3.8c2.3-1.9,4.5-3.7,6.8-5.6l10.4-3.1c21.1-3.5,43.9-1.8,64.4,3,46.7,10.7,99,36.3,129.2,74C238.7,96.6,122.8,114.4,0,136.7v-1.7Z" fill="#fee459" fill-rule="evenodd"/>
  <path d="M126.2,112.9v-.3s236.7-33.8,236.7-33.8v9.4c.4,19.7,1.9,39.2,3.6,58.8,1.1,11.8,2.3,24.2,2,36.1-.3,10-1.8,20-6.9,28.7-11.7,20-39.2,25.9-60.3,29.2-18.3,2.9-36.6,6-55,8.9-25.6,4.1-51.2,8-76.8,11.6-.6-4.3-2.5-8.2-5.6-11.3-3.7-3.7-8.7-5.8-14-5.8s-10.3,2.1-14,5.8c-3.7,3.7-5.8,8.7-5.8,14s0,1.7.2,2.5c-8.3,1-16.6,2-24.9,2.9-15.9,1.8-31.9,3.3-47.8,4.3-11.5.7-23.9,1.2-35.5.2-7.8-.7-19.2-2.4-21.7-11.3l-.3-1.1v-125.9l125.8-22.9h0ZM200.6,169.1c0-5.3-2.1-10.3-5.8-14-3.7-3.7-8.7-5.8-14-5.8s-10.3,2.1-14,5.8c-3.7,3.7-5.8,8.7-5.8,14s2.1,10.3,5.8,14c3.7,3.7,8.7,5.8,14,5.8s10.3-2.1,14-5.8c3.7-3.7,5.8-8.7,5.8-14h0ZM304.4,185.1c0-7.7-3-15-8.5-20.5-5.4-5.4-12.8-8.5-20.5-8.5s-15,3-20.5,8.5c-5.4,5.4-8.5,12.8-8.5,20.5s3,15,8.5,20.5c5.4,5.4,12.8,8.5,20.5,8.5s15-3,20.5-8.5c5.4-5.4,8.5-12.8,8.5-20.5h0ZM77.1,192.7c-6.1,0-11.9,2.4-16.2,6.7-4.3,4.3-6.7,10.1-6.7,16.2s2.4,11.9,6.7,16.2c4.3,4.3,10.1,6.7,16.2,6.7s11.9-2.4,16.2-6.7c4.3-4.3,6.7-10.1,6.7-16.2s-2.4-11.9-6.7-16.2c-4.3-4.3-10.1-6.7-16.2-6.7Z" fill="#e5af17" fill-rule="evenodd"/>
  <path d="M158,23c8.1-4.7,16.5-5.5,18.6-1.7,2.2,3.7-2.7,10.6-10.8,15.3-8.1,4.7-16.5,5.5-18.6,1.7-2.2-3.7,2.7-10.6,10.8-15.3Z" fill="#fdc103" fill-rule="evenodd"/>
  <path d="M144.9,88.1c0-7.6-10.2-13.7-22.9-13.7s-22.9,6.1-22.9,13.7,10.2,13.7,22.9,13.7,22.9-6.1,22.9-13.7h0ZM122,82.6c3.8,0,8,.7,11.4,2.5.8.4,3,1.9,3.2,2.9-.2,1-2.4,2.5-3.2,2.9-3.4,1.8-7.6,2.5-11.4,2.5s-8-.7-11.4-2.5c-.8-.4-3-1.9-3.2-2.9.2-1,2.4-2.5,3.2-2.9,3.4-1.8,7.6-2.5,11.4-2.5Z" fill="#fdc103" fill-rule="evenodd"/>
  <path d="M266,46.6c0-5.1-7-9.3-15.5-9.3s-15.5,4.2-15.5,9.3,7,9.3,15.5,9.3,15.5-4.2,15.5-9.3h0ZM250.4,45.6c1.3,0,4,.3,5.8,1.1-1.9.7-4.6,1.1-5.8,1.1s-4-.3-5.8-1.1c1.9-.7,4.6-1.1,5.8-1.1Z" fill="#cf6c03" fill-rule="evenodd"/>
  <path d="M122,80.9c-3.8,0-8,1-11.4,3.4-.8.6-3,2.5-3.2,3.9.2,1.3,2.4,3.3,3.2,3.8,3.4,2.4,7.6,3.4,11.4,3.4s8-1,11.4-3.4c.8-.6,3-2.5,3.2-3.9-.2-1.3-2.4-3.3-3.2-3.8-3.4-2.4-7.6-3.4-11.4-3.4Z" fill="#dc7901" fill-rule="evenodd"/>
  <path d="M250.4,45.4c-1.3,0-4,.4-5.8,1.3,1.9.9,4.6,1.3,5.8,1.3s4-.4,5.8-1.3c-1.9-.9-4.6-1.3-5.8-1.3Z" fill="#ae6619" fill-rule="evenodd"/>
  <path d="M272.4,46.6c0-7.3-9.8-13.2-22-13.2s-22,5.9-22,13.2,9.8,13.2,22,13.2,22-5.9,22-13.2h0ZM250.4,45.1c1.8,0,5.6.4,8.3,1.5-2.7,1.1-6.5,1.5-8.3,1.5s-5.6-.4-8.3-1.5c2.7-1.1,6.5-1.5,8.3-1.5Z" fill="#e07f03" fill-rule="evenodd"/>
  <path d="M180.8,149.3c-5.3,0-10.3,2.1-14,5.8-3.7,3.7-5.8,8.7-5.8,14s2.1,10.3,5.8,14c3.7,3.7,8.7,5.8,14,5.8s10.3-2.1,14-5.8c3.7-3.7,5.8-8.7,5.8-14s-2.1-10.3-5.8-14c-3.7-3.7-8.7-5.8-14-5.8Z" fill="#dc8d01" fill-rule="evenodd"/>
  <path d="M275.5,156.2c-7.7,0-15,3-20.5,8.5-5.4,5.4-8.5,12.8-8.5,20.5s3,15,8.5,20.5c5.4,5.4,12.8,8.5,20.5,8.5s15-3,20.5-8.5c5.4-5.4,8.5-12.8,8.5-20.5s-3-15-8.5-20.5c-5.4-5.4-12.8-8.5-20.5-8.5Z" fill="#dc8d01" fill-rule="evenodd"/>
  <path d="M77.1,192.7c-6.1,0-11.9,2.4-16.2,6.7-4.3,4.3-6.7,10.1-6.7,16.2s2.4,11.9,6.7,16.2c4.3,4.3,10.1,6.7,16.2,6.7s11.9-2.4,16.2-6.7c4.3-4.3,6.7-10.1,6.7-16.2s-2.4-11.9-6.7-16.2c-4.3-4.3-10.1-6.7-16.2-6.7Z" fill="#dc8d01" fill-rule="evenodd"/>
  <path d="M80.6,192.5c-5.2,0-10.2,2-13.9,5.7-3.7,3.7-5.7,8.6-5.7,13.9s2,10.2,5.7,13.9c3.7,3.7,8.6,5.7,13.9,5.7s10.2-2,13.9-5.7c3.7-3.7,5.7-8.6,5.7-13.9s-2-10.2-5.7-13.9c-3.7-3.7-8.6-5.7-13.9-5.7Z" fill="#dc7901" fill-rule="evenodd"/>
  <path d="M270.5,159.8c-6.2,0-12.1,2.4-16.5,6.8-4.4,4.4-6.8,10.3-6.8,16.5s2.4,12.1,6.8,16.5c4.4,4.4,10.3,6.8,16.5,6.8s12.1-2.4,16.5-6.8c4.4-4.4,6.8-10.3,6.8-16.5s-2.4-12.1-6.8-16.5c-4.4-4.4-10.3-6.8-16.5-6.8Z" fill="#dc7901" fill-rule="evenodd"/>
</svg>