<?xml version="1.0" encoding="UTF-8"?>
<svg id="Layer_1" xmlns="http://www.w3.org/2000/svg" version="1.1" viewBox="0 0 612 490.7">
  <!-- Generator: Adobe Illustrator 29.0.1, SVG Export Plug-In . SVG Version: 2.1.0 Build 192)  -->
  <path d="M180.3,424.5c-2.3-.2,2.2.3,0,0h0Z" fill="#010101"/>
  <path d="M556.7,253.7c-2.4-2.5-3.3-6.1-2.4-9.4,6-23,22.8-116.1-71.2-192.5-2.5-2-4.9-4-7.3-6-12.1-10.1-62.4-49.6-106.9-45.5-1.9.2-3.8.3-5.6.4-9.1.2-43.2,2.5-94.6,26.5-12.8,6-26.6,9.8-40.6,11.4-12.2,1.4-25.4,2.5-30.5,1.5-.8-.2-1.3-1-1.2-1.8,1-6.8,3.8-37-27.1-36.1,0,0-13.7-2.4-24.5,15.2-.5.8-1.6.6-2-.2-1.7-4.5-7.4-13.5-24.6-10.3,0,0-32.8,5.5-22.4,46.2.4,1.7-.4,3.4-1.9,4.2-12.8,6.9-69.2,37.8-86.9,54.8C2.8,116.1,0,121.4,0,127.1c-.2,10.5,7.3,27,50.1,37.4,0,0,9.4,2,18.6,6.4,5.9,2.8,12.3,4.1,18.8,4,6.4,0,14.6-.2,22.8-.2,18,0,35.9,3.3,52.7,9.7,21.3,8.1,50,19.7,55.9,25.7.2.2.2.5,0,.7-1,1.8-5.9,9-23.7,7.7-5.6-.4-11.2,2.2-13.9,7.1-2.9,5.1-2.4,11.4,13.6,14.2,0,0,46.3,7.7,60.5-16.5,1.1-1.8,3.3-2.6,5.2-1.6,11,5.9,46,23.4,77,23.3,6.7,0,13,3.1,17.5,8.1,6.5,7.4,16.3,17.2,24,19.8,3.3,1.1,6.2,3.5,7.2,6.9.8,2.7.4,5.5-3.7,6.9h-82.6c-4.8,0-9.5,1.4-13.3,4.5-3.7,3-6,7.2.4,11.5,3.7,2.4,8,3.6,12.4,3.6h97.8c2.6,0,5.2,0,7.8.1,8,.1,36.3-2,36.4-38.2,0-.9.9-1.5,1.7-1.1,8.8,4.2,49.4,22.2,85.3,12.5,1.5-.4,3.2.1,4.1,1.4,7.8,10.8,42.1,60.4,41.4,91.9,0,0,.7,71-124.4,87-18.6,2.4-37.4,2.2-55.9-.7-20.4-3.2-47.9-9.9-74.2-23.9,0,0-60.1-33.2-138.3-27.7,0,0-99.2,2.9-115,27.1-1,1.5.3,3.4,2.1,3.1,18.4-2.9,98.3-15.4,111.9-13.4,18.6,1.3,91.6,8.4,130.3,33.6,6.1,4,12.4,7.6,19.1,10.5,19.7,8.4,60.6,22.1,117.2,22.1,0,0,159.6-3.2,165.2-119.3,0,0,2.3-57.5-55.3-117.6ZM89.2,112.6c-8.1,0-14.8-6.6-14.8-14.8s6.6-14.8,14.8-14.8,14.8,6.6,14.8,14.8-6.6,14.8-14.8,14.8Z" fill="#010101"/>
</svg>