<?xml version="1.0" encoding="UTF-8"?>
<svg xmlns="http://www.w3.org/2000/svg" version="1.1" viewBox="0 0 671.8 68.9">
  <!-- Generator: Adobe Illustrator 29.1.0, SVG Export Plug-In . SVG Version: 2.1.0 Build 142)  -->
  <g isolation="isolate">
    <g id="Layer_1">
      <g>
        <path d="M295.2,45.5c30.4,1.5,63.7,3.6,94.2,4.8,15.5.6,31.6,1.6,47-.2,43.9-6.5,88.9-7.5,132.9-1.1,18,3.9,36.9,3.1,55.3,2.6,15.7-.6,31.4-1.5,47.1-2.6v.5c-23.3,3.9-46.9,6.7-70.6,7.4-10,.2-20.1,0-29.9-2-1.4-.3-4.3-.8-5.7-1-19.3-3-38.9-4.3-58.5-5.1-16.6-.7-33.4-1-50,.3-8.7.7-17.6,2.4-26.3,3.5-9.7,1-19.9,1.6-29.6,1.9-19.6.5-39.6-.7-59.1-2.5-15.7-1.5-31.4-3.3-46.9-5.9,0,0,0-.5,0-.5h0Z" fill="#e91d29"/>
        <path d="M241.7,37.6l3.7-2.8c8.7-7.6,17.7-14.8,26.7-22.1l1.5-1.2,1-.8c.5-.4,1-.8,1.5-1.2l2.3-.7c4.6-.7,9.5-.4,14,.6,10.1,2.3,21.4,7.9,28,16-26.9,3.8-52,7.7-78.6,12.5v-.4Z" fill="#fde35a" fill-rule="evenodd"/>
        <path d="M269.1,32.8h0c0,0,51.3-7.4,51.3-7.4v2c0,4.3.4,8.5.8,12.7.2,2.6.5,5.2.4,7.8,0,2.2-.4,4.3-1.5,6.2-2.5,4.3-8.5,5.6-13.1,6.3-4,.6-7.9,1.3-11.9,1.9-5.5.9-11.1,1.7-16.6,2.5-.1-.9-.5-1.8-1.2-2.4-.8-.8-1.9-1.3-3-1.3s-2.2.4-3,1.3c-.8.8-1.3,1.9-1.3,3s0,.4,0,.6c-1.8.2-3.6.4-5.4.6-3.4.4-6.9.7-10.4.9-2.5.1-5.2.3-7.7,0-1.7-.1-4.2-.5-4.7-2.4v-.2c0,0,0-27.3,0-27.3l27.3-5h0ZM285.2,45c0-1.1-.4-2.2-1.3-3-.8-.8-1.9-1.3-3-1.3s-2.2.4-3,1.3c-.8.8-1.3,1.9-1.3,3s.4,2.2,1.3,3c.8.8,1.9,1.3,3,1.3s2.2-.4,3-1.3c.8-.8,1.3-1.9,1.3-3h0ZM307.7,48.5c0-1.7-.7-3.3-1.8-4.4-1.2-1.2-2.8-1.8-4.4-1.8s-3.3.7-4.4,1.8c-1.2,1.2-1.8,2.8-1.8,4.4s.7,3.3,1.8,4.4c1.2,1.2,2.8,1.8,4.4,1.8s3.3-.7,4.4-1.8c1.2-1.2,1.8-2.8,1.8-4.4h0ZM258.5,50.1c-1.3,0-2.6.5-3.5,1.5-.9.9-1.5,2.2-1.5,3.5s.5,2.6,1.5,3.5c.9.9,2.2,1.5,3.5,1.5s2.6-.5,3.5-1.5c.9-.9,1.5-2.2,1.5-3.5s-.5-2.6-1.5-3.5c-.9-.9-2.2-1.5-3.5-1.5Z" fill="#e4b023" fill-rule="evenodd"/>
        <path d="M276,13.4c1.8-1,3.6-1.2,4-.4.5.8-.6,2.3-2.3,3.3-1.8,1-3.6,1.2-4,.4-.5-.8.6-2.3,2.3-3.3Z" fill="#fbc112" fill-rule="evenodd"/>
        <path d="M273.1,27.5c0-1.6-2.2-3-4.9-3s-4.9,1.3-4.9,3,2.2,3,4.9,3,4.9-1.3,4.9-3h0ZM268.2,26.3c.8,0,1.7.2,2.5.5.2,0,.7.4.7.6,0,.2-.5.5-.7.6-.7.4-1.6.5-2.5.5s-1.7-.2-2.5-.5c-.2,0-.7-.4-.7-.6,0-.2.5-.5.7-.6.7-.4,1.6-.5,2.5-.5Z" fill="#fbc112" fill-rule="evenodd"/>
        <path d="M299.4,18.5c0-1.1-1.5-2-3.4-2s-3.4.9-3.4,2,1.5,2,3.4,2,3.4-.9,3.4-2h0ZM296,18.2c.3,0,.9,0,1.3.2-.4.2-1,.2-1.3.2s-.9,0-1.3-.2c.4-.2,1-.2,1.3-.2Z" fill="#ce6e28" fill-rule="evenodd"/>
        <path d="M268.2,25.9c-.8,0-1.7.2-2.5.7-.2.1-.7.5-.7.8,0,.3.5.7.7.8.7.5,1.6.7,2.5.7s1.7-.2,2.5-.7c.2-.1.7-.5.7-.8,0-.3-.5-.7-.7-.8-.7-.5-1.6-.7-2.5-.7Z" fill="#da7a27" fill-rule="evenodd"/>
        <path d="M296,18.2c-.3,0-.9,0-1.3.3.4.2,1,.3,1.3.3s.9,0,1.3-.3c-.4-.2-1-.3-1.3-.3Z" fill="#ae6828" fill-rule="evenodd"/>
        <path d="M300.7,18.5c0-1.6-2.1-2.9-4.8-2.9s-4.8,1.3-4.8,2.9,2.1,2.9,4.8,2.9,4.8-1.3,4.8-2.9h0ZM296,18.2c.4,0,1.2,0,1.8.3-.6.2-1.4.3-1.8.3s-1.2,0-1.8-.3c.6-.2,1.4-.3,1.8-.3Z" fill="#de8026" fill-rule="evenodd"/>
        <path d="M280.9,40.7c-1.1,0-2.2.4-3,1.3-.8.8-1.3,1.9-1.3,3s.4,2.2,1.3,3c.8.8,1.9,1.3,3,1.3s2.2-.4,3-1.3c.8-.8,1.3-1.9,1.3-3s-.4-2.2-1.3-3c-.8-.8-1.9-1.3-3-1.3Z" fill="#db8e27" fill-rule="evenodd"/>
        <path d="M301.4,42.2c-1.7,0-3.3.7-4.4,1.8-1.2,1.2-1.8,2.8-1.8,4.4s.7,3.3,1.8,4.4c1.2,1.2,2.8,1.8,4.4,1.8s3.3-.7,4.4-1.8c1.2-1.2,1.8-2.8,1.8-4.4s-.7-3.3-1.8-4.4c-1.2-1.2-2.8-1.8-4.4-1.8Z" fill="#db8e27" fill-rule="evenodd"/>
        <path d="M258.5,50.1c-1.3,0-2.6.5-3.5,1.5-.9.9-1.5,2.2-1.5,3.5s.5,2.6,1.5,3.5c.9.9,2.2,1.5,3.5,1.5s2.6-.5,3.5-1.5c.9-.9,1.5-2.2,1.5-3.5s-.5-2.6-1.5-3.5c-.9-.9-2.2-1.5-3.5-1.5Z" fill="#db8e27" fill-rule="evenodd"/>
        <path d="M259.2,50.1c-1.1,0-2.2.4-3,1.2-.8.8-1.2,1.9-1.2,3s.4,2.2,1.2,3c.8.8,1.9,1.2,3,1.2s2.2-.4,3-1.2c.8-.8,1.2-1.9,1.2-3s-.4-2.2-1.2-3c-.8-.8-1.9-1.2-3-1.2Z" fill="#da7a27" fill-rule="evenodd"/>
        <path d="M300.3,43c-1.3,0-2.6.5-3.6,1.5-1,1-1.5,2.2-1.5,3.6s.5,2.6,1.5,3.6c1,1,2.2,1.5,3.6,1.5s2.6-.5,3.6-1.5c1-1,1.5-2.2,1.5-3.6s-.5-2.6-1.5-3.6c-1-1-2.2-1.5-3.6-1.5Z" fill="#da7a27" fill-rule="evenodd"/>
        <g>
          <g>
            <g>
              <path d="M284.4,19.3c-2.3,3.4-5.2,8.6-7.1,15.3-2.2,7.9-2.3,14.7-1.9,19.1-1.4-1.3-3-3.2-4.4-5.5-.6-1-1.1-2-1.5-3-.7.8-1.5,1.7-2.3,2.7-1.7,2.2-2.9,4.4-3.8,6.3-.6-3.5-1.7-13.4,3.9-23.6,3.3-6,7.5-9.8,10.3-11.9,2.3.2,4.5.4,6.8.6Z" fill="#e91d29"/>
              <path d="M284.4,19.3c-.6.9-1.2,1.9-1.9,3,0,0,0,0,0,0-.5,0-.9-.3-1.2-.7-6.1,5-10.7,7.8-14.1,9.2,0,0,0-.2.1-.2,3.3-6,7.5-9.8,10.3-11.9,1.1,0,2.2.2,3.2.3.4,0,.7,0,1.1,0,.8,0,1.7.1,2.5.2Z" fill="#991b1e"/>
              <path d="M281.9,20.3c-17.9,14.9-22.9,10.8-23.8,9.1-.9-1.6-1.1-5.2-.2-9.4.8-4.3-1.1-6-1.4-10.1-.4-5.1.7-7.2,2.7-9,.8-.7,2.9-1.7,7,.3,7.2,3.4,15.4,12.6,15.6,12.7h0s.2,6.5.2,6.5Z" fill="#e91d29"/>
              <path d="M279.7,22.1c.1,0,.2-.2.4-.3,0,0,0,0,0,0,.1,0,.2-.2.3-.3,0,0,0,0,.1,0,.1,0,.2-.2.3-.3,0,0,0,0,.1-.1.1,0,.2-.2.3-.3,0,0,0,0,.1,0,.1-.1.3-.2.4-.4v-1.3s0-.9,0-.9v-1.2s0-.9,0-.9v-2.2c0,0,0,0,0,0,0,0-.4-.5-1.1-1.1l-.6,1.1s.3.9.2,1.9c0,.4-.4.8-.8.8-.5,0-1,.1-1.5.2-.7,0-1.4.2-2.1.2-.7,0-1.4.1-2.2.2.7,0,1.4,0,2.2,0,.7,0,1.4,0,2.2,0,.3,0,.6,0,.9,0,.6,0,1.1.6,1,1.2,0,.1,0,.2-.1.3,0,.2-.3.4-.5.5-.7.2-1.4.5-2.1.7-.9.3-1.9.6-2.8.8-.9.2-1.9.5-2.9.6,1,0,1.9-.2,2.9-.4,1-.2,1.9-.4,2.9-.6,0,0,0,0,0,0,1.1-.3,1.7,1.3.6,1.8,0,0,0,0,0,0,0,0,0,0,0,0-1.4.7-3.2,1.5-5.4,2.4-12.3,5.2-10.1-2.4-11.9-8.2-1.3-4.2-3.8-4.3-4.1-6.2.4,4,2.2,5.7,1.4,9.9-.8,4.3-.7,7.8.2,9.4.9,1.5,5.6,5.4,21.6-7.3,0,0,0,0,0,0Z" fill="#c42127" mix-blend-mode="multiply" opacity=".5"/>
              <path d="M280.8,14.1s-15.7-5-19.4-8.1c-3.8-3.1-2.3-7.1,4.7-4.1,7.1,3,15.3,11.7,15.3,11.7l-.5.5Z" fill="#991b1e"/>
            </g>
            <g>
              <path d="M288.1,19.3c2.3,3.4,5.2,8.6,7.1,15.3,2.2,7.9,2.3,14.7,1.9,19.1,1.4-1.3,3-3.2,4.4-5.5.6-1,1.1-2,1.5-3,.7.8,1.5,1.7,2.3,2.7,1.7,2.2,2.9,4.4,3.8,6.3.6-3.5,1.7-13.4-3.9-23.6-3.3-6-7.5-9.8-10.3-11.9-2.3.2-4.5.4-6.8.6Z" fill="#e91d29"/>
              <path d="M288.1,19.3c.6.9,1.2,1.9,1.9,3,0,0,0,0,0,0,.5,0,.9-.3,1.2-.7,6.1,5,10.7,7.8,14.1,9.2,0,0,0-.2-.1-.2-3.3-6-7.5-9.8-10.3-11.9-1.1,0-2.2.2-3.2.3-.4,0-.7,0-1.1,0-.8,0-1.7.1-2.5.2Z" fill="#991b1e"/>
              <path d="M290.5,20.3c17.9,14.9,22.9,10.8,23.8,9.1.9-1.6,1.1-5.2.2-9.4-.8-4.3,1.1-6,1.4-10.1.4-5.1-.7-7.2-2.7-9-.8-.7-2.9-1.7-7,.3-7.2,3.4-15.4,12.6-15.6,12.7h0s-.2,6.5-.2,6.5Z" fill="#e91d29"/>
              <path d="M292.7,22.1c-.1,0-.2-.2-.4-.3,0,0,0,0,0,0-.1,0-.2-.2-.3-.3,0,0,0,0-.1,0-.1,0-.2-.2-.3-.3,0,0,0,0-.1-.1-.1,0-.2-.2-.3-.3,0,0,0,0-.1,0-.1-.1-.3-.2-.4-.4v-1.3s0-.9,0-.9v-1.2s0-.9,0-.9v-2.2c0,0,0,0,0,0,0,0,.4-.5,1.1-1.1l.6,1.1s-.3.9-.2,1.9c0,.4.4.8.8.8.5,0,1,.1,1.5.2.7,0,1.4.2,2.1.2.7,0,1.4.1,2.2.2-.7,0-1.4,0-2.2,0-.7,0-1.4,0-2.2,0-.3,0-.6,0-.9,0-.6,0-1.1.6-1,1.2,0,.1,0,.2.1.3,0,.2.3.4.5.5.7.2,1.4.5,2.1.7.9.3,1.9.6,2.8.8.9.2,1.9.5,2.9.6-1,0-1.9-.2-2.9-.4-1-.2-1.9-.4-2.9-.6,0,0,0,0,0,0-1.1-.3-1.7,1.3-.6,1.8,0,0,0,0,0,0,0,0,0,0,0,0,1.4.7,3.2,1.5,5.4,2.4,12.3,5.2,10.1-2.4,11.9-8.2,1.3-4.2,3.8-4.3,4.1-6.2-.4,4-2.2,5.7-1.4,9.9.8,4.3.7,7.8-.2,9.4-.9,1.5-5.6,5.4-21.6-7.3,0,0,0,0,0,0Z" fill="#c42127" mix-blend-mode="multiply" opacity=".5"/>
              <path d="M291.6,14.1s15.7-5,19.4-8.1c3.8-3.1,2.3-7.1-4.7-4.1-7.1,3-15.3,11.7-15.3,11.7l.5.5Z" fill="#991b1e"/>
            </g>
          </g>
          <path d="M290.1,21.6c-2.6.4-5.2.4-7.7,0-1-.1-1.7-1-1.7-1.9v-5.6c0-1,.7-1.8,1.7-1.9,2.6-.4,5.2-.4,7.7,0,1,.1,1.7,1,1.7,1.9v5.6c0,1-.7,1.8-1.7,1.9Z" fill="#e91d29"/>
          <path d="M291.8,14.1v5.6c0,1-.7,1.8-1.7,1.9-2.6.4-5.2.4-7.7,0-.9-.1-1.6-.9-1.7-1.8.3.3.7.5,1.1.6,2.6.4,5.2.4,7.7,0,1-.1,1.7-1,1.7-1.9v-5.6s0,0,0-.1c.3.3.5.8.5,1.3Z" fill="#c42127" mix-blend-mode="multiply" opacity=".3"/>
        </g>
        <path d="M0,66.3c8.6-2.4,11.3-3.2,24.2-3.5s26.1.2,39.3-1.3,17.6-3.3,25.3-15,10.7-25.7,26.1-34.4,23.2-6.5,33.8-5,17.3,4.2,20.7,5.6c-.4-4.2,2.3-6.1,5-6.1s4.8,2.2,4.6,5.6l4,.4c1.4-3.7,2.1-6.9,6.1-6.1s2.2,2.2,11.9,8.3,16.1,2.9,14.3,6.8c-4.2,9.1-10.2,11.8-20.2,15.5s-14.5,7.9-15.6,14.7c2.9,1.3,12.4,3.7,8.8,4.4-7.6,1.4-18.1-3.5-22.5-3.8s-5.4,5.6-5.1,12.2c0,0,11.7,2.7,9.6,3.5s-13.1.8-13.1.8c-4-5.6-10.3-13.2-17.8-13.8s-9.5,3.2-13.3,4.8-9.5,1.7-6.1,2.9,16.9,3.3,13,4.4-15.1.9-16.1.9-11.2-9-15.6-9.9c-14.8-3.2-18.4,7.3-46,8.3-14.5.5-55.4-.2-55.4-.2Z" fill="#010101"/>
      </g>
    </g>
  </g>
</svg>