<?xml version="1.0" encoding="UTF-8"?>
<svg id="Layer_1" xmlns="http://www.w3.org/2000/svg" version="1.1" viewBox="0 0 619.7 556.5">
  <!-- Generator: Adobe Illustrator 29.0.1, SVG Export Plug-In . SVG Version: 2.1.0 Build 192)  -->
  <path d="M375.7,38.1l116.7,202.2,116.7,202.2c14,24.2,14,51.9,0,76.1-14,24.2-38,38.1-65.9,38.1H76.4c-27.9,0-51.9-13.9-65.9-38.1-14-24.2-14-51.9,0-76.1l116.7-202.2L243.9,38.1C257.9,13.9,281.9,0,309.8,0s51.9,13.9,65.9,38.1h0Z" fill="#f1de00" fill-rule="evenodd"/>
  <path d="M329.7,64.6c-2.2-3.9-5-6.7-8.2-8.6-3.2-1.8-7.1-2.8-11.6-2.8s-8.4.9-11.6,2.8h0c-3.3,1.9-6,4.8-8.3,8.6L56.6,469c-2.2,3.8-3.3,7.7-3.3,11.5s1.1,7.6,3.3,11.4h0c2.3,3.9,5,6.8,8.2,8.6,3.2,1.8,7.1,2.8,11.6,2.8h466.9c4.5,0,8.4-.9,11.6-2.8,3.2-1.8,6-4.7,8.2-8.6h0c2.2-3.8,3.3-7.6,3.3-11.4s-1.1-7.6-3.3-11.4h0S329.7,64.6,329.7,64.6h0ZM331.9,37.9c6.5,3.7,11.8,9.2,15.9,16.3l233.4,404.3h0c4.1,7.1,6.2,14.5,6.2,21.9s-2.1,14.8-6.2,21.9h0c-4.1,7.1-9.4,12.6-15.9,16.3-6.5,3.8-13.9,5.7-22.1,5.7H76.4c-8.2,0-15.6-1.9-22.1-5.7-6.5-3.8-11.9-9.2-15.9-16.3h0c-4.1-7.2-6.2-14.5-6.2-22s2.1-14.8,6.2-21.9L271.8,54.2c4.1-7.1,9.5-12.6,15.9-16.3h0c6.5-3.8,13.9-5.7,22.1-5.7s15.6,1.9,22.1,5.7h0Z"/>
  <g>
    <path d="M268.6,478c-1.2,0,1.2.2,0,0h0Z"/>
    <path d="M463,389.7c-1.2-1.3-1.7-3.1-1.3-4.9,3.1-11.9,11.8-60-36.8-99.5-1.3-1-2.5-2.1-3.8-3.1-6.3-5.2-32.2-25.6-55.2-23.5-1,0-1.9.2-2.9.2-4.7,0-22.3,1.3-48.9,13.7-6.6,3.1-13.7,5.1-21,5.9-6.3.7-13.1,1.3-15.7.8-.4,0-.7-.5-.6-.9.5-3.5,2-19.1-14-18.6,0,0-7.1-1.3-12.7,7.9-.2.4-.8.3-1-.1-.9-2.3-3.8-7-12.7-5.3,0,0-16.9,2.9-11.6,23.9.2.9-.2,1.7-1,2.2-6.6,3.6-35.8,19.5-44.9,28.3-2.1,2-3.5,4.8-3.6,7.7,0,5.4,3.8,13.9,25.9,19.3,0,0,4.9,1,9.6,3.3,3,1.5,6.4,2.1,9.7,2.1,3.3,0,7.6,0,11.8,0,9.3,0,18.5,1.7,27.2,5,11,4.2,25.8,10.2,28.9,13.3.1.1.1.3,0,.4-.5,1-3,4.6-12.3,4-2.9-.2-5.8,1.1-7.2,3.7-1.5,2.7-1.2,5.9,7,7.4,0,0,23.9,4,31.2-8.5.6-.9,1.7-1.3,2.7-.8,5.7,3.1,23.8,12.1,39.8,12.1,3.5,0,6.7,1.6,9,4.2,3.4,3.8,8.4,8.9,12.4,10.2,1.7.6,3.2,1.8,3.7,3.6.4,1.4.2,2.8-1.9,3.6h-42.7c-2.5,0-4.9.7-6.9,2.3-1.9,1.5-3.1,3.7.2,5.9,1.9,1.3,4.2,1.8,6.4,1.8h50.5c1.3,0,2.7,0,4,0,4.1,0,18.7-1,18.8-19.7,0-.5.5-.8.9-.6,4.5,2.2,25.5,11.5,44.1,6.5.8-.2,1.6,0,2.1.7,4,5.6,21.7,31.2,21.4,47.5,0,0,.4,36.7-64.3,45-9.6,1.2-19.3,1.2-28.9-.4-10.5-1.7-24.8-5.1-38.3-12.3,0,0-31-17.1-71.4-14.3,0,0-51.3,1.5-59.4,14-.5.8.2,1.8,1.1,1.6,9.5-1.5,50.8-8,57.8-6.9,9.6.7,47.3,4.3,67.3,17.3,3.1,2,6.4,3.9,9.9,5.4,10.2,4.3,31.3,11.4,60.5,11.4,0,0,82.5-1.6,85.3-61.6,0,0,1.2-29.7-28.6-60.8ZM221.5,316.9c-4.2,0-7.6-3.4-7.6-7.6s3.4-7.6,7.6-7.6,7.6,3.4,7.6,7.6-3.4,7.6-7.6,7.6Z"/>
  </g>
</svg>