<?xml version="1.0" encoding="UTF-8"?>
<svg id="Layer_1" xmlns="http://www.w3.org/2000/svg" version="1.1" viewBox="0 0 878.18 878.18">
  <!-- Generator: Adobe Illustrator 29.0.1, SVG Export Plug-In . SVG Version: 2.1.0 Build 192)  -->
  <defs>
    <style>
      .st0 {
        fill: #b8860b;
        opacity: .5;
      }

      .st1 {
        fill: #fed700;
      }
    </style>
  </defs>
  <rect class="st1" x="-8.39" y="-5.46" width="892.34" height="892.34"/>
  <circle class="st0" cx="-1.99" cy="150.15" r="4.9"/>
  <circle class="st0" cx="199.97" cy="148.98" r="7.58"/>
  <circle class="st0" cx="241.44" cy="144.52" r="7.58"/>
  <circle class="st0" cx="264.17" cy="110.64" r="22.74"/>
  <circle class="st0" cx="270.08" cy="196.35" r="5.91"/>
  <circle class="st0" cx="312.49" cy="235.25" r="5.91"/>
  <circle class="st0" cx="310.1" cy="175.29" r="13.38"/>
  <circle class="st0" cx="331.5" cy="125.35" r="8.03"/>
  <circle class="st0" cx="223.6" cy="170.66" r="8.03"/>
  <circle class="st0" cx="318.12" cy="53.57" r="8.03"/>
  <circle class="st0" cx="203.99" cy="86.12" r="11.59"/>
  <circle class="st0" cx="250.35" cy="48.67" r="8.92"/>
  <circle class="st0" cx="223.6" cy="125.35" r="8.92"/>
  <circle class="st0" cx="311.88" cy="86.12" r="11.59"/>
  <circle class="st0" cx="306.08" cy="9.88" r="9.36"/>
  <circle class="st0" cx="299.17" cy="46.66" r="6.91"/>
  <circle class="st0" cx="364.71" cy="67.62" r="10.03"/>
  <circle class="st0" cx="364.71" cy="180.69" r="10.03"/>
  <circle class="st0" cx="401.05" cy="139.62" r="22.29"/>
  <circle class="st0" cx="361.81" cy="249.3" r="16.94"/>
  <circle class="st0" cx="259.27" cy="232.35" r="16.94"/>
  <circle class="st0" cx="291.82" cy="242.61" r="4.9"/>
  <circle class="st0" cx="378.76" cy="211.96" r="4.9"/>
  <circle class="st0" cx="378.76" cy="102.61" r="4.9"/>
  <circle class="st0" cx="364.71" cy="125.35" r="4.9"/>
  <circle class="st0" cx="347.83" cy="199.31" r="2.95"/>
  <circle class="st0" cx="315.45" cy="209" r="2.95"/>
  <circle class="st0" cx="354.68" cy="48.67" r="2.95"/>
  <circle class="st0" cx="264.68" cy="161.97" r="5.41"/>
  <circle class="st0" cx="286.91" cy="180.69" r="5.41"/>
  <circle class="st0" cx="259.27" cy="25.43" r="5.41"/>
  <circle class="st0" cx="294.27" cy="142.07" r="2.45"/>
  <circle class="st0" cx="350.78" cy="156.56" r="2.45"/>
  <circle class="st0" cx="250.35" cy="80.1" r="2.45"/>
  <circle class="st0" cx="341.3" cy="95.93" r="1.78"/>
  <circle class="st0" cx="275.99" cy="80.1" r="1.78"/>
  <circle class="st0" cx="420.78" cy="46.55" r="5.91"/>
  <circle class="st0" cx="463.19" cy="85.45" r="5.91"/>
  <circle class="st0" cx="460.79" cy="25.48" r="13.38"/>
  <circle class="st0" cx="374.3" cy="20.86" r="8.03"/>
  <circle class="st0" cx="515.41" cy="30.89" r="10.03"/>
  <circle class="st0" cx="512.51" cy="99.49" r="16.94"/>
  <circle class="st0" cx="409.96" cy="82.55" r="16.94"/>
  <circle class="st0" cx="442.51" cy="92.81" r="4.9"/>
  <circle class="st0" cx="529.45" cy="62.15" r="4.9"/>
  <circle class="st0" cx="498.52" cy="49.5" r="2.95"/>
  <circle class="st0" cx="466.14" cy="59.2" r="2.95"/>
  <circle class="st0" cx="415.37" cy="12.16" r="5.41"/>
  <circle class="st0" cx="437.61" cy="30.89" r="5.41"/>
  <circle class="st0" cx="501.47" cy="6.76" r="2.45"/>
  <circle class="st0" cx="215.24" cy="44.82" r="1.78"/>
  <circle class="st0" cx="407.51" cy="280.39" r="7.58"/>
  <circle class="st0" cx="448.98" cy="275.94" r="7.58"/>
  <circle class="st0" cx="471.71" cy="242.05" r="22.74"/>
  <circle class="st0" cx="477.62" cy="327.76" r="5.91"/>
  <circle class="st0" cx="520.03" cy="366.66" r="5.91"/>
  <circle class="st0" cx="517.63" cy="306.7" r="13.38"/>
  <circle class="st0" cx="539.04" cy="256.76" r="8.03"/>
  <circle class="st0" cx="431.14" cy="302.07" r="8.03"/>
  <circle class="st0" cx="525.66" cy="184.98" r="8.03"/>
  <circle class="st0" cx="411.52" cy="217.53" r="11.59"/>
  <circle class="st0" cx="457.89" cy="180.08" r="8.92"/>
  <circle class="st0" cx="431.14" cy="256.76" r="8.92"/>
  <circle class="st0" cx="519.42" cy="217.53" r="11.59"/>
  <circle class="st0" cx="474.17" cy="125.35" r="11.59"/>
  <circle class="st0" cx="513.62" cy="141.29" r="9.36"/>
  <circle class="st0" cx="506.71" cy="178.07" r="6.91"/>
  <circle class="st0" cx="572.25" cy="199.03" r="10.03"/>
  <circle class="st0" cx="422.22" cy="180.08" r="10.03"/>
  <circle class="st0" cx="572.25" cy="312.1" r="10.03"/>
  <circle class="st0" cx="608.59" cy="271.03" r="22.29"/>
  <circle class="st0" cx="569.35" cy="380.71" r="16.94"/>
  <circle class="st0" cx="466.81" cy="363.77" r="16.94"/>
  <circle class="st0" cx="499.36" cy="374.02" r="4.9"/>
  <circle class="st0" cx="586.29" cy="343.37" r="4.9"/>
  <circle class="st0" cx="586.29" cy="234.03" r="4.9"/>
  <circle class="st0" cx="572.25" cy="256.76" r="4.9"/>
  <circle class="st0" cx="555.36" cy="330.72" r="2.95"/>
  <circle class="st0" cx="522.98" cy="340.42" r="2.95"/>
  <circle class="st0" cx="562.22" cy="180.08" r="2.95"/>
  <circle class="st0" cx="472.21" cy="293.38" r="5.41"/>
  <circle class="st0" cx="494.45" cy="312.1" r="5.41"/>
  <circle class="st0" cx="466.81" cy="156.84" r="5.41"/>
  <circle class="st0" cx="501.81" cy="273.48" r="2.45"/>
  <circle class="st0" cx="558.32" cy="287.97" r="2.45"/>
  <circle class="st0" cx="457.89" cy="211.51" r="2.45"/>
  <circle class="st0" cx="548.84" cy="227.34" r="1.78"/>
  <circle class="st0" cx="442.96" cy="144.52" r="1.78"/>
  <circle class="st0" cx="483.53" cy="211.51" r="1.78"/>
  <circle class="st0" cx="559.99" cy="116.16" r="7.58"/>
  <circle class="st0" cx="601.45" cy="111.7" r="7.58"/>
  <circle class="st0" cx="624.19" cy="77.81" r="22.74"/>
  <circle class="st0" cx="630.1" cy="163.53" r="5.91"/>
  <circle class="st0" cx="672.51" cy="202.43" r="5.91"/>
  <circle class="st0" cx="670.11" cy="142.46" r="13.38"/>
  <circle class="st0" cx="691.51" cy="92.53" r="8.03"/>
  <circle class="st0" cx="583.62" cy="137.84" r="8.03"/>
  <circle class="st0" cx="678.14" cy="20.75" r="8.03"/>
  <circle class="st0" cx="564" cy="53.29" r="11.59"/>
  <circle class="st0" cx="610.37" cy="15.84" r="8.92"/>
  <circle class="st0" cx="583.62" cy="92.53" r="8.92"/>
  <circle class="st0" cx="671.9" cy="53.29" r="11.59"/>
  <circle class="st0" cx="659.19" cy="13.84" r="6.91"/>
  <circle class="st0" cx="724.73" cy="34.79" r="10.03"/>
  <circle class="st0" cx="724.73" cy="147.87" r="10.03"/>
  <circle class="st0" cx="761.06" cy="106.79" r="22.29"/>
  <circle class="st0" cx="721.83" cy="216.47" r="16.94"/>
  <circle class="st0" cx="619.29" cy="199.53" r="16.94"/>
  <circle class="st0" cx="651.83" cy="209.78" r="4.9"/>
  <circle class="st0" cx="738.77" cy="179.13" r="4.9"/>
  <circle class="st0" cx="738.77" cy="69.79" r="4.9"/>
  <circle class="st0" cx="724.73" cy="92.53" r="4.9"/>
  <circle class="st0" cx="707.84" cy="166.48" r="2.95"/>
  <circle class="st0" cx="675.46" cy="176.18" r="2.95"/>
  <circle class="st0" cx="714.7" cy="15.84" r="2.95"/>
  <circle class="st0" cx="624.69" cy="129.14" r="5.41"/>
  <circle class="st0" cx="646.93" cy="147.87" r="5.41"/>
  <circle class="st0" cx="619.29" cy="-7.4" r="5.41"/>
  <circle class="st0" cx="654.28" cy="109.25" r="2.45"/>
  <circle class="st0" cx="710.8" cy="123.74" r="2.45"/>
  <circle class="st0" cx="610.37" cy="47.27" r="2.45"/>
  <circle class="st0" cx="701.32" cy="63.1" r="1.78"/>
  <circle class="st0" cx="636.01" cy="47.27" r="1.78"/>
  <circle class="st0" cx="780.79" cy="13.73" r="5.91"/>
  <circle class="st0" cx="823.2" cy="52.62" r="5.91"/>
  <circle class="st0" cx="872.52" cy="66.67" r="16.94"/>
  <circle class="st0" cx="769.98" cy="49.73" r="16.94"/>
  <circle class="st0" cx="802.53" cy="59.98" r="4.9"/>
  <circle class="st0" cx="889.47" cy="29.33" r="4.9"/>
  <circle class="st0" cx="858.54" cy="16.68" r="2.95"/>
  <circle class="st0" cx="826.16" cy="26.38" r="2.95"/>
  <circle class="st0" cx="797.62" cy="-1.93" r="5.41"/>
  <circle class="st0" cx="767.53" cy="247.57" r="7.58"/>
  <circle class="st0" cx="808.99" cy="243.11" r="7.58"/>
  <circle class="st0" cx="831.73" cy="209.23" r="22.74"/>
  <circle class="st0" cx="837.64" cy="294.94" r="5.91"/>
  <circle class="st0" cx="880.05" cy="333.84" r="5.91"/>
  <circle class="st0" cx="877.65" cy="273.87" r="13.38"/>
  <circle class="st0" cx="899.05" cy="223.94" r="8.03"/>
  <circle class="st0" cx="791.16" cy="269.25" r="8.03"/>
  <circle class="st0" cx="885.68" cy="152.16" r="8.03"/>
  <circle class="st0" cx="771.54" cy="184.71" r="11.59"/>
  <circle class="st0" cx="817.91" cy="147.25" r="8.92"/>
  <circle class="st0" cx="791.16" cy="223.94" r="8.92"/>
  <circle class="st0" cx="879.43" cy="184.71" r="11.59"/>
  <circle class="st0" cx="834.18" cy="92.53" r="11.59"/>
  <circle class="st0" cx="873.64" cy="108.47" r="9.36"/>
  <circle class="st0" cx="866.73" cy="145.25" r="6.91"/>
  <circle class="st0" cx="782.24" cy="147.25" r="10.03"/>
  <circle class="st0" cx="826.83" cy="330.94" r="16.94"/>
  <circle class="st0" cx="656.74" cy="248.74" r="16.94"/>
  <circle class="st0" cx="859.37" cy="341.2" r="4.9"/>
  <circle class="st0" cx="883" cy="307.59" r="2.95"/>
  <circle class="st0" cx="832.23" cy="260.55" r="5.41"/>
  <circle class="st0" cx="854.47" cy="279.28" r="5.41"/>
  <circle class="st0" cx="826.83" cy="124.02" r="5.41"/>
  <circle class="st0" cx="861.82" cy="240.66" r="2.45"/>
  <circle class="st0" cx="817.91" cy="178.69" r="2.45"/>
  <circle class="st0" cx="802.97" cy="111.7" r="1.78"/>
  <circle class="st0" cx="843.54" cy="178.69" r="1.78"/>
  <circle class="st0" cx="464.13" cy="568.41" r="7.58"/>
  <circle class="st0" cx="505.6" cy="563.95" r="7.58"/>
  <circle class="st0" cx="528.33" cy="530.06" r="22.74"/>
  <circle class="st0" cx="534.24" cy="615.78" r="5.91"/>
  <circle class="st0" cx="576.65" cy="654.68" r="5.91"/>
  <circle class="st0" cx="574.26" cy="594.71" r="13.38"/>
  <circle class="st0" cx="595.66" cy="544.78" r="8.03"/>
  <circle class="st0" cx="487.76" cy="590.09" r="8.03"/>
  <circle class="st0" cx="582.28" cy="473" r="8.03"/>
  <circle class="st0" cx="468.15" cy="505.54" r="11.59"/>
  <circle class="st0" cx="514.51" cy="468.09" r="8.92"/>
  <circle class="st0" cx="487.76" cy="544.78" r="8.92"/>
  <circle class="st0" cx="576.04" cy="505.54" r="11.59"/>
  <circle class="st0" cx="570.24" cy="429.3" r="9.36"/>
  <circle class="st0" cx="563.33" cy="466.09" r="6.91"/>
  <circle class="st0" cx="628.87" cy="487.04" r="10.03"/>
  <circle class="st0" cx="628.87" cy="600.12" r="10.03"/>
  <circle class="st0" cx="665.21" cy="559.04" r="22.29"/>
  <circle class="st0" cx="625.97" cy="668.72" r="16.94"/>
  <circle class="st0" cx="523.43" cy="651.78" r="16.94"/>
  <circle class="st0" cx="555.98" cy="662.03" r="4.9"/>
  <circle class="st0" cx="642.92" cy="631.38" r="4.9"/>
  <circle class="st0" cx="642.92" cy="522.04" r="4.9"/>
  <circle class="st0" cx="628.87" cy="544.78" r="4.9"/>
  <circle class="st0" cx="611.99" cy="618.73" r="2.95"/>
  <circle class="st0" cx="579.61" cy="628.43" r="2.95"/>
  <circle class="st0" cx="618.84" cy="468.09" r="2.95"/>
  <circle class="st0" cx="528.84" cy="581.39" r="5.41"/>
  <circle class="st0" cx="551.07" cy="600.12" r="5.41"/>
  <circle class="st0" cx="523.43" cy="444.85" r="5.41"/>
  <circle class="st0" cx="485.76" cy="466.76" r="5.41"/>
  <circle class="st0" cx="537.59" cy="419.5" r="5.41"/>
  <circle class="st0" cx="558.43" cy="561.5" r="2.45"/>
  <circle class="st0" cx="614.94" cy="575.99" r="2.45"/>
  <circle class="st0" cx="514.51" cy="499.52" r="2.45"/>
  <circle class="st0" cx="605.47" cy="515.35" r="1.78"/>
  <circle class="st0" cx="540.15" cy="499.52" r="1.78"/>
  <circle class="st0" cx="614.83" cy="418.6" r="7.58"/>
  <circle class="st0" cx="656.29" cy="414.15" r="7.58"/>
  <circle class="st0" cx="679.03" cy="380.26" r="22.74"/>
  <circle class="st0" cx="684.94" cy="465.98" r="5.91"/>
  <circle class="st0" cx="727.35" cy="504.87" r="5.91"/>
  <circle class="st0" cx="724.95" cy="444.91" r="13.38"/>
  <circle class="st0" cx="746.35" cy="394.97" r="8.03"/>
  <circle class="st0" cx="638.46" cy="440.28" r="8.03"/>
  <circle class="st0" cx="732.98" cy="323.19" r="8.03"/>
  <circle class="st0" cx="618.84" cy="355.74" r="11.59"/>
  <circle class="st0" cx="665.21" cy="318.29" r="8.92"/>
  <circle class="st0" cx="638.46" cy="394.97" r="8.92"/>
  <circle class="st0" cx="619.29" cy="318.12" r="8.92"/>
  <circle class="st0" cx="726.73" cy="355.74" r="11.59"/>
  <circle class="st0" cx="720.94" cy="279.5" r="9.36"/>
  <circle class="st0" cx="714.03" cy="316.28" r="6.91"/>
  <circle class="st0" cx="779.57" cy="337.24" r="10.03"/>
  <circle class="st0" cx="779.57" cy="450.31" r="10.03"/>
  <circle class="st0" cx="815.9" cy="409.24" r="22.29"/>
  <circle class="st0" cx="776.67" cy="518.92" r="16.94"/>
  <circle class="st0" cx="674.12" cy="501.98" r="16.94"/>
  <circle class="st0" cx="706.67" cy="512.23" r="4.9"/>
  <circle class="st0" cx="793.61" cy="481.58" r="4.9"/>
  <circle class="st0" cx="858.26" cy="375.89" r="4.9"/>
  <circle class="st0" cx="793.61" cy="372.24" r="4.9"/>
  <circle class="st0" cx="779.57" cy="394.97" r="4.9"/>
  <circle class="st0" cx="762.68" cy="468.93" r="2.95"/>
  <circle class="st0" cx="730.3" cy="478.63" r="2.95"/>
  <circle class="st0" cx="769.53" cy="318.29" r="2.95"/>
  <circle class="st0" cx="750.25" cy="298.78" r="2.95"/>
  <circle class="st0" cx="742.34" cy="263.4" r="2.95"/>
  <circle class="st0" cx="679.53" cy="431.59" r="5.41"/>
  <circle class="st0" cx="701.77" cy="450.31" r="5.41"/>
  <circle class="st0" cx="674.12" cy="295.05" r="5.41"/>
  <circle class="st0" cx="709.12" cy="411.69" r="2.45"/>
  <circle class="st0" cx="765.63" cy="426.18" r="2.45"/>
  <circle class="st0" cx="665.21" cy="349.72" r="2.45"/>
  <circle class="st0" cx="651.5" cy="288.86" r="2.45"/>
  <circle class="st0" cx="756.16" cy="365.55" r="1.78"/>
  <circle class="st0" cx="768.59" cy="285.13" r="1.78"/>
  <circle class="st0" cx="821.42" cy="285.52" r="1.78"/>
  <circle class="st0" cx="690.84" cy="349.72" r="1.78"/>
  <circle class="st0" cx="701.32" cy="248.74" r="1.78"/>
  <circle class="st0" cx="671.67" cy="699.82" r="7.58"/>
  <circle class="st0" cx="713.14" cy="695.36" r="7.58"/>
  <circle class="st0" cx="735.87" cy="661.48" r="22.74"/>
  <circle class="st0" cx="741.78" cy="747.19" r="5.91"/>
  <circle class="st0" cx="784.19" cy="786.09" r="5.91"/>
  <circle class="st0" cx="781.8" cy="726.12" r="13.38"/>
  <circle class="st0" cx="803.2" cy="676.19" r="8.03"/>
  <circle class="st0" cx="695.3" cy="721.5" r="8.03"/>
  <circle class="st0" cx="789.82" cy="604.41" r="8.03"/>
  <circle class="st0" cx="675.69" cy="636.95" r="11.59"/>
  <circle class="st0" cx="722.05" cy="599.5" r="8.92"/>
  <circle class="st0" cx="695.3" cy="676.19" r="8.92"/>
  <circle class="st0" cx="783.58" cy="636.95" r="11.59"/>
  <circle class="st0" cx="738.33" cy="544.78" r="11.59"/>
  <circle class="st0" cx="777.78" cy="560.72" r="9.36"/>
  <circle class="st0" cx="770.87" cy="597.5" r="6.91"/>
  <circle class="st0" cx="836.41" cy="618.45" r="10.03"/>
  <circle class="st0" cx="686.39" cy="599.5" r="10.03"/>
  <circle class="st0" cx="836.41" cy="731.53" r="10.03"/>
  <circle class="st0" cx="872.75" cy="690.46" r="22.29"/>
  <circle class="st0" cx="833.51" cy="800.13" r="16.94"/>
  <circle class="st0" cx="730.97" cy="783.19" r="16.94"/>
  <circle class="st0" cx="763.52" cy="793.44" r="4.9"/>
  <circle class="st0" cx="850.45" cy="762.79" r="4.9"/>
  <circle class="st0" cx="850.45" cy="653.45" r="4.9"/>
  <circle class="st0" cx="836.41" cy="676.19" r="4.9"/>
  <circle class="st0" cx="880.05" cy="632.72" r="4.9"/>
  <circle class="st0" cx="819.52" cy="750.14" r="2.95"/>
  <circle class="st0" cx="787.15" cy="759.84" r="2.95"/>
  <circle class="st0" cx="826.38" cy="599.5" r="2.95"/>
  <circle class="st0" cx="736.38" cy="712.8" r="5.41"/>
  <circle class="st0" cx="758.61" cy="731.53" r="5.41"/>
  <circle class="st0" cx="730.97" cy="576.26" r="5.41"/>
  <circle class="st0" cx="765.97" cy="692.91" r="2.45"/>
  <circle class="st0" cx="822.48" cy="707.4" r="2.45"/>
  <circle class="st0" cx="722.05" cy="630.94" r="2.45"/>
  <circle class="st0" cx="813" cy="646.76" r="1.78"/>
  <circle class="st0" cx="707.12" cy="563.95" r="1.78"/>
  <circle class="st0" cx="747.69" cy="630.94" r="1.78"/>
  <circle class="st0" cx="103.78" cy="590.53" r="7.58"/>
  <circle class="st0" cx="145.25" cy="586.07" r="7.58"/>
  <circle class="st0" cx="167.98" cy="552.19" r="22.74"/>
  <circle class="st0" cx="173.89" cy="637.9" r="5.91"/>
  <circle class="st0" cx="216.3" cy="676.8" r="5.91"/>
  <circle class="st0" cx="213.91" cy="616.84" r="13.38"/>
  <circle class="st0" cx="235.31" cy="566.9" r="8.03"/>
  <circle class="st0" cx="127.41" cy="612.21" r="8.03"/>
  <circle class="st0" cx="221.93" cy="495.12" r="8.03"/>
  <circle class="st0" cx="107.8" cy="527.67" r="11.59"/>
  <circle class="st0" cx="154.16" cy="490.22" r="8.92"/>
  <circle class="st0" cx="117.05" cy="490.22" r="8.92"/>
  <circle class="st0" cx="127.41" cy="566.9" r="8.92"/>
  <circle class="st0" cx="215.69" cy="527.67" r="11.59"/>
  <circle class="st0" cx="209.89" cy="451.43" r="9.36"/>
  <circle class="st0" cx="202.98" cy="488.21" r="6.91"/>
  <circle class="st0" cx="180.36" cy="450.31" r="6.91"/>
  <circle class="st0" cx="268.52" cy="509.17" r="10.03"/>
  <circle class="st0" cx="268.52" cy="622.24" r="10.03"/>
  <circle class="st0" cx="304.86" cy="581.17" r="22.29"/>
  <circle class="st0" cx="265.62" cy="690.85" r="16.94"/>
  <circle class="st0" cx="163.08" cy="673.9" r="16.94"/>
  <circle class="st0" cx="195.63" cy="684.16" r="4.9"/>
  <circle class="st0" cx="282.57" cy="653.51" r="4.9"/>
  <circle class="st0" cx="282.57" cy="544.16" r="4.9"/>
  <circle class="st0" cx="268.52" cy="566.9" r="4.9"/>
  <circle class="st0" cx="251.63" cy="640.86" r="2.95"/>
  <circle class="st0" cx="228.01" cy="721.94" r="2.95"/>
  <circle class="st0" cx="219.26" cy="650.55" r="2.95"/>
  <circle class="st0" cx="258.49" cy="490.22" r="2.95"/>
  <circle class="st0" cx="168.49" cy="603.52" r="5.41"/>
  <circle class="st0" cx="190.72" cy="622.24" r="5.41"/>
  <circle class="st0" cx="163.08" cy="466.98" r="5.41"/>
  <circle class="st0" cx="141.12" cy="451.43" r="5.41"/>
  <circle class="st0" cx="198.08" cy="583.62" r="2.45"/>
  <circle class="st0" cx="254.59" cy="598.11" r="2.45"/>
  <circle class="st0" cx="154.16" cy="521.65" r="2.45"/>
  <circle class="st0" cx="245.11" cy="537.48" r="1.78"/>
  <circle class="st0" cx="179.8" cy="521.65" r="1.78"/>
  <circle class="st0" cx="254.48" cy="440.73" r="7.58"/>
  <circle class="st0" cx="295.94" cy="436.27" r="7.58"/>
  <circle class="st0" cx="318.68" cy="402.39" r="22.74"/>
  <circle class="st0" cx="324.59" cy="488.1" r="5.91"/>
  <circle class="st0" cx="367" cy="527" r="5.91"/>
  <circle class="st0" cx="364.6" cy="467.03" r="13.38"/>
  <circle class="st0" cx="386" cy="417.1" r="8.03"/>
  <circle class="st0" cx="278.11" cy="462.41" r="8.03"/>
  <circle class="st0" cx="372.62" cy="345.32" r="8.03"/>
  <circle class="st0" cx="318.68" cy="293.16" r="8.03"/>
  <circle class="st0" cx="162.75" cy="422.45" r="8.03"/>
  <circle class="st0" cx="258.49" cy="377.87" r="11.59"/>
  <circle class="st0" cx="268.52" cy="334.9" r="11.59"/>
  <circle class="st0" cx="304.86" cy="340.42" r="8.92"/>
  <circle class="st0" cx="287.47" cy="272.31" r="8.92"/>
  <circle class="st0" cx="278.11" cy="417.1" r="8.92"/>
  <circle class="st0" cx="366.38" cy="377.87" r="11.59"/>
  <circle class="st0" cx="360.59" cy="301.63" r="9.36"/>
  <circle class="st0" cx="353.68" cy="338.41" r="6.91"/>
  <circle class="st0" cx="326.03" cy="264.79" r="6.91"/>
  <circle class="st0" cx="419.22" cy="359.36" r="10.03"/>
  <circle class="st0" cx="419.22" cy="472.44" r="10.03"/>
  <circle class="st0" cx="455.55" cy="431.37" r="22.29"/>
  <circle class="st0" cx="416.32" cy="541.04" r="16.94"/>
  <circle class="st0" cx="313.77" cy="524.1" r="16.94"/>
  <circle class="st0" cx="346.32" cy="534.36" r="4.9"/>
  <circle class="st0" cx="433.26" cy="503.7" r="4.9"/>
  <circle class="st0" cx="433.26" cy="394.36" r="4.9"/>
  <circle class="st0" cx="419.22" cy="417.1" r="4.9"/>
  <circle class="st0" cx="402.33" cy="491.05" r="2.95"/>
  <circle class="st0" cx="369.95" cy="500.75" r="2.95"/>
  <circle class="st0" cx="409.18" cy="340.42" r="2.95"/>
  <circle class="st0" cx="319.18" cy="453.71" r="5.41"/>
  <circle class="st0" cx="341.42" cy="472.44" r="5.41"/>
  <circle class="st0" cx="313.77" cy="317.18" r="5.41"/>
  <circle class="st0" cx="347.83" cy="284.69" r="5.41"/>
  <circle class="st0" cx="348.77" cy="433.82" r="2.45"/>
  <circle class="st0" cx="405.28" cy="448.31" r="2.45"/>
  <circle class="st0" cx="304.86" cy="371.85" r="2.45"/>
  <circle class="st0" cx="395.81" cy="387.67" r="1.78"/>
  <circle class="st0" cx="330.49" cy="371.85" r="1.78"/>
  <circle class="st0" cx="311.32" cy="721.94" r="7.58"/>
  <circle class="st0" cx="352.79" cy="717.48" r="7.58"/>
  <circle class="st0" cx="375.52" cy="683.6" r="22.74"/>
  <circle class="st0" cx="381.43" cy="769.31" r="5.91"/>
  <circle class="st0" cx="423.84" cy="808.21" r="5.91"/>
  <circle class="st0" cx="421.44" cy="748.25" r="13.38"/>
  <circle class="st0" cx="442.84" cy="698.31" r="8.03"/>
  <circle class="st0" cx="334.95" cy="743.62" r="8.03"/>
  <circle class="st0" cx="429.47" cy="626.53" r="8.03"/>
  <circle class="st0" cx="315.33" cy="659.08" r="11.59"/>
  <circle class="st0" cx="361.7" cy="621.63" r="8.92"/>
  <circle class="st0" cx="334.95" cy="698.31" r="8.92"/>
  <circle class="st0" cx="423.23" cy="659.08" r="11.59"/>
  <circle class="st0" cx="377.98" cy="566.9" r="11.59"/>
  <circle class="st0" cx="417.43" cy="582.84" r="9.36"/>
  <circle class="st0" cx="410.52" cy="619.62" r="6.91"/>
  <circle class="st0" cx="476.06" cy="640.58" r="10.03"/>
  <circle class="st0" cx="326.03" cy="621.63" r="10.03"/>
  <circle class="st0" cx="476.06" cy="753.65" r="10.03"/>
  <circle class="st0" cx="512.4" cy="712.58" r="22.29"/>
  <circle class="st0" cx="473.16" cy="822.26" r="16.94"/>
  <circle class="st0" cx="370.62" cy="805.32" r="16.94"/>
  <circle class="st0" cx="403.17" cy="815.57" r="4.9"/>
  <circle class="st0" cx="490.1" cy="784.92" r="4.9"/>
  <circle class="st0" cx="555.98" cy="702.88" r="4.9"/>
  <circle class="st0" cx="490.1" cy="675.58" r="4.9"/>
  <circle class="st0" cx="476.06" cy="698.31" r="4.9"/>
  <circle class="st0" cx="459.17" cy="772.27" r="2.95"/>
  <circle class="st0" cx="426.79" cy="781.96" r="2.95"/>
  <circle class="st0" cx="466.03" cy="621.63" r="2.95"/>
  <circle class="st0" cx="376.02" cy="734.93" r="5.41"/>
  <circle class="st0" cx="398.26" cy="753.65" r="5.41"/>
  <circle class="st0" cx="370.62" cy="598.39" r="5.41"/>
  <circle class="st0" cx="405.62" cy="715.03" r="2.45"/>
  <circle class="st0" cx="462.13" cy="729.52" r="2.45"/>
  <circle class="st0" cx="361.7" cy="653.06" r="2.45"/>
  <circle class="st0" cx="452.65" cy="668.89" r="1.78"/>
  <circle class="st0" cx="346.77" cy="586.07" r="1.78"/>
  <circle class="st0" cx="387.34" cy="653.06" r="1.78"/>
  <circle class="st0" cx="-1.99" cy="92.42" r="10.03"/>
  <circle class="st0" cx="-1.99" cy="205.49" r="10.03"/>
  <circle class="st0" cx="34.34" cy="164.42" r="22.29"/>
  <circle class="st0" cx="-4.89" cy="274.1" r="16.94"/>
  <circle class="st0" cx="12.05" cy="236.76" r="4.9"/>
  <circle class="st0" cx="12.05" cy="127.41" r="4.9"/>
  <circle class="st0" cx="25.43" cy="19.52" r="7.58"/>
  <circle class="st0" cx="54.07" cy="71.35" r="5.91"/>
  <circle class="st0" cx="96.48" cy="110.25" r="5.91"/>
  <circle class="st0" cx="94.09" cy="50.28" r="13.38"/>
  <circle class="st0" cx="115.49" cy=".35" r="8.03"/>
  <circle class="st0" cx="7.59" cy="45.66" r="8.03"/>
  <circle class="st0" cx="7.59" cy=".35" r="8.92"/>
  <circle class="st0" cx="148.7" cy="55.69" r="10.03"/>
  <circle class="st0" cx="185.04" cy="14.62" r="22.29"/>
  <circle class="st0" cx="145.8" cy="124.29" r="16.94"/>
  <circle class="st0" cx="43.26" cy="107.35" r="16.94"/>
  <circle class="st0" cx="75.81" cy="117.61" r="4.9"/>
  <circle class="st0" cx="162.75" cy="86.95" r="4.9"/>
  <circle class="st0" cx="148.7" cy=".35" r="4.9"/>
  <circle class="st0" cx="131.82" cy="74.3" r="2.95"/>
  <circle class="st0" cx="99.44" cy="84" r="2.95"/>
  <circle class="st0" cx="48.67" cy="36.96" r="5.41"/>
  <circle class="st0" cx="70.9" cy="55.69" r="5.41"/>
  <circle class="st0" cx="78.26" cy="17.07" r="2.45"/>
  <circle class="st0" cx="134.77" cy="31.56" r="2.45"/>
  <circle class="st0" cx="40.81" cy="305.19" r="7.58"/>
  <circle class="st0" cx="82.27" cy="300.74" r="7.58"/>
  <circle class="st0" cx="105.01" cy="266.85" r="22.74"/>
  <circle class="st0" cx="110.92" cy="352.56" r="5.91"/>
  <circle class="st0" cx="153.33" cy="391.46" r="5.91"/>
  <circle class="st0" cx="150.93" cy="331.5" r="13.38"/>
  <circle class="st0" cx="172.33" cy="281.56" r="8.03"/>
  <circle class="st0" cx="64.44" cy="326.87" r="8.03"/>
  <circle class="st0" cx="158.96" cy="209.78" r="8.03"/>
  <circle class="st0" cx="44.82" cy="242.33" r="11.59"/>
  <circle class="st0" cx="91.19" cy="204.88" r="8.92"/>
  <circle class="st0" cx="64.44" cy="281.56" r="8.92"/>
  <circle class="st0" cx="152.71" cy="242.33" r="11.59"/>
  <circle class="st0" cx="107.46" cy="150.15" r="11.59"/>
  <circle class="st0" cx="146.92" cy="166.09" r="9.36"/>
  <circle class="st0" cx="140.01" cy="202.87" r="6.91"/>
  <circle class="st0" cx="205.55" cy="223.83" r="10.03"/>
  <circle class="st0" cx="55.52" cy="204.88" r="10.03"/>
  <circle class="st0" cx="205.55" cy="336.9" r="10.03"/>
  <circle class="st0" cx="241.88" cy="295.83" r="22.29"/>
  <circle class="st0" cx="202.65" cy="405.51" r="16.94"/>
  <circle class="st0" cx="100.1" cy="388.57" r="16.94"/>
  <circle class="st0" cx="132.65" cy="398.82" r="4.9"/>
  <circle class="st0" cx="219.59" cy="368.17" r="4.9"/>
  <circle class="st0" cx="219.59" cy="258.83" r="4.9"/>
  <circle class="st0" cx="205.55" cy="281.56" r="4.9"/>
  <circle class="st0" cx="188.66" cy="355.52" r="2.95"/>
  <circle class="st0" cx="156.28" cy="365.22" r="2.95"/>
  <circle class="st0" cx="195.51" cy="204.88" r="2.95"/>
  <circle class="st0" cx="105.51" cy="318.18" r="5.41"/>
  <circle class="st0" cx="127.75" cy="336.9" r="5.41"/>
  <circle class="st0" cx="100.1" cy="181.64" r="5.41"/>
  <circle class="st0" cx="135.1" cy="298.28" r="2.45"/>
  <circle class="st0" cx="191.61" cy="312.77" r="2.45"/>
  <circle class="st0" cx="91.19" cy="236.31" r="2.45"/>
  <circle class="st0" cx="182.14" cy="252.14" r="1.78"/>
  <circle class="st0" cx="76.25" cy="169.32" r="1.78"/>
  <circle class="st0" cx="116.82" cy="236.31" r="1.78"/>
  <circle class="st0" cx="2.97" cy="544.11" r="5.91"/>
  <circle class="st0" cx=".57" cy="484.14" r="13.38"/>
  <circle class="st0" cx="21.97" cy="434.21" r="8.03"/>
  <circle class="st0" cx="8.6" cy="362.43" r="8.03"/>
  <circle class="st0" cx="2.35" cy="394.97" r="11.59"/>
  <circle class="st0" cx="-3.44" cy="318.74" r="9.36"/>
  <circle class="st0" cx="55.19" cy="376.47" r="10.03"/>
  <circle class="st0" cx="55.19" cy="489.55" r="10.03"/>
  <circle class="st0" cx="91.52" cy="448.48" r="22.29"/>
  <circle class="st0" cx="52.29" cy="558.15" r="16.94"/>
  <circle class="st0" cx="69.23" cy="520.81" r="4.9"/>
  <circle class="st0" cx="69.23" cy="411.47" r="4.9"/>
  <circle class="st0" cx="55.19" cy="434.21" r="4.9"/>
  <circle class="st0" cx="38.3" cy="508.16" r="2.95"/>
  <circle class="st0" cx="5.92" cy="517.86" r="2.95"/>
  <circle class="st0" cx="45.16" cy="357.52" r="2.95"/>
  <circle class="st0" cx="41.25" cy="465.42" r="2.45"/>
  <circle class="st0" cx="31.78" cy="404.78" r="1.78"/>
  <circle class="st0" cx="11.49" cy="700.71" r="22.74"/>
  <circle class="st0" cx="17.4" cy="786.42" r="5.91"/>
  <circle class="st0" cx="59.81" cy="825.32" r="5.91"/>
  <circle class="st0" cx="57.42" cy="765.36" r="13.38"/>
  <circle class="st0" cx="78.82" cy="715.42" r="8.03"/>
  <circle class="st0" cx="65.44" cy="643.64" r="8.03"/>
  <circle class="st0" cx="-2.33" cy="638.74" r="8.92"/>
  <circle class="st0" cx="59.2" cy="676.19" r="11.59"/>
  <circle class="st0" cx="13.95" cy="584.01" r="11.59"/>
  <circle class="st0" cx="53.4" cy="599.95" r="9.36"/>
  <circle class="st0" cx="46.49" cy="636.73" r="6.91"/>
  <circle class="st0" cx="112.03" cy="657.69" r="10.03"/>
  <circle class="st0" cx="112.03" cy="770.76" r="10.03"/>
  <circle class="st0" cx="148.37" cy="729.69" r="22.29"/>
  <circle class="st0" cx="109.13" cy="839.37" r="16.94"/>
  <circle class="st0" cx="59.2" cy="872.19" r="16.94"/>
  <circle class="st0" cx="6.59" cy="822.42" r="16.94"/>
  <circle class="st0" cx="39.14" cy="832.68" r="4.9"/>
  <circle class="st0" cx="126.08" cy="802.03" r="4.9"/>
  <circle class="st0" cx="126.08" cy="692.68" r="4.9"/>
  <circle class="st0" cx="112.03" cy="715.42" r="4.9"/>
  <circle class="st0" cx="95.14" cy="789.38" r="2.95"/>
  <circle class="st0" cx="62.77" cy="799.07" r="2.95"/>
  <circle class="st0" cx="102" cy="638.74" r="2.95"/>
  <circle class="st0" cx="12" cy="752.04" r="5.41"/>
  <circle class="st0" cx="34.23" cy="770.76" r="5.41"/>
  <circle class="st0" cx="6.59" cy="615.5" r="5.41"/>
  <circle class="st0" cx="41.59" cy="732.14" r="2.45"/>
  <circle class="st0" cx="98.1" cy="746.63" r="2.45"/>
  <circle class="st0" cx="88.62" cy="686" r="1.78"/>
  <circle class="st0" cx="23.31" cy="670.17" r="1.78"/>
  <circle class="st0" cx="12.05" cy="866.06" r="8.92"/>
  <circle class="st0" cx="110.02" cy="887.8" r="9.36"/>
  <circle class="st0" cx="154.61" cy="877.1" r="7.58"/>
  <circle class="st0" cx="196.07" cy="872.64" r="7.58"/>
  <circle class="st0" cx="218.81" cy="838.75" r="22.74"/>
  <circle class="st0" cx="286.13" cy="853.47" r="8.03"/>
  <circle class="st0" cx="272.76" cy="781.69" r="8.03"/>
  <circle class="st0" cx="158.62" cy="814.23" r="11.59"/>
  <circle class="st0" cx="204.99" cy="776.78" r="8.92"/>
  <circle class="st0" cx="178.24" cy="853.47" r="8.92"/>
  <circle class="st0" cx="266.51" cy="814.23" r="11.59"/>
  <circle class="st0" cx="260.72" cy="737.99" r="9.36"/>
  <circle class="st0" cx="195.51" cy="714.36" r="9.36"/>
  <circle class="st0" cx="496.68" cy="405.9" r="9.36"/>
  <circle class="st0" cx="253.81" cy="774.78" r="6.91"/>
  <circle class="st0" cx="319.35" cy="795.73" r="10.03"/>
  <circle class="st0" cx="355.68" cy="867.73" r="22.29"/>
  <circle class="st0" cx="333.39" cy="830.73" r="4.9"/>
  <circle class="st0" cx="319.35" cy="853.47" r="4.9"/>
  <circle class="st0" cx="309.32" cy="776.78" r="2.95"/>
  <circle class="st0" cx="219.31" cy="890.08" r="5.41"/>
  <circle class="st0" cx="213.91" cy="753.54" r="5.41"/>
  <circle class="st0" cx="248.9" cy="870.19" r="2.45"/>
  <circle class="st0" cx="305.41" cy="884.68" r="2.45"/>
  <circle class="st0" cx="204.99" cy="808.21" r="2.45"/>
  <circle class="st0" cx="295.94" cy="824.04" r="1.78"/>
  <circle class="st0" cx="230.62" cy="808.21" r="1.78"/>
  <circle class="st0" cx="404.56" cy="851.38" r="11.59"/>
  <circle class="st0" cx="474.05" cy="863.11" r="9.36"/>
  <circle class="st0" cx="439.17" cy="843.04" r="2.95"/>
  <circle class="st0" cx="427.24" cy="878.66" r="5.41"/>
  <circle class="st0" cx="518.64" cy="852.41" r="7.58"/>
  <circle class="st0" cx="560.1" cy="847.95" r="7.58"/>
  <circle class="st0" cx="582.84" cy="814.07" r="22.74"/>
  <circle class="st0" cx="628.76" cy="878.71" r="13.38"/>
  <circle class="st0" cx="650.16" cy="828.78" r="8.03"/>
  <circle class="st0" cx="542.27" cy="874.09" r="8.03"/>
  <circle class="st0" cx="636.79" cy="757" r="8.03"/>
  <circle class="st0" cx="522.65" cy="789.54" r="11.59"/>
  <circle class="st0" cx="569.02" cy="752.09" r="8.92"/>
  <circle class="st0" cx="542.27" cy="828.78" r="8.92"/>
  <circle class="st0" cx="630.54" cy="789.54" r="11.59"/>
  <circle class="st0" cx="624.75" cy="713.31" r="9.36"/>
  <circle class="st0" cx="617.84" cy="750.09" r="6.91"/>
  <circle class="st0" cx="683.38" cy="771.04" r="10.03"/>
  <circle class="st0" cx="719.71" cy="843.04" r="22.29"/>
  <circle class="st0" cx="697.42" cy="806.04" r="4.9"/>
  <circle class="st0" cx="683.38" cy="828.78" r="4.9"/>
  <circle class="st0" cx="673.34" cy="752.09" r="2.95"/>
  <circle class="st0" cx="866.73" cy="599.5" r="2.95"/>
  <circle class="st0" cx="583.34" cy="865.39" r="5.41"/>
  <circle class="st0" cx="577.93" cy="728.85" r="5.41"/>
  <circle class="st0" cx="612.93" cy="845.5" r="2.45"/>
  <circle class="st0" cx="669.44" cy="859.99" r="2.45"/>
  <circle class="st0" cx="569.02" cy="783.53" r="2.45"/>
  <circle class="st0" cx="542.71" cy="758.95" r="2.45"/>
  <circle class="st0" cx="659.97" cy="799.35" r="1.78"/>
  <circle class="st0" cx="594.65" cy="783.53" r="1.78"/>
  <circle class="st0" cx="586.29" cy="690.29" r="1.78"/>
  <circle class="st0" cx="892.36" cy="879.66" r="10.03"/>
  <circle class="st0" cx="892.36" cy="824.32" r="4.9"/>
  <circle class="st0" cx="757.16" cy="862.49" r="5.91"/>
  <circle class="st0" cx="797.18" cy="841.43" r="13.38"/>
  <circle class="st0" cx="851.79" cy="846.83" r="10.03"/>
  <circle class="st0" cx="865.84" cy="878.1" r="4.9"/>
  <circle class="st0" cx="834.91" cy="865.45" r="2.95"/>
  <circle class="st0" cx="802.53" cy="875.15" r="2.95"/>
  <circle class="st0" cx="773.99" cy="846.83" r="5.41"/>
  <circle class="st0" cx="836.52" cy="516.63" r="5.91"/>
  <circle class="st0" cx="878.93" cy="555.53" r="5.91"/>
  <circle class="st0" cx="876.54" cy="495.57" r="13.38"/>
  <circle class="st0" cx="825.71" cy="552.64" r="16.94"/>
  <circle class="st0" cx="858.26" cy="562.89" r="4.9"/>
  <circle class="st0" cx="881.89" cy="529.28" r="2.95"/>
  <circle class="st0" cx="853.35" cy="500.97" r="5.41"/>
  <circle class="st0" cx="830.61" cy="472.16" r="5.41"/>
  <circle class="st0" cx="898.27" cy="737.32" r="5.91"/>
  <circle class="st0" cx="898.27" cy="656.07" r="5.91"/>
  <circle class="st0" cx="887.46" cy="773.33" r="16.94"/>
  <circle class="st0" cx="874.31" cy="413.81" r="5.91"/>
  <circle class="st0" cx="863.5" cy="449.81" r="16.94"/>
  <circle class="st0" cx="896.04" cy="460.07" r="4.9"/>
  <circle class="st0" cx="891.14" cy="398.15" r="5.41"/>
</svg>