<?xml version="1.0" encoding="UTF-8"?>
<svg id="Layer_1" xmlns="http://www.w3.org/2000/svg" version="1.1" viewBox="0 0 1815.7 1815.7">
  <!-- Generator: Adobe Illustrator 29.1.0, SVG Export Plug-In . SVG Version: 2.1.0 Build 142)  -->
  <rect x="-5.3" y="-4.8" width="1826.5" height="1826.5" fill="#fed700"/>
  <circle cx="7.8" cy="313.7" r="10" fill="#fff" opacity=".5"/>
  <circle cx="421.2" cy="311.3" r="15.5" fill="#fff" opacity=".5"/>
  <circle cx="506" cy="302.2" r="15.5" fill="#fff" opacity=".5"/>
  <circle cx="552.6" cy="232.8" r="46.5" fill="#fff" opacity=".5"/>
  <circle cx="564.7" cy="408.2" r="12.1" fill="#fff" opacity=".5"/>
  <circle cx="651.5" cy="487.9" r="12.1" fill="#fff" opacity=".5"/>
  <circle cx="646.6" cy="365.1" r="27.4" fill="#fff" opacity=".5"/>
  <circle cx="690.4" cy="262.9" r="16.4" fill="#fff" opacity=".5"/>
  <circle cx="469.5" cy="355.7" r="16.4" fill="#fff" opacity=".5"/>
  <circle cx="663" cy="116" r="16.4" fill="#fff" opacity=".5"/>
  <circle cx="429.4" cy="182.6" r="23.7" fill="#fff" opacity=".5"/>
  <circle cx="524.3" cy="106" r="18.3" fill="#fff" opacity=".5"/>
  <circle cx="469.5" cy="262.9" r="18.3" fill="#fff" opacity=".5"/>
  <circle cx="650.2" cy="182.6" r="23.7" fill="#fff" opacity=".5"/>
  <circle cx="638.4" cy="26.6" r="19.2" fill="#fff" opacity=".5"/>
  <circle cx="624.2" cy="101.8" r="14.1" fill="#fff" opacity=".5"/>
  <circle cx="758.4" cy="144.7" r="20.5" fill="#fff" opacity=".5"/>
  <circle cx="758.4" cy="376.2" r="20.5" fill="#fff" opacity=".5"/>
  <circle cx="832.7" cy="292.1" r="45.6" fill="#fff" opacity=".5"/>
  <circle cx="752.4" cy="516.6" r="34.7" fill="#fff" opacity=".5"/>
  <circle cx="542.5" cy="481.9" r="34.7" fill="#fff" opacity=".5"/>
  <circle cx="609.2" cy="502.9" r="10" fill="#fff" opacity=".5"/>
  <circle cx="787.1" cy="440.2" r="10" fill="#fff" opacity=".5"/>
  <circle cx="787.1" cy="216.4" r="10" fill="#fff" opacity=".5"/>
  <circle cx="758.4" cy="262.9" r="10" fill="#fff" opacity=".5"/>
  <circle cx="723.8" cy="414.3" r="6" fill="#fff" opacity=".5"/>
  <circle cx="657.5" cy="434.1" r="6" fill="#fff" opacity=".5"/>
  <circle cx="737.8" cy="106" r="6" fill="#fff" opacity=".5"/>
  <circle cx="553.6" cy="337.9" r="11.1" fill="#fff" opacity=".5"/>
  <circle cx="599.1" cy="376.2" r="11.1" fill="#fff" opacity=".5"/>
  <circle cx="542.5" cy="58.4" r="11.1" fill="#fff" opacity=".5"/>
  <circle cx="614.2" cy="297.1" r="5" fill="#fff" opacity=".5"/>
  <circle cx="729.8" cy="326.8" r="5" fill="#fff" opacity=".5"/>
  <circle cx="524.3" cy="170.3" r="5" fill="#fff" opacity=".5"/>
  <circle cx="710.5" cy="202.7" r="3.7" fill="#fff" opacity=".5"/>
  <circle cx="576.8" cy="170.3" r="3.7" fill="#fff" opacity=".5"/>
  <circle cx="873.1" cy="101.6" r="12.1" fill="#fff" opacity=".5"/>
  <circle cx="959.9" cy="181.2" r="12.1" fill="#fff" opacity=".5"/>
  <circle cx="955" cy="58.5" r="27.4" fill="#fff" opacity=".5"/>
  <circle cx="778" cy="49" r="16.4" fill="#fff" opacity=".5"/>
  <circle cx="1066.8" cy="69.6" r="20.5" fill="#fff" opacity=".5"/>
  <circle cx="1060.9" cy="210" r="34.7" fill="#fff" opacity=".5"/>
  <circle cx="851" cy="175.3" r="34.7" fill="#fff" opacity=".5"/>
  <circle cx="917.6" cy="196.3" r="10" fill="#fff" opacity=".5"/>
  <circle cx="1095.6" cy="133.6" r="10" fill="#fff" opacity=".5"/>
  <circle cx="1032.2" cy="107.7" r="6" fill="#fff" opacity=".5"/>
  <circle cx="966" cy="127.5" r="6" fill="#fff" opacity=".5"/>
  <circle cx="862.1" cy="31.2" r="11.1" fill="#fff" opacity=".5"/>
  <circle cx="907.6" cy="69.6" r="11.1" fill="#fff" opacity=".5"/>
  <circle cx="1038.3" cy="20.2" r="5" fill="#fff" opacity=".5"/>
  <circle cx="452.4" cy="98.1" r="3.7" fill="#fff" opacity=".5"/>
  <circle cx="846" cy="580.3" r="15.5" fill="#fff" opacity=".5"/>
  <circle cx="930.8" cy="571.1" r="15.5" fill="#fff" opacity=".5"/>
  <circle cx="977.4" cy="501.8" r="46.5" fill="#fff" opacity=".5"/>
  <circle cx="989.5" cy="677.2" r="12.1" fill="#fff" opacity=".5"/>
  <circle cx="1076.3" cy="756.8" r="12.1" fill="#fff" opacity=".5"/>
  <circle cx="1071.4" cy="634.1" r="27.4" fill="#fff" opacity=".5"/>
  <circle cx="1115.2" cy="531.9" r="16.4" fill="#fff" opacity=".5"/>
  <circle cx="894.3" cy="624.6" r="16.4" fill="#fff" opacity=".5"/>
  <circle cx="1087.8" cy="385" r="16.4" fill="#fff" opacity=".5"/>
  <circle cx="854.2" cy="451.6" r="23.7" fill="#fff" opacity=".5"/>
  <circle cx="949.1" cy="374.9" r="18.3" fill="#fff" opacity=".5"/>
  <circle cx="894.3" cy="531.9" r="18.3" fill="#fff" opacity=".5"/>
  <circle cx="1075" cy="451.6" r="23.7" fill="#fff" opacity=".5"/>
  <circle cx="982.4" cy="262.9" r="23.7" fill="#fff" opacity=".5"/>
  <circle cx="1063.2" cy="295.5" r="19.2" fill="#fff" opacity=".5"/>
  <circle cx="1049" cy="370.8" r="14.1" fill="#fff" opacity=".5"/>
  <circle cx="1183.2" cy="413.7" r="20.5" fill="#fff" opacity=".5"/>
  <circle cx="876.1" cy="374.9" r="20.5" fill="#fff" opacity=".5"/>
  <circle cx="1183.2" cy="645.2" r="20.5" fill="#fff" opacity=".5"/>
  <circle cx="1257.5" cy="561.1" r="45.6" fill="#fff" opacity=".5"/>
  <circle cx="1177.2" cy="785.6" r="34.7" fill="#fff" opacity=".5"/>
  <circle cx="967.3" cy="750.9" r="34.7" fill="#fff" opacity=".5"/>
  <circle cx="1034" cy="771.9" r="10" fill="#fff" opacity=".5"/>
  <circle cx="1211.9" cy="709.2" r="10" fill="#fff" opacity=".5"/>
  <circle cx="1211.9" cy="485.4" r="10" fill="#fff" opacity=".5"/>
  <circle cx="1183.2" cy="531.9" r="10" fill="#fff" opacity=".5"/>
  <circle cx="1148.6" cy="683.3" r="6" fill="#fff" opacity=".5"/>
  <circle cx="1082.3" cy="703.1" r="6" fill="#fff" opacity=".5"/>
  <circle cx="1162.6" cy="374.9" r="6" fill="#fff" opacity=".5"/>
  <circle cx="978.4" cy="606.8" r="11.1" fill="#fff" opacity=".5"/>
  <circle cx="1023.9" cy="645.2" r="11.1" fill="#fff" opacity=".5"/>
  <circle cx="967.3" cy="327.4" r="11.1" fill="#fff" opacity=".5"/>
  <circle cx="1039" cy="566.1" r="5" fill="#fff" opacity=".5"/>
  <circle cx="1154.6" cy="595.8" r="5" fill="#fff" opacity=".5"/>
  <circle cx="949.1" cy="439.3" r="5" fill="#fff" opacity=".5"/>
  <circle cx="1135.3" cy="471.7" r="3.7" fill="#fff" opacity=".5"/>
  <circle cx="918.5" cy="302.2" r="3.7" fill="#fff" opacity=".5"/>
  <circle cx="1001.6" cy="439.3" r="3.7" fill="#fff" opacity=".5"/>
  <circle cx="1158.1" cy="244.1" r="15.5" fill="#fff" opacity=".5"/>
  <circle cx="1242.9" cy="235" r="15.5" fill="#fff" opacity=".5"/>
  <circle cx="1289.5" cy="165.6" r="46.5" fill="#fff" opacity=".5"/>
  <circle cx="1301.6" cy="341.1" r="12.1" fill="#fff" opacity=".5"/>
  <circle cx="1388.4" cy="420.7" r="12.1" fill="#fff" opacity=".5"/>
  <circle cx="1383.5" cy="297.9" r="27.4" fill="#fff" opacity=".5"/>
  <circle cx="1427.3" cy="195.7" r="16.4" fill="#fff" opacity=".5"/>
  <circle cx="1206.4" cy="288.5" r="16.4" fill="#fff" opacity=".5"/>
  <circle cx="1399.9" cy="48.8" r="16.4" fill="#fff" opacity=".5"/>
  <circle cx="1166.3" cy="115.4" r="23.7" fill="#fff" opacity=".5"/>
  <circle cx="1261.2" cy="38.8" r="18.3" fill="#fff" opacity=".5"/>
  <circle cx="1206.4" cy="195.7" r="18.3" fill="#fff" opacity=".5"/>
  <circle cx="1387.1" cy="115.4" r="23.7" fill="#fff" opacity=".5"/>
  <circle cx="1361.1" cy="34.7" r="14.1" fill="#fff" opacity=".5"/>
  <circle cx="1495.3" cy="77.5" r="20.5" fill="#fff" opacity=".5"/>
  <circle cx="1495.3" cy="309" r="20.5" fill="#fff" opacity=".5"/>
  <circle cx="1569.6" cy="224.9" r="45.6" fill="#fff" opacity=".5"/>
  <circle cx="1489.3" cy="449.4" r="34.7" fill="#fff" opacity=".5"/>
  <circle cx="1279.4" cy="414.7" r="34.7" fill="#fff" opacity=".5"/>
  <circle cx="1346.1" cy="435.7" r="10" fill="#fff" opacity=".5"/>
  <circle cx="1524" cy="373" r="10" fill="#fff" opacity=".5"/>
  <circle cx="1524" cy="149.2" r="10" fill="#fff" opacity=".5"/>
  <circle cx="1495.3" cy="195.7" r="10" fill="#fff" opacity=".5"/>
  <circle cx="1460.7" cy="347.1" r="6" fill="#fff" opacity=".5"/>
  <circle cx="1394.4" cy="366.9" r="6" fill="#fff" opacity=".5"/>
  <circle cx="1474.7" cy="38.8" r="6" fill="#fff" opacity=".5"/>
  <circle cx="1290.5" cy="270.7" r="11.1" fill="#fff" opacity=".5"/>
  <circle cx="1336" cy="309" r="11.1" fill="#fff" opacity=".5"/>
  <circle cx="1279.4" cy="-8.8" r="11.1" fill="#fff" opacity=".5"/>
  <circle cx="1351.1" cy="229.9" r="5" fill="#fff" opacity=".5"/>
  <circle cx="1466.8" cy="259.6" r="5" fill="#fff" opacity=".5"/>
  <circle cx="1261.2" cy="103.1" r="5" fill="#fff" opacity=".5"/>
  <circle cx="1447.4" cy="135.5" r="3.7" fill="#fff" opacity=".5"/>
  <circle cx="1313.7" cy="103.1" r="3.7" fill="#fff" opacity=".5"/>
  <circle cx="1610" cy="34.4" r="12.1" fill="#fff" opacity=".5"/>
  <circle cx="1696.8" cy="114.1" r="12.1" fill="#fff" opacity=".5"/>
  <circle cx="1797.8" cy="142.8" r="34.7" fill="#fff" opacity=".5"/>
  <circle cx="1587.9" cy="108.1" r="34.7" fill="#fff" opacity=".5"/>
  <circle cx="1654.5" cy="129.1" r="10" fill="#fff" opacity=".5"/>
  <circle cx="1832.5" cy="66.4" r="10" fill="#fff" opacity=".5"/>
  <circle cx="1769.2" cy="40.5" r="6" fill="#fff" opacity=".5"/>
  <circle cx="1702.9" cy="60.3" r="6" fill="#fff" opacity=".5"/>
  <circle cx="1644.5" cy="2.4" r="11.1" fill="#fff" opacity=".5"/>
  <circle cx="1582.9" cy="513.1" r="15.5" fill="#fff" opacity=".5"/>
  <circle cx="1667.7" cy="504" r="15.5" fill="#fff" opacity=".5"/>
  <circle cx="1714.3" cy="434.6" r="46.5" fill="#fff" opacity=".5"/>
  <circle cx="1726.4" cy="610" r="12.1" fill="#fff" opacity=".5"/>
  <circle cx="1813.2" cy="689.7" r="12.1" fill="#fff" opacity=".5"/>
  <circle cx="1808.3" cy="566.9" r="27.4" fill="#fff" opacity=".5"/>
  <circle cx="1852.1" cy="464.7" r="16.4" fill="#fff" opacity=".5"/>
  <circle cx="1631.2" cy="557.5" r="16.4" fill="#fff" opacity=".5"/>
  <circle cx="1824.7" cy="317.8" r="16.4" fill="#fff" opacity=".5"/>
  <circle cx="1591.1" cy="384.4" r="23.7" fill="#fff" opacity=".5"/>
  <circle cx="1686" cy="307.7" r="18.3" fill="#fff" opacity=".5"/>
  <circle cx="1631.2" cy="464.7" r="18.3" fill="#fff" opacity=".5"/>
  <circle cx="1811.9" cy="384.4" r="23.7" fill="#fff" opacity=".5"/>
  <circle cx="1719.3" cy="195.7" r="23.7" fill="#fff" opacity=".5"/>
  <circle cx="1800.1" cy="228.4" r="19.2" fill="#fff" opacity=".5"/>
  <circle cx="1785.9" cy="303.6" r="14.1" fill="#fff" opacity=".5"/>
  <circle cx="1613" cy="307.7" r="20.5" fill="#fff" opacity=".5"/>
  <circle cx="1704.3" cy="683.7" r="34.7" fill="#fff" opacity=".5"/>
  <circle cx="1356.1" cy="515.5" r="34.7" fill="#fff" opacity=".5"/>
  <circle cx="1770.9" cy="704.7" r="10" fill="#fff" opacity=".5"/>
  <circle cx="1819.2" cy="635.9" r="6" fill="#fff" opacity=".5"/>
  <circle cx="1715.3" cy="539.7" r="11.1" fill="#fff" opacity=".5"/>
  <circle cx="1760.8" cy="578" r="11.1" fill="#fff" opacity=".5"/>
  <circle cx="1704.3" cy="260.2" r="11.1" fill="#fff" opacity=".5"/>
  <circle cx="1775.9" cy="498.9" r="5" fill="#fff" opacity=".5"/>
  <circle cx="1686" cy="372.1" r="5" fill="#fff" opacity=".5"/>
  <circle cx="1655.4" cy="235" r="3.7" fill="#fff" opacity=".5"/>
  <circle cx="1738.5" cy="372.1" r="3.7" fill="#fff" opacity=".5"/>
  <circle cx="961.9" cy="1169.8" r="15.5" fill="#fff" opacity=".5"/>
  <circle cx="1046.7" cy="1160.7" r="15.5" fill="#fff" opacity=".5"/>
  <circle cx="1093.3" cy="1091.3" r="46.5" fill="#fff" opacity=".5"/>
  <circle cx="1105.4" cy="1266.8" r="12.1" fill="#fff" opacity=".5"/>
  <circle cx="1192.2" cy="1346.4" r="12.1" fill="#fff" opacity=".5"/>
  <circle cx="1187.3" cy="1223.6" r="27.4" fill="#fff" opacity=".5"/>
  <circle cx="1231.1" cy="1121.4" r="16.4" fill="#fff" opacity=".5"/>
  <circle cx="1010.2" cy="1214.2" r="16.4" fill="#fff" opacity=".5"/>
  <circle cx="1203.7" cy="974.5" r="16.4" fill="#fff" opacity=".5"/>
  <circle cx="970.1" cy="1041.1" r="23.7" fill="#fff" opacity=".5"/>
  <circle cx="1065" cy="964.5" r="18.3" fill="#fff" opacity=".5"/>
  <circle cx="1010.2" cy="1121.4" r="18.3" fill="#fff" opacity=".5"/>
  <circle cx="1190.9" cy="1041.1" r="23.7" fill="#fff" opacity=".5"/>
  <circle cx="1179.1" cy="885.1" r="19.2" fill="#fff" opacity=".5"/>
  <circle cx="1164.9" cy="960.4" r="14.1" fill="#fff" opacity=".5"/>
  <circle cx="1299.1" cy="1003.2" r="20.5" fill="#fff" opacity=".5"/>
  <circle cx="1299.1" cy="1234.7" r="20.5" fill="#fff" opacity=".5"/>
  <circle cx="1373.4" cy="1150.6" r="45.6" fill="#fff" opacity=".5"/>
  <circle cx="1293.1" cy="1375.1" r="34.7" fill="#fff" opacity=".5"/>
  <circle cx="1083.2" cy="1340.4" r="34.7" fill="#fff" opacity=".5"/>
  <circle cx="1149.9" cy="1361.4" r="10" fill="#fff" opacity=".5"/>
  <circle cx="1327.8" cy="1298.7" r="10" fill="#fff" opacity=".5"/>
  <circle cx="1327.8" cy="1074.9" r="10" fill="#fff" opacity=".5"/>
  <circle cx="1299.1" cy="1121.4" r="10" fill="#fff" opacity=".5"/>
  <circle cx="1264.5" cy="1272.8" r="6" fill="#fff" opacity=".5"/>
  <circle cx="1198.2" cy="1292.6" r="6" fill="#fff" opacity=".5"/>
  <circle cx="1278.5" cy="964.5" r="6" fill="#fff" opacity=".5"/>
  <circle cx="1094.3" cy="1196.4" r="11.1" fill="#fff" opacity=".5"/>
  <circle cx="1139.8" cy="1234.7" r="11.1" fill="#fff" opacity=".5"/>
  <circle cx="1083.2" cy="916.9" r="11.1" fill="#fff" opacity=".5"/>
  <circle cx="1006.1" cy="961.7" r="11.1" fill="#fff" opacity=".5"/>
  <circle cx="1112.2" cy="865" r="11.1" fill="#fff" opacity=".5"/>
  <circle cx="1154.9" cy="1155.6" r="5" fill="#fff" opacity=".5"/>
  <circle cx="1270.5" cy="1185.3" r="5" fill="#fff" opacity=".5"/>
  <circle cx="1065" cy="1028.8" r="5" fill="#fff" opacity=".5"/>
  <circle cx="1251.2" cy="1061.2" r="3.7" fill="#fff" opacity=".5"/>
  <circle cx="1117.5" cy="1028.8" r="3.7" fill="#fff" opacity=".5"/>
  <circle cx="1270.3" cy="863.2" r="15.5" fill="#fff" opacity=".5"/>
  <circle cx="1355.2" cy="854" r="15.5" fill="#fff" opacity=".5"/>
  <circle cx="1401.7" cy="784.7" r="46.5" fill="#fff" opacity=".5"/>
  <circle cx="1413.8" cy="960.1" r="12.1" fill="#fff" opacity=".5"/>
  <circle cx="1500.6" cy="1039.7" r="12.1" fill="#fff" opacity=".5"/>
  <circle cx="1495.7" cy="917" r="27.4" fill="#fff" opacity=".5"/>
  <circle cx="1539.5" cy="814.8" r="16.4" fill="#fff" opacity=".5"/>
  <circle cx="1318.7" cy="907.5" r="16.4" fill="#fff" opacity=".5"/>
  <circle cx="1512.2" cy="667.9" r="16.4" fill="#fff" opacity=".5"/>
  <circle cx="1278.5" cy="734.5" r="23.7" fill="#fff" opacity=".5"/>
  <circle cx="1373.4" cy="657.8" r="18.3" fill="#fff" opacity=".5"/>
  <circle cx="1318.7" cy="814.8" r="18.3" fill="#fff" opacity=".5"/>
  <circle cx="1279.4" cy="657.5" r="18.3" fill="#fff" opacity=".5"/>
  <circle cx="1499.4" cy="734.5" r="23.7" fill="#fff" opacity=".5"/>
  <circle cx="1487.5" cy="578.4" r="19.2" fill="#fff" opacity=".5"/>
  <circle cx="1473.4" cy="653.7" r="14.1" fill="#fff" opacity=".5"/>
  <circle cx="1607.5" cy="696.6" r="20.5" fill="#fff" opacity=".5"/>
  <circle cx="1607.5" cy="928.1" r="20.5" fill="#fff" opacity=".5"/>
  <circle cx="1681.9" cy="844" r="45.6" fill="#fff" opacity=".5"/>
  <circle cx="1601.6" cy="1068.5" r="34.7" fill="#fff" opacity=".5"/>
  <circle cx="1391.7" cy="1033.8" r="34.7" fill="#fff" opacity=".5"/>
  <circle cx="1458.3" cy="1054.8" r="10" fill="#fff" opacity=".5"/>
  <circle cx="1636.3" cy="992.1" r="10" fill="#fff" opacity=".5"/>
  <circle cx="1768.6" cy="775.7" r="10" fill="#fff" opacity=".5"/>
  <circle cx="1636.3" cy="768.3" r="10" fill="#fff" opacity=".5"/>
  <circle cx="1607.5" cy="814.8" r="10" fill="#fff" opacity=".5"/>
  <circle cx="1573" cy="966.2" r="6" fill="#fff" opacity=".5"/>
  <circle cx="1506.7" cy="986" r="6" fill="#fff" opacity=".5"/>
  <circle cx="1587" cy="657.8" r="6" fill="#fff" opacity=".5"/>
  <circle cx="1547.5" cy="617.9" r="6" fill="#fff" opacity=".5"/>
  <circle cx="1531.3" cy="545.5" r="6" fill="#fff" opacity=".5"/>
  <circle cx="1402.8" cy="889.7" r="11.1" fill="#fff" opacity=".5"/>
  <circle cx="1448.3" cy="928.1" r="11.1" fill="#fff" opacity=".5"/>
  <circle cx="1391.7" cy="610.3" r="11.1" fill="#fff" opacity=".5"/>
  <circle cx="1463.3" cy="849" r="5" fill="#fff" opacity=".5"/>
  <circle cx="1579" cy="878.7" r="5" fill="#fff" opacity=".5"/>
  <circle cx="1373.4" cy="722.2" r="5" fill="#fff" opacity=".5"/>
  <circle cx="1345.4" cy="597.6" r="5" fill="#fff" opacity=".5"/>
  <circle cx="1559.6" cy="754.6" r="3.7" fill="#fff" opacity=".5"/>
  <circle cx="1585" cy="590" r="3.7" fill="#fff" opacity=".5"/>
  <circle cx="1693.2" cy="590.8" r="3.7" fill="#fff" opacity=".5"/>
  <circle cx="1425.9" cy="722.2" r="3.7" fill="#fff" opacity=".5"/>
  <circle cx="1447.4" cy="515.5" r="3.7" fill="#fff" opacity=".5"/>
  <circle cx="1386.7" cy="1438.8" r="15.5" fill="#fff" opacity=".5"/>
  <circle cx="1471.5" cy="1429.6" r="15.5" fill="#fff" opacity=".5"/>
  <circle cx="1518.1" cy="1360.3" r="46.5" fill="#fff" opacity=".5"/>
  <circle cx="1530.2" cy="1535.7" r="12.1" fill="#fff" opacity=".5"/>
  <circle cx="1617" cy="1615.4" r="12.1" fill="#fff" opacity=".5"/>
  <circle cx="1612.1" cy="1492.6" r="27.4" fill="#fff" opacity=".5"/>
  <circle cx="1655.9" cy="1390.4" r="16.4" fill="#fff" opacity=".5"/>
  <circle cx="1435" cy="1483.2" r="16.4" fill="#fff" opacity=".5"/>
  <circle cx="1628.5" cy="1243.5" r="16.4" fill="#fff" opacity=".5"/>
  <circle cx="1394.9" cy="1310.1" r="23.7" fill="#fff" opacity=".5"/>
  <circle cx="1489.8" cy="1233.4" r="18.3" fill="#fff" opacity=".5"/>
  <circle cx="1435" cy="1390.4" r="18.3" fill="#fff" opacity=".5"/>
  <circle cx="1615.7" cy="1310.1" r="23.7" fill="#fff" opacity=".5"/>
  <circle cx="1523.1" cy="1121.4" r="23.7" fill="#fff" opacity=".5"/>
  <circle cx="1603.9" cy="1154.1" r="19.2" fill="#fff" opacity=".5"/>
  <circle cx="1589.7" cy="1229.3" r="14.1" fill="#fff" opacity=".5"/>
  <circle cx="1723.9" cy="1272.2" r="20.5" fill="#fff" opacity=".5"/>
  <circle cx="1416.8" cy="1233.4" r="20.5" fill="#fff" opacity=".5"/>
  <circle cx="1723.9" cy="1503.7" r="20.5" fill="#fff" opacity=".5"/>
  <circle cx="1798.2" cy="1419.6" r="45.6" fill="#fff" opacity=".5"/>
  <circle cx="1717.9" cy="1644.1" r="34.7" fill="#fff" opacity=".5"/>
  <circle cx="1508" cy="1609.4" r="34.7" fill="#fff" opacity=".5"/>
  <circle cx="1574.7" cy="1630.4" r="10" fill="#fff" opacity=".5"/>
  <circle cx="1752.6" cy="1567.7" r="10" fill="#fff" opacity=".5"/>
  <circle cx="1752.6" cy="1343.9" r="10" fill="#fff" opacity=".5"/>
  <circle cx="1723.9" cy="1390.4" r="10" fill="#fff" opacity=".5"/>
  <circle cx="1813.2" cy="1301.4" r="10" fill="#fff" opacity=".5"/>
  <circle cx="1689.3" cy="1541.8" r="6" fill="#fff" opacity=".5"/>
  <circle cx="1623" cy="1561.6" r="6" fill="#fff" opacity=".5"/>
  <circle cx="1703.3" cy="1233.4" r="6" fill="#fff" opacity=".5"/>
  <circle cx="1519.1" cy="1465.4" r="11.1" fill="#fff" opacity=".5"/>
  <circle cx="1564.6" cy="1503.7" r="11.1" fill="#fff" opacity=".5"/>
  <circle cx="1508" cy="1185.9" r="11.1" fill="#fff" opacity=".5"/>
  <circle cx="1579.7" cy="1424.6" r="5" fill="#fff" opacity=".5"/>
  <circle cx="1695.4" cy="1454.3" r="5" fill="#fff" opacity=".5"/>
  <circle cx="1489.8" cy="1297.8" r="5" fill="#fff" opacity=".5"/>
  <circle cx="1676" cy="1330.2" r="3.7" fill="#fff" opacity=".5"/>
  <circle cx="1459.2" cy="1160.7" r="3.7" fill="#fff" opacity=".5"/>
  <circle cx="1542.3" cy="1297.8" r="3.7" fill="#fff" opacity=".5"/>
  <circle cx="224.3" cy="1215.1" r="15.5" fill="#fff" opacity=".5"/>
  <circle cx="309.1" cy="1206" r="15.5" fill="#fff" opacity=".5"/>
  <circle cx="355.7" cy="1136.6" r="46.5" fill="#fff" opacity=".5"/>
  <circle cx="367.8" cy="1312" r="12.1" fill="#fff" opacity=".5"/>
  <circle cx="454.6" cy="1391.7" r="12.1" fill="#fff" opacity=".5"/>
  <circle cx="449.7" cy="1268.9" r="27.4" fill="#fff" opacity=".5"/>
  <circle cx="493.5" cy="1166.7" r="16.4" fill="#fff" opacity=".5"/>
  <circle cx="272.6" cy="1259.5" r="16.4" fill="#fff" opacity=".5"/>
  <circle cx="466.1" cy="1019.8" r="16.4" fill="#fff" opacity=".5"/>
  <circle cx="232.5" cy="1086.4" r="23.7" fill="#fff" opacity=".5"/>
  <circle cx="327.4" cy="1009.7" r="18.3" fill="#fff" opacity=".5"/>
  <circle cx="251.4" cy="1009.7" r="18.3" fill="#fff" opacity=".5"/>
  <circle cx="272.6" cy="1166.7" r="18.3" fill="#fff" opacity=".5"/>
  <circle cx="453.3" cy="1086.4" r="23.7" fill="#fff" opacity=".5"/>
  <circle cx="441.5" cy="930.4" r="19.2" fill="#fff" opacity=".5"/>
  <circle cx="427.3" cy="1005.6" r="14.1" fill="#fff" opacity=".5"/>
  <circle cx="381" cy="928.1" r="14.1" fill="#fff" opacity=".5"/>
  <circle cx="561.5" cy="1048.5" r="20.5" fill="#fff" opacity=".5"/>
  <circle cx="561.5" cy="1280" r="20.5" fill="#fff" opacity=".5"/>
  <circle cx="635.8" cy="1195.9" r="45.6" fill="#fff" opacity=".5"/>
  <circle cx="555.5" cy="1420.4" r="34.7" fill="#fff" opacity=".5"/>
  <circle cx="345.6" cy="1385.7" r="34.7" fill="#fff" opacity=".5"/>
  <circle cx="412.3" cy="1406.7" r="10" fill="#fff" opacity=".5"/>
  <circle cx="590.2" cy="1344" r="10" fill="#fff" opacity=".5"/>
  <circle cx="590.2" cy="1120.2" r="10" fill="#fff" opacity=".5"/>
  <circle cx="561.5" cy="1166.7" r="10" fill="#fff" opacity=".5"/>
  <circle cx="526.9" cy="1318.1" r="6" fill="#fff" opacity=".5"/>
  <circle cx="478.5" cy="1484.1" r="6" fill="#fff" opacity=".5"/>
  <circle cx="460.6" cy="1337.9" r="6" fill="#fff" opacity=".5"/>
  <circle cx="540.9" cy="1009.7" r="6" fill="#fff" opacity=".5"/>
  <circle cx="356.7" cy="1241.7" r="11.1" fill="#fff" opacity=".5"/>
  <circle cx="402.2" cy="1280" r="11.1" fill="#fff" opacity=".5"/>
  <circle cx="345.6" cy="962.2" r="11.1" fill="#fff" opacity=".5"/>
  <circle cx="300.7" cy="930.4" r="11.1" fill="#fff" opacity=".5"/>
  <circle cx="417.3" cy="1200.9" r="5" fill="#fff" opacity=".5"/>
  <circle cx="533" cy="1230.6" r="5" fill="#fff" opacity=".5"/>
  <circle cx="327.4" cy="1074.1" r="5" fill="#fff" opacity=".5"/>
  <circle cx="513.6" cy="1106.5" r="3.7" fill="#fff" opacity=".5"/>
  <circle cx="379.9" cy="1074.1" r="3.7" fill="#fff" opacity=".5"/>
  <circle cx="532.7" cy="908.5" r="15.5" fill="#fff" opacity=".5"/>
  <circle cx="617.6" cy="899.3" r="15.5" fill="#fff" opacity=".5"/>
  <circle cx="664.1" cy="830" r="46.5" fill="#fff" opacity=".5"/>
  <circle cx="676.2" cy="1005.4" r="12.1" fill="#fff" opacity=".5"/>
  <circle cx="763" cy="1085" r="12.1" fill="#fff" opacity=".5"/>
  <circle cx="758.1" cy="962.3" r="27.4" fill="#fff" opacity=".5"/>
  <circle cx="801.9" cy="860.1" r="16.4" fill="#fff" opacity=".5"/>
  <circle cx="581.1" cy="952.8" r="16.4" fill="#fff" opacity=".5"/>
  <circle cx="774.6" cy="713.2" r="16.4" fill="#fff" opacity=".5"/>
  <circle cx="664.1" cy="606.4" r="16.4" fill="#fff" opacity=".5"/>
  <circle cx="345" cy="871" r="16.4" fill="#fff" opacity=".5"/>
  <circle cx="540.9" cy="779.8" r="23.7" fill="#fff" opacity=".5"/>
  <circle cx="561.5" cy="691.8" r="23.7" fill="#fff" opacity=".5"/>
  <circle cx="635.8" cy="703.1" r="18.3" fill="#fff" opacity=".5"/>
  <circle cx="600.3" cy="563.7" r="18.3" fill="#fff" opacity=".5"/>
  <circle cx="581.1" cy="860.1" r="18.3" fill="#fff" opacity=".5"/>
  <circle cx="761.8" cy="779.8" r="23.7" fill="#fff" opacity=".5"/>
  <circle cx="749.9" cy="623.7" r="19.2" fill="#fff" opacity=".5"/>
  <circle cx="735.8" cy="699" r="14.1" fill="#fff" opacity=".5"/>
  <circle cx="679.2" cy="548.3" r="14.1" fill="#fff" opacity=".5"/>
  <circle cx="869.9" cy="741.9" r="20.5" fill="#fff" opacity=".5"/>
  <circle cx="869.9" cy="973.4" r="20.5" fill="#fff" opacity=".5"/>
  <circle cx="944.3" cy="889.3" r="45.6" fill="#fff" opacity=".5"/>
  <circle cx="864" cy="1113.8" r="34.7" fill="#fff" opacity=".5"/>
  <circle cx="654.1" cy="1079.1" r="34.7" fill="#fff" opacity=".5"/>
  <circle cx="720.7" cy="1100.1" r="10" fill="#fff" opacity=".5"/>
  <circle cx="898.7" cy="1037.4" r="10" fill="#fff" opacity=".5"/>
  <circle cx="898.7" cy="813.5" r="10" fill="#fff" opacity=".5"/>
  <circle cx="869.9" cy="860.1" r="10" fill="#fff" opacity=".5"/>
  <circle cx="835.4" cy="1011.5" r="6" fill="#fff" opacity=".5"/>
  <circle cx="769.1" cy="1031.3" r="6" fill="#fff" opacity=".5"/>
  <circle cx="849.4" cy="703.1" r="6" fill="#fff" opacity=".5"/>
  <circle cx="665.2" cy="935" r="11.1" fill="#fff" opacity=".5"/>
  <circle cx="710.7" cy="973.4" r="11.1" fill="#fff" opacity=".5"/>
  <circle cx="654.1" cy="655.6" r="11.1" fill="#fff" opacity=".5"/>
  <circle cx="723.8" cy="589" r="11.1" fill="#fff" opacity=".5"/>
  <circle cx="725.7" cy="894.3" r="5" fill="#fff" opacity=".5"/>
  <circle cx="841.4" cy="924" r="5" fill="#fff" opacity=".5"/>
  <circle cx="635.8" cy="767.5" r="5" fill="#fff" opacity=".5"/>
  <circle cx="822" cy="799.9" r="3.7" fill="#fff" opacity=".5"/>
  <circle cx="688.3" cy="767.5" r="3.7" fill="#fff" opacity=".5"/>
  <circle cx="649.1" cy="1484.1" r="15.5" fill="#fff" opacity=".5"/>
  <circle cx="733.9" cy="1474.9" r="15.5" fill="#fff" opacity=".5"/>
  <circle cx="780.5" cy="1405.6" r="46.5" fill="#fff" opacity=".5"/>
  <circle cx="792.6" cy="1581" r="12.1" fill="#fff" opacity=".5"/>
  <circle cx="879.4" cy="1660.6" r="12.1" fill="#fff" opacity=".5"/>
  <circle cx="874.5" cy="1537.9" r="27.4" fill="#fff" opacity=".5"/>
  <circle cx="918.3" cy="1435.7" r="16.4" fill="#fff" opacity=".5"/>
  <circle cx="697.4" cy="1528.4" r="16.4" fill="#fff" opacity=".5"/>
  <circle cx="890.9" cy="1288.8" r="16.4" fill="#fff" opacity=".5"/>
  <circle cx="657.3" cy="1355.4" r="23.7" fill="#fff" opacity=".5"/>
  <circle cx="752.2" cy="1278.7" r="18.3" fill="#fff" opacity=".5"/>
  <circle cx="697.4" cy="1435.7" r="18.3" fill="#fff" opacity=".5"/>
  <circle cx="878.1" cy="1355.4" r="23.7" fill="#fff" opacity=".5"/>
  <circle cx="785.5" cy="1166.7" r="23.7" fill="#fff" opacity=".5"/>
  <circle cx="866.3" cy="1199.3" r="19.2" fill="#fff" opacity=".5"/>
  <circle cx="852.1" cy="1274.6" r="14.1" fill="#fff" opacity=".5"/>
  <circle cx="986.3" cy="1317.5" r="20.5" fill="#fff" opacity=".5"/>
  <circle cx="679.2" cy="1278.7" r="20.5" fill="#fff" opacity=".5"/>
  <circle cx="986.3" cy="1549" r="20.5" fill="#fff" opacity=".5"/>
  <circle cx="1060.7" cy="1464.9" r="45.6" fill="#fff" opacity=".5"/>
  <circle cx="980.3" cy="1689.4" r="34.7" fill="#fff" opacity=".5"/>
  <circle cx="770.5" cy="1654.7" r="34.7" fill="#fff" opacity=".5"/>
  <circle cx="837.1" cy="1675.7" r="10" fill="#fff" opacity=".5"/>
  <circle cx="1015" cy="1613" r="10" fill="#fff" opacity=".5"/>
  <circle cx="1149.9" cy="1445" r="10" fill="#fff" opacity=".5"/>
  <circle cx="1015" cy="1389.2" r="10" fill="#fff" opacity=".5"/>
  <circle cx="986.3" cy="1435.7" r="10" fill="#fff" opacity=".5"/>
  <circle cx="951.7" cy="1587.1" r="6" fill="#fff" opacity=".5"/>
  <circle cx="885.4" cy="1606.9" r="6" fill="#fff" opacity=".5"/>
  <circle cx="965.7" cy="1278.7" r="6" fill="#fff" opacity=".5"/>
  <circle cx="781.5" cy="1510.6" r="11.1" fill="#fff" opacity=".5"/>
  <circle cx="827" cy="1549" r="11.1" fill="#fff" opacity=".5"/>
  <circle cx="770.5" cy="1231.2" r="11.1" fill="#fff" opacity=".5"/>
  <circle cx="842.1" cy="1469.9" r="5" fill="#fff" opacity=".5"/>
  <circle cx="957.8" cy="1499.6" r="5" fill="#fff" opacity=".5"/>
  <circle cx="752.2" cy="1343.1" r="5" fill="#fff" opacity=".5"/>
  <circle cx="938.4" cy="1375.5" r="3.7" fill="#fff" opacity=".5"/>
  <circle cx="721.6" cy="1206" r="3.7" fill="#fff" opacity=".5"/>
  <circle cx="804.7" cy="1343.1" r="3.7" fill="#fff" opacity=".5"/>
  <circle cx="7.8" cy="195.5" r="20.5" fill="#fff" opacity=".5"/>
  <circle cx="7.8" cy="427" r="20.5" fill="#fff" opacity=".5"/>
  <circle cx="82.1" cy="342.9" r="45.6" fill="#fff" opacity=".5"/>
  <circle cx="1.8" cy="567.4" r="34.7" fill="#fff" opacity=".5"/>
  <circle cx="36.5" cy="490.9" r="10" fill="#fff" opacity=".5"/>
  <circle cx="36.5" cy="267.1" r="10" fill="#fff" opacity=".5"/>
  <circle cx="63.9" cy="46.3" r="15.5" fill="#fff" opacity=".5"/>
  <circle cx="122.5" cy="152.4" r="12.1" fill="#fff" opacity=".5"/>
  <circle cx="209.3" cy="232" r="12.1" fill="#fff" opacity=".5"/>
  <circle cx="204.4" cy="109.3" r="27.4" fill="#fff" opacity=".5"/>
  <circle cx="248.2" cy="7.1" r="16.4" fill="#fff" opacity=".5"/>
  <circle cx="27.4" cy="99.8" r="16.4" fill="#fff" opacity=".5"/>
  <circle cx="27.4" cy="7.1" r="18.3" fill="#fff" opacity=".5"/>
  <circle cx="316.2" cy="120.3" r="20.5" fill="#fff" opacity=".5"/>
  <circle cx="390.6" cy="36.3" r="45.6" fill="#fff" opacity=".5"/>
  <circle cx="310.3" cy="260.7" r="34.7" fill="#fff" opacity=".5"/>
  <circle cx="100.4" cy="226.1" r="34.7" fill="#fff" opacity=".5"/>
  <circle cx="167" cy="247.1" r="10" fill="#fff" opacity=".5"/>
  <circle cx="345" cy="184.3" r="10" fill="#fff" opacity=".5"/>
  <circle cx="316.2" cy="7.1" r="10" fill="#fff" opacity=".5"/>
  <circle cx="281.7" cy="158.4" r="6" fill="#fff" opacity=".5"/>
  <circle cx="215.4" cy="178.3" r="6" fill="#fff" opacity=".5"/>
  <circle cx="111.5" cy="82" r="11.1" fill="#fff" opacity=".5"/>
  <circle cx="157" cy="120.3" r="11.1" fill="#fff" opacity=".5"/>
  <circle cx="172" cy="41.3" r="5" fill="#fff" opacity=".5"/>
  <circle cx="287.7" cy="70.9" r="5" fill="#fff" opacity=".5"/>
  <circle cx="95.4" cy="631" r="15.5" fill="#fff" opacity=".5"/>
  <circle cx="180.2" cy="621.9" r="15.5" fill="#fff" opacity=".5"/>
  <circle cx="226.8" cy="552.5" r="46.5" fill="#fff" opacity=".5"/>
  <circle cx="238.9" cy="728" r="12.1" fill="#fff" opacity=".5"/>
  <circle cx="325.7" cy="807.6" r="12.1" fill="#fff" opacity=".5"/>
  <circle cx="320.8" cy="684.9" r="27.4" fill="#fff" opacity=".5"/>
  <circle cx="364.6" cy="582.7" r="16.4" fill="#fff" opacity=".5"/>
  <circle cx="143.7" cy="675.4" r="16.4" fill="#fff" opacity=".5"/>
  <circle cx="337.2" cy="435.7" r="16.4" fill="#fff" opacity=".5"/>
  <circle cx="103.6" cy="502.4" r="23.7" fill="#fff" opacity=".5"/>
  <circle cx="198.5" cy="425.7" r="18.3" fill="#fff" opacity=".5"/>
  <circle cx="143.7" cy="582.7" r="18.3" fill="#fff" opacity=".5"/>
  <circle cx="324.4" cy="502.4" r="23.7" fill="#fff" opacity=".5"/>
  <circle cx="231.8" cy="313.7" r="23.7" fill="#fff" opacity=".5"/>
  <circle cx="312.6" cy="346.3" r="19.2" fill="#fff" opacity=".5"/>
  <circle cx="298.4" cy="421.6" r="14.1" fill="#fff" opacity=".5"/>
  <circle cx="432.6" cy="464.5" r="20.5" fill="#fff" opacity=".5"/>
  <circle cx="125.5" cy="425.7" r="20.5" fill="#fff" opacity=".5"/>
  <circle cx="432.6" cy="695.9" r="20.5" fill="#fff" opacity=".5"/>
  <circle cx="506.9" cy="611.9" r="45.6" fill="#fff" opacity=".5"/>
  <circle cx="426.6" cy="836.4" r="34.7" fill="#fff" opacity=".5"/>
  <circle cx="216.7" cy="801.7" r="34.7" fill="#fff" opacity=".5"/>
  <circle cx="283.4" cy="822.7" r="10" fill="#fff" opacity=".5"/>
  <circle cx="461.3" cy="759.9" r="10" fill="#fff" opacity=".5"/>
  <circle cx="461.3" cy="536.1" r="10" fill="#fff" opacity=".5"/>
  <circle cx="432.6" cy="582.7" r="10" fill="#fff" opacity=".5"/>
  <circle cx="398" cy="734" r="6" fill="#fff" opacity=".5"/>
  <circle cx="331.7" cy="753.9" r="6" fill="#fff" opacity=".5"/>
  <circle cx="412" cy="425.7" r="6" fill="#fff" opacity=".5"/>
  <circle cx="227.8" cy="657.6" r="11.1" fill="#fff" opacity=".5"/>
  <circle cx="273.3" cy="695.9" r="11.1" fill="#fff" opacity=".5"/>
  <circle cx="216.7" cy="378.1" r="11.1" fill="#fff" opacity=".5"/>
  <circle cx="288.4" cy="616.9" r="5" fill="#fff" opacity=".5"/>
  <circle cx="404.1" cy="646.5" r="5" fill="#fff" opacity=".5"/>
  <circle cx="198.5" cy="490" r="5" fill="#fff" opacity=".5"/>
  <circle cx="384.7" cy="522.4" r="3.7" fill="#fff" opacity=".5"/>
  <circle cx="167.9" cy="352.9" r="3.7" fill="#fff" opacity=".5"/>
  <circle cx="251" cy="490" r="3.7" fill="#fff" opacity=".5"/>
  <circle cx="17.9" cy="1120.1" r="12.1" fill="#fff" opacity=".5"/>
  <circle cx="13" cy="997.3" r="27.4" fill="#fff" opacity=".5"/>
  <circle cx="56.8" cy="895.1" r="16.4" fill="#fff" opacity=".5"/>
  <circle cx="29.4" cy="748.2" r="16.4" fill="#fff" opacity=".5"/>
  <circle cx="16.7" cy="814.8" r="23.7" fill="#fff" opacity=".5"/>
  <circle cx="4.8" cy="658.7" r="19.2" fill="#fff" opacity=".5"/>
  <circle cx="124.8" cy="776.9" r="20.5" fill="#fff" opacity=".5"/>
  <circle cx="124.8" cy="1008.4" r="20.5" fill="#fff" opacity=".5"/>
  <circle cx="199.2" cy="924.3" r="45.6" fill="#fff" opacity=".5"/>
  <circle cx="118.9" cy="1148.8" r="34.7" fill="#fff" opacity=".5"/>
  <circle cx="153.5" cy="1072.4" r="10" fill="#fff" opacity=".5"/>
  <circle cx="153.5" cy="848.6" r="10" fill="#fff" opacity=".5"/>
  <circle cx="124.8" cy="895.1" r="10" fill="#fff" opacity=".5"/>
  <circle cx="90.2" cy="1046.5" r="6" fill="#fff" opacity=".5"/>
  <circle cx="24" cy="1066.3" r="6" fill="#fff" opacity=".5"/>
  <circle cx="104.3" cy="738.1" r="6" fill="#fff" opacity=".5"/>
  <circle cx="96.3" cy="959" r="5" fill="#fff" opacity=".5"/>
  <circle cx="76.9" cy="834.9" r="3.7" fill="#fff" opacity=".5"/>
  <circle cx="35.4" cy="1440.6" r="46.5" fill="#fff" opacity=".5"/>
  <circle cx="47.5" cy="1616" r="12.1" fill="#fff" opacity=".5"/>
  <circle cx="134.3" cy="1695.7" r="12.1" fill="#fff" opacity=".5"/>
  <circle cx="129.4" cy="1572.9" r="27.4" fill="#fff" opacity=".5"/>
  <circle cx="173.2" cy="1470.7" r="16.4" fill="#fff" opacity=".5"/>
  <circle cx="145.8" cy="1323.8" r="16.4" fill="#fff" opacity=".5"/>
  <circle cx="7.1" cy="1313.8" r="18.3" fill="#fff" opacity=".5"/>
  <circle cx="133" cy="1390.4" r="23.7" fill="#fff" opacity=".5"/>
  <circle cx="40.4" cy="1201.7" r="23.7" fill="#fff" opacity=".5"/>
  <circle cx="121.2" cy="1234.4" r="19.2" fill="#fff" opacity=".5"/>
  <circle cx="107" cy="1309.6" r="14.1" fill="#fff" opacity=".5"/>
  <circle cx="241.2" cy="1352.5" r="20.5" fill="#fff" opacity=".5"/>
  <circle cx="241.2" cy="1584" r="20.5" fill="#fff" opacity=".5"/>
  <circle cx="315.5" cy="1499.9" r="45.6" fill="#fff" opacity=".5"/>
  <circle cx="235.2" cy="1724.4" r="34.7" fill="#fff" opacity=".5"/>
  <circle cx="133" cy="1791.6" r="34.7" fill="#fff" opacity=".5"/>
  <circle cx="25.3" cy="1689.7" r="34.7" fill="#fff" opacity=".5"/>
  <circle cx="91.9" cy="1710.7" r="10" fill="#fff" opacity=".5"/>
  <circle cx="269.9" cy="1648" r="10" fill="#fff" opacity=".5"/>
  <circle cx="269.9" cy="1424.2" r="10" fill="#fff" opacity=".5"/>
  <circle cx="241.2" cy="1470.7" r="10" fill="#fff" opacity=".5"/>
  <circle cx="206.6" cy="1622.1" r="6" fill="#fff" opacity=".5"/>
  <circle cx="140.3" cy="1641.9" r="6" fill="#fff" opacity=".5"/>
  <circle cx="220.6" cy="1313.8" r="6" fill="#fff" opacity=".5"/>
  <circle cx="36.4" cy="1545.7" r="11.1" fill="#fff" opacity=".5"/>
  <circle cx="81.9" cy="1584" r="11.1" fill="#fff" opacity=".5"/>
  <circle cx="25.3" cy="1266.2" r="11.1" fill="#fff" opacity=".5"/>
  <circle cx="97" cy="1504.9" r="5" fill="#fff" opacity=".5"/>
  <circle cx="212.6" cy="1534.6" r="5" fill="#fff" opacity=".5"/>
  <circle cx="193.2" cy="1410.5" r="3.7" fill="#fff" opacity=".5"/>
  <circle cx="59.6" cy="1378.1" r="3.7" fill="#fff" opacity=".5"/>
  <circle cx="36.5" cy="1779.1" r="18.3" fill="#fff" opacity=".5"/>
  <circle cx="237" cy="1823.5" r="19.2" fill="#fff" opacity=".5"/>
  <circle cx="328.3" cy="1801.6" r="15.5" fill="#fff" opacity=".5"/>
  <circle cx="413.2" cy="1792.5" r="15.5" fill="#fff" opacity=".5"/>
  <circle cx="459.7" cy="1723.2" r="46.5" fill="#fff" opacity=".5"/>
  <circle cx="597.5" cy="1753.3" r="16.4" fill="#fff" opacity=".5"/>
  <circle cx="570.1" cy="1606.3" r="16.4" fill="#fff" opacity=".5"/>
  <circle cx="336.5" cy="1673" r="23.7" fill="#fff" opacity=".5"/>
  <circle cx="431.4" cy="1596.3" r="18.3" fill="#fff" opacity=".5"/>
  <circle cx="376.7" cy="1753.3" r="18.3" fill="#fff" opacity=".5"/>
  <circle cx="557.4" cy="1673" r="23.7" fill="#fff" opacity=".5"/>
  <circle cx="545.5" cy="1516.9" r="19.2" fill="#fff" opacity=".5"/>
  <circle cx="412" cy="1468.5" r="19.2" fill="#fff" opacity=".5"/>
  <circle cx="1028.5" cy="837.2" r="19.2" fill="#fff" opacity=".5"/>
  <circle cx="531.4" cy="1592.2" r="14.1" fill="#fff" opacity=".5"/>
  <circle cx="665.5" cy="1635.1" r="20.5" fill="#fff" opacity=".5"/>
  <circle cx="739.9" cy="1782.5" r="45.6" fill="#fff" opacity=".5"/>
  <circle cx="694.3" cy="1706.7" r="10" fill="#fff" opacity=".5"/>
  <circle cx="665.5" cy="1753.3" r="10" fill="#fff" opacity=".5"/>
  <circle cx="645" cy="1596.3" r="6" fill="#fff" opacity=".5"/>
  <circle cx="460.7" cy="1828.2" r="11.1" fill="#fff" opacity=".5"/>
  <circle cx="449.7" cy="1548.7" r="11.1" fill="#fff" opacity=".5"/>
  <circle cx="521.3" cy="1787.5" r="5" fill="#fff" opacity=".5"/>
  <circle cx="637" cy="1817.2" r="5" fill="#fff" opacity=".5"/>
  <circle cx="431.4" cy="1660.6" r="5" fill="#fff" opacity=".5"/>
  <circle cx="617.6" cy="1693" r="3.7" fill="#fff" opacity=".5"/>
  <circle cx="483.9" cy="1660.6" r="3.7" fill="#fff" opacity=".5"/>
  <circle cx="839.9" cy="1749" r="23.7" fill="#fff" opacity=".5"/>
  <circle cx="982.2" cy="1773" r="19.2" fill="#fff" opacity=".5"/>
  <circle cx="910.8" cy="1731.9" r="6" fill="#fff" opacity=".5"/>
  <circle cx="886.4" cy="1804.8" r="11.1" fill="#fff" opacity=".5"/>
  <circle cx="1073.4" cy="1751.1" r="15.5" fill="#fff" opacity=".5"/>
  <circle cx="1158.3" cy="1742" r="15.5" fill="#fff" opacity=".5"/>
  <circle cx="1204.8" cy="1672.6" r="46.5" fill="#fff" opacity=".5"/>
  <circle cx="1298.8" cy="1804.9" r="27.4" fill="#fff" opacity=".5"/>
  <circle cx="1342.6" cy="1702.7" r="16.4" fill="#fff" opacity=".5"/>
  <circle cx="1121.8" cy="1795.5" r="16.4" fill="#fff" opacity=".5"/>
  <circle cx="1315.3" cy="1555.8" r="16.4" fill="#fff" opacity=".5"/>
  <circle cx="1081.6" cy="1622.4" r="23.7" fill="#fff" opacity=".5"/>
  <circle cx="1176.6" cy="1545.8" r="18.3" fill="#fff" opacity=".5"/>
  <circle cx="1121.8" cy="1702.7" r="18.3" fill="#fff" opacity=".5"/>
  <circle cx="1302.5" cy="1622.4" r="23.7" fill="#fff" opacity=".5"/>
  <circle cx="1290.6" cy="1466.4" r="19.2" fill="#fff" opacity=".5"/>
  <circle cx="1276.5" cy="1541.7" r="14.1" fill="#fff" opacity=".5"/>
  <circle cx="1410.6" cy="1584.6" r="20.5" fill="#fff" opacity=".5"/>
  <circle cx="1485" cy="1731.9" r="45.6" fill="#fff" opacity=".5"/>
  <circle cx="1439.4" cy="1656.2" r="10" fill="#fff" opacity=".5"/>
  <circle cx="1410.6" cy="1702.7" r="10" fill="#fff" opacity=".5"/>
  <circle cx="1390.1" cy="1545.8" r="6" fill="#fff" opacity=".5"/>
  <circle cx="1785.9" cy="1233.4" r="6" fill="#fff" opacity=".5"/>
  <circle cx="1205.9" cy="1777.7" r="11.1" fill="#fff" opacity=".5"/>
  <circle cx="1194.8" cy="1498.2" r="11.1" fill="#fff" opacity=".5"/>
  <circle cx="1266.4" cy="1737" r="5" fill="#fff" opacity=".5"/>
  <circle cx="1382.1" cy="1766.6" r="5" fill="#fff" opacity=".5"/>
  <circle cx="1176.6" cy="1610.1" r="5" fill="#fff" opacity=".5"/>
  <circle cx="1122.7" cy="1559.8" r="5" fill="#fff" opacity=".5"/>
  <circle cx="1362.7" cy="1642.5" r="3.7" fill="#fff" opacity=".5"/>
  <circle cx="1229" cy="1610.1" r="3.7" fill="#fff" opacity=".5"/>
  <circle cx="1211.9" cy="1419.3" r="3.7" fill="#fff" opacity=".5"/>
  <circle cx="1838.4" cy="1806.9" r="20.5" fill="#fff" opacity=".5"/>
  <circle cx="1838.4" cy="1693.6" r="10" fill="#fff" opacity=".5"/>
  <circle cx="1561.7" cy="1771.8" r="12.1" fill="#fff" opacity=".5"/>
  <circle cx="1643.6" cy="1728.6" r="27.4" fill="#fff" opacity=".5"/>
  <circle cx="1755.4" cy="1739.7" r="20.5" fill="#fff" opacity=".5"/>
  <circle cx="1784.1" cy="1803.7" r="10" fill="#fff" opacity=".5"/>
  <circle cx="1720.8" cy="1777.8" r="6" fill="#fff" opacity=".5"/>
  <circle cx="1654.5" cy="1797.6" r="6" fill="#fff" opacity=".5"/>
  <circle cx="1596.1" cy="1739.7" r="11.1" fill="#fff" opacity=".5"/>
  <circle cx="1724.1" cy="1063.8" r="12.1" fill="#fff" opacity=".5"/>
  <circle cx="1810.9" cy="1143.4" r="12.1" fill="#fff" opacity=".5"/>
  <circle cx="1806" cy="1020.7" r="27.4" fill="#fff" opacity=".5"/>
  <circle cx="1702" cy="1137.5" r="34.7" fill="#fff" opacity=".5"/>
  <circle cx="1768.6" cy="1158.5" r="10" fill="#fff" opacity=".5"/>
  <circle cx="1817" cy="1089.7" r="6" fill="#fff" opacity=".5"/>
  <circle cx="1758.5" cy="1031.8" r="11.1" fill="#fff" opacity=".5"/>
  <circle cx="1712" cy="972.8" r="11.1" fill="#fff" opacity=".5"/>
  <circle cx="1850.5" cy="1515.5" r="12.1" fill="#fff" opacity=".5"/>
  <circle cx="1850.5" cy="1349.2" r="12.1" fill="#fff" opacity=".5"/>
  <circle cx="1828.4" cy="1589.2" r="34.7" fill="#fff" opacity=".5"/>
  <circle cx="1801.4" cy="853.4" r="12.1" fill="#fff" opacity=".5"/>
  <circle cx="1779.3" cy="927" r="34.7" fill="#fff" opacity=".5"/>
  <circle cx="1845.9" cy="948" r="10" fill="#fff" opacity=".5"/>
  <circle cx="1835.9" cy="821.3" r="11.1" fill="#fff" opacity=".5"/>
</svg>